<?xml version="1.0" standalone="no"?>
<!DOCTYPE svg PUBLIC "-//W3C//DTD SVG 1.1//EN" "http://www.w3.org/Graphics/SVG/1.1/DTD/svg11.dtd" >
<svg>
<metadata>
Created by FontForge 20110222 at Mon May  5 08:05:54 2014
 By Orthosie Webhosting
(c) 2005 Adobe Systems Incorporated. All Rights Reserved.
</metadata>
<defs>
<font id="GaramondPremierProRegular" horiz-adv-x="400" >
  <font-face 
    font-family="GaramondPremierProRegular"
    font-weight="400"
    font-stretch="normal"
    units-per-em="1000"
    panose-1="2 2 4 2 6 5 6 2 4 3"
    ascent="725"
    descent="-275"
    x-height="393"
    cap-height="646"
    bbox="-213 -336 1405 918"
    underline-thickness="50"
    underline-position="-50"
    unicode-range="U+0020-FB04"
  />
<missing-glyph horiz-adv-x="500" 
d="M0 0v700h500v-700h-500zM250 395l170 255h-340zM280 350l170 -255v510zM80 50h340l-170 255zM50 605v-510l170 255z" />
    <glyph glyph-name="T_h" unicode="Th" horiz-adv-x="1049" 
d="M337 642q211 0 231 2q39 0 62 5q24 7 31 13q29 23 40 23q9 0 9 -11q-1 -6 -7 -50t-7 -84q-3 -90 -3 -188q0 -3 2 -5.5t5 -0.5q64 58 126 58q73 0 106 -46q28 -40 28 -108q0 -22 2 -86.5t2 -98.5q0 -18 9 -26t31 -13q28 -6 28 -16q0 -13 -27 -13q-18 0 -40.5 1.5
t-38.5 1.5q-11 0 -34 -1t-39 -1q-19 0 -19 12q0 9 20 14q19 6 24.5 13.5t8.5 35.5q1 8 1 39.5t-0.5 67.5t-0.5 38q0 82 -17 100q-28 33 -80 33q-20 0 -39 -5t-28.5 -10t-12.5 -8q-15 -15 -17 -49q-1 -29 -1.5 -106t0.5 -102q1 -23 10 -31.5t29 -13.5q21 -6 21 -16
q0 -12 -24 -12q-2 0 -35.5 1t-46.5 1q-12 0 -40.5 -1.5t-36.5 -1.5q-23 0 -23 13q0 9 29 17q21 7 29.5 18.5t10.5 38.5q9 126 9 355v63v46v23t-4 16.5t-8.5 10.5t-6.5 3q-14 2 -110.5 3t-116.5 -2q-3 -1 -5.5 -6t-2.5 -7q0 -19 -0.5 -108t-0.5 -137q0 -202 5 -248
q3 -36 14.5 -48.5t56.5 -22.5q27 -6 27 -18t-28 -12q-2 0 -21.5 1.5t-46 2.5t-45.5 1q-30 0 -71.5 -3.5t-43.5 -3.5q-30 0 -30 10q0 14 19 18q49 11 61 30t14 79q7 206 7 340v119q0 13 -8 13q-27 4 -120 4q-52 0 -74 -23q-13 -9 -33 -49q-10 -23 -19 -23q-10 0 -10 22
q0 5 9.5 51t9.5 81q0 5 5 10.5t10 5.5q2 0 3.5 -1t4 -4.5t6.5 -7.5q21 -21 36 -22q35 -4 230 -4z" />
    <glyph glyph-name="Tcaron_h" unicode="&#x164;h" horiz-adv-x="1049" 
d="M337 642q211 0 231 2q39 0 62 5q24 7 31 13q29 23 40 23q9 0 9 -11q-1 -6 -7 -50t-7 -84q-3 -90 -3 -188q0 -3 2 -5.5t5 -0.5q64 58 126 58q73 0 106 -46q28 -40 28 -108q0 -22 2 -86.5t2 -98.5q0 -18 9 -26t31 -13q28 -6 28 -16q0 -13 -27 -13q-18 0 -40.5 1.5
t-38.5 1.5q-11 0 -34 -1t-39 -1q-19 0 -19 12q0 9 20 14q19 6 24.5 13.5t8.5 35.5q1 8 1 39.5t-0.5 67.5t-0.5 38q0 82 -17 100q-28 33 -80 33q-20 0 -39 -5t-28.5 -10t-12.5 -8q-15 -15 -17 -49q-1 -29 -1.5 -106t0.5 -102q1 -23 10 -31.5t29 -13.5q21 -6 21 -16
q0 -12 -24 -12q-2 0 -35.5 1t-46.5 1q-12 0 -40.5 -1.5t-36.5 -1.5q-23 0 -23 13q0 9 29 17q21 7 29.5 18.5t10.5 38.5q9 126 9 355v63v46v23t-4 16.5t-8.5 10.5t-6.5 3q-14 2 -110.5 3t-116.5 -2q-3 -1 -5.5 -6t-2.5 -7q0 -19 -0.5 -108t-0.5 -137q0 -202 5 -248
q3 -36 14.5 -48.5t56.5 -22.5q27 -6 27 -18t-28 -12q-2 0 -21.5 1.5t-46 2.5t-45.5 1q-30 0 -71.5 -3.5t-43.5 -3.5q-30 0 -30 10q0 14 19 18q49 11 61 30t14 79q7 206 7 340v119q0 13 -8 13q-27 4 -120 4q-52 0 -74 -23q-13 -9 -33 -49q-10 -23 -19 -23q-10 0 -10 22
q0 5 9.5 51t9.5 81q0 5 5 10.5t10 5.5q2 0 3.5 -1t4 -4.5t6.5 -7.5q21 -21 36 -22q35 -4 230 -4zM329 688q-11 0 -38 22q-4 4 -19 16t-32.5 26.5t-32.5 28.5q-7 4 -9.5 10.5t0 11t10.5 4.5q4 0 15 -4.5t12 -4.5q32 -14 90 -44q8 -3 16 1q11 6 40.5 20.5t44.5 21.5
q1 0 12 4.5t16 4.5q28 0 0 -27l-88 -72q-24 -19 -37 -19z" />
    <glyph glyph-name="Tcommaaccent_h" unicode="&#x162;h" horiz-adv-x="1049" 
d="M337 642q211 0 231 2q39 0 62 5q24 7 31 13q29 23 40 23q9 0 9 -11q-1 -6 -7 -50t-7 -84q-3 -90 -3 -188q0 -3 2 -5.5t5 -0.5q64 58 126 58q73 0 106 -46q28 -40 28 -108q0 -22 2 -86.5t2 -98.5q0 -18 9 -26t31 -13q28 -6 28 -16q0 -13 -27 -13q-18 0 -40.5 1.5
t-38.5 1.5q-11 0 -34 -1t-39 -1q-19 0 -19 12q0 9 20 14q19 6 24.5 13.5t8.5 35.5q1 8 1 39.5t-0.5 67.5t-0.5 38q0 82 -17 100q-28 33 -80 33q-20 0 -39 -5t-28.5 -10t-12.5 -8q-15 -15 -17 -49q-1 -29 -1.5 -106t0.5 -102q1 -23 10 -31.5t29 -13.5q21 -6 21 -16
q0 -12 -24 -12q-2 0 -35.5 1t-46.5 1q-12 0 -40.5 -1.5t-36.5 -1.5q-23 0 -23 13q0 9 29 17q21 7 29.5 18.5t10.5 38.5q9 126 9 355v63v46v23t-4 16.5t-8.5 10.5t-6.5 3q-14 2 -110.5 3t-116.5 -2q-3 -1 -5.5 -6t-2.5 -7q0 -19 -0.5 -108t-0.5 -137q0 -202 5 -248
q3 -36 14.5 -48.5t56.5 -22.5q27 -6 27 -18t-28 -12q-2 0 -21.5 1.5t-46 2.5t-45.5 1q-30 0 -71.5 -3.5t-43.5 -3.5q-30 0 -30 10q0 14 19 18q49 11 61 30t14 79q7 206 7 340v119q0 13 -8 13q-27 4 -120 4q-52 0 -74 -23q-13 -9 -33 -49q-10 -23 -19 -23q-10 0 -10 22
q0 5 9.5 51t9.5 81q0 5 5 10.5t10 5.5q2 0 3.5 -1t4 -4.5t6.5 -7.5q21 -21 36 -22q35 -4 230 -4zM313 -38q28 0 48 -21t20 -59q0 -36 -22 -62t-43 -35t-34 -9q-14 0 -14 8t12 14q20 8 36.5 25t16.5 36q0 23 -24 30q-39 11 -39 35q0 19 14 28.5t29 9.5z" />
    <glyph glyph-name="f_f_b" unicode="ffb" horiz-adv-x="1042" 
d="M351 345h-176q-9 0 -9 -23v-250q0 -21 11 -29t41 -17q23 -6 23 -17q0 -13 -25 -13q-6 0 -44.5 2t-49.5 2q-20 0 -46.5 -2t-27.5 -2q-22 0 -22 11q0 10 20 15q31 9 38 20.5t9 48.5v239q0 9 -12 11l-32 6q-11 0 -11 17q0 2 7.5 6t19 9.5t17.5 9.5q12 8 12 17q0 74 29 137
q31 67 96 107q61 39 117 39q66 0 107 -37q5 -3 8 0q61 63 136 63q29 0 65 -17q4 -2 13 3q17 9 27 9t10 -16v-38q-1 -39 -1.5 -95.5t-0.5 -100.5q0 -74 2 -85q2 -6 4 -6q54 35 114 35q74 0 124 -44q66 -57 66 -151q0 -109 -87 -176q-56 -45 -135 -45q-25 0 -67 7t-60 13
q-9 5 -20 -3q-4 -3 -11 -3t-7 13q6 94 6 332q0 190 -4 235q-5 46 -12 53q-27 30 -71 30q-52 0 -76 -42q-32 -54 -32 -225q0 -8 7 -8h53.5h41.5l16 1q5 0 10 -13t5 -29q0 -2 -6 -6t-10 -4q-3 0 -55 1.5t-58 1.5q-2 0 -5 -3t-3 -7q0 -13 0.5 -128t0.5 -120q0 -30 10 -40
t55 -19q12 -3 18 -8.5t6 -9.5q0 -11 -27 -11q-4 0 -45 2t-56 2q-20 0 -45 -2t-36 -2q-9 0 -16.5 4t-7.5 9q0 10 21 15q33 9 41 20.5t8 47.5v244q0 9 -6 9zM176 390h175q6 0 6 8q0 108 43 189q1 1 0 4.5t-2 5.5q-37 48 -114 48q-45 0 -79 -48q-38 -48 -38 -195q0 -12 9 -12z
M927 188q0 31 -12.5 67t-37.5 61q-41 43 -109 43q-36 0 -57 -14q-6 -4 -8 -15q-2 -18 -2 -58q0 -84 7 -160q3 -32 22 -51q18 -20 46 -30.5t46 -10.5q22 0 58 34q21 19 34 58.5t13 75.5z" />
    <glyph glyph-name="f_f_h" unicode="ffh" horiz-adv-x="1049" 
d="M827 404q69 0 101.5 -41.5t32.5 -112.5q0 -12 2 -93t2 -92q0 -13 9.5 -22.5t16.5 -12t23 -7.5q19 -5 19 -13q0 -13 -27 -13q-18 0 -40.5 1.5t-39.5 1.5q-10 0 -33 -1t-38 -1q-21 0 -21 12q0 8 21 14q20 6 25 13.5t8 35.5q1 8 1 38t-0.5 65.5t-0.5 38.5q0 75 -20 105.5
t-77 30.5q-20 0 -39 -5t-28.5 -10t-12.5 -8q-14 -10 -17 -49q-2 -33 -2 -106.5t1 -101.5q2 -33 41 -47q20 -7 20 -14q0 -12 -25 -12h-2q-3 0 -37 1t-46 1q-11 0 -38 -1.5t-35 -1.5q-23 0 -23 13q0 2 1.5 4t4.5 4t6 3t8.5 3t9.5 4q34 14 38 56q10 140 10 414q0 125 -8 136
q-34 34 -83 34q-37 0 -66 -45q-17 -27 -28 -98t-9 -127q0 -8 9 -8h109q10 -4 10 -34q0 -13 -17 -13q-3 0 -50 0.5t-53 0.5q-9 0 -9 -12v-249v-9q0 -14 0.5 -19.5t5.5 -12t16 -10.5t32 -8q24 -5 24 -17q0 -11 -27 -11q-4 0 -15 0.5t-27.5 1.5t-26.5 1q-5 0 -13 0.5t-11 0.5
q-18 0 -45 -2t-37 -2q-9 0 -16.5 4t-7.5 9q0 9 21 14q33 9 41 20.5t8 47.5q0 39 2 122.5t2 123.5q0 3 -3.5 5.5t-5.5 2.5h-172q-10 0 -10 -23v-1v-223q0 -42 8 -52.5t44 -20.5q23 -6 23 -16q0 -13 -25 -13h-1q-5 0 -17 0.5t-29.5 1.5t-27.5 1q-5 0 -12 0.5t-9 0.5
q-20 0 -45.5 -2t-26.5 -2q-9 0 -16.5 4t-7.5 9q0 7 22 13q31 9 38 20.5t9 48.5v239q0 4 -2.5 6.5t-7 3.5t-9 1.5t-10.5 1t-10 1.5q-7 1 -9 6q-4 12 -4 14q0 4 15 12q38 19 38 30q3 157 108 234q74 49 136 49q69 0 106 -39q4 -4 8 0q27 28 66 46t77 18q32 0 68 -20q4 -3 10 0
q26 12 27 12q6 0 6 -12q-12 -85 -12 -342q0 -3 2 -5.5t5 -0.5q63 58 126 58zM176 390h172q9 0 9 9q0 101 46 187q1 1 0 4.5t-2 5.5q-14 19 -46.5 35t-65.5 16q-122 0 -122 -245q0 -4 3 -8t6 -4z" />
    <glyph glyph-name="f_f_j" unicode="ffj" horiz-adv-x="777" 
d="M348 345h-172q-10 0 -10 -23q0 -208 4 -242q3 -28 11.5 -36.5t37.5 -16.5q25 -7 25 -17q0 -14 -27 -14q-6 0 -45 2t-50 2q-20 0 -46.5 -3t-28.5 -3q-22 0 -22 12q0 10 21 15q30 9 37 20.5t9 49.5v63t0.5 95.5t0.5 80.5q0 9 -11 11q-28 5 -33 6q-8 0 -8 17q0 2 7 6
t17.5 9.5t16.5 9.5q12 8 12 17q0 73 29 136q32 70 96 109q58 37 117 37q69 0 108 -39q3 -4 7 0q28 28 66.5 46.5t77.5 18.5q70 0 102 -42q8 -12 8 -23q0 -16 -19.5 -32.5t-31.5 -16.5q-3 0 -38 30q-33 33 -77 34q-31 0 -58 -31q-48 -54 -48 -231q0 -11 17 -11q11 0 39 -0.5
t40 -0.5q98 -1 126 12q20 9 25 9q8 0 8 -20v-357q-2 -110 -45 -186q-33 -57 -93 -102q-27 -19 -36 -19q-14 0 -21 6q-4 7 2 11q43 25 64 51q56 68 56 240q0 257 -3 291q-3 18 -15 18h-155q-10 0 -10 -20q0 -216 3 -240q0 -4 1 -14t1.5 -12.5t2.5 -8.5t5.5 -7.5t9.5 -5.5
t15 -6t23 -5q23 -5 23 -18q0 -11 -26 -11q-4 0 -43.5 2t-54.5 2q-20 0 -45 -2t-36 -2q-9 0 -16.5 4t-7.5 9q0 11 21 15q32 9 39.5 20.5t8.5 47.5q1 34 1 244q0 3 -3 6t-6 3zM178 390h170q9 0 9 8q0 105 44 186q2 5 -2 11q-38 49 -115 49q-45 0 -79 -46q-38 -48 -38 -196
q0 -12 11 -12z" />
    <glyph glyph-name="f_f_k" unicode="ffk" horiz-adv-x="1022" 
d="M348 345h-172q-10 0 -10 -23q0 -213 5 -248q2 -23 11.5 -31.5t35.5 -16.5q25 -7 25 -17q0 -13 -27 -13q-6 0 -44.5 2t-49.5 2q-20 0 -47 -2.5t-28 -2.5q-21 0 -21 13q0 9 20 14q31 9 38 20.5t9 48.5v239q0 9 -11 11l-33 6q-9 0 -9 17q0 2 7.5 6t19 10t16.5 9q11 8 11 17
q0 73 29 136q33 72 95 110q56 36 115 36q75 0 110 -37q4 -4 8 0q61 63 134 63q27 0 65 -19q3 -2 13 3q19 11 30 11q7 0 9 -16q-4 -36 -4 -345q0 -108 3 -117t7 -9q6 0 21 13q86 81 105 108q1 3 2.5 6.5t-5 8t-19.5 6.5q-25 4 -25 14q0 12 21 12h43q38 0 80 6t55 6q8 0 8 -7
q0 -8 -8 -14.5t-13 -7.5q-38 -9 -58.5 -18.5t-57.5 -34.5q-20 -15 -49 -42.5t-32 -33.5t-1 -10q75 -90 162 -177q27 -27 68 -36q24 -6 24 -16q0 -12 -25 -12q-8 0 -52 3t-74 3h-44q-25 0 -25 13q0 9 22 14q28 7 13 28q-4 5 -22 24.5t-44 48.5t-47 54q-19 23 -26 23
q-1 0 -5 -8q-3 -9 -3 -63t4 -76q3 -15 10.5 -21.5t27.5 -11.5q21 -6 21 -15q0 -11 -23 -11q-13 0 -42 1t-42 1q-19 0 -46 -2t-37 -2q-23 0 -23 11q0 8 23 15q29 7 38.5 15.5t13.5 28.5q7 33 7 291q0 189 -3 223q-4 44 -12 53q-28 32 -70 32q-53 0 -77 -43q-34 -57 -34 -224
q0 -8 7 -8h54h43l16 1q5 0 9.5 -13t4.5 -29q0 -2 -5.5 -6t-9.5 -4q-3 0 -54 1.5t-56 1.5q-11 0 -11 -10v-248q0 -30 10.5 -41.5t54.5 -20.5q18 -4 18 -15t-22 -11q-4 0 -44.5 2t-55.5 2q-20 0 -45 -2t-36 -2q-26 0 -26 13q0 10 23 15q32 9 39 20t8 48q2 72 2 244q0 3 -3 6
t-6 3zM178 390h170q9 0 9 8q0 105 44 187q1 1 0 4.5t-2 5.5q-38 49 -113 49q-48 0 -82 -46q-37 -47 -37 -196q0 -12 11 -12z" />
    <glyph glyph-name="f_f_t" unicode="fft" horiz-adv-x="810" 
d="M178 390h170q9 0 9 8q0 108 44 189q1 1 0 4.5t-2 5.5q-14 19 -45.5 34t-65.5 15q-121 0 -121 -244q0 -12 11 -12zM348 345h-172q-10 0 -10 -23v-1q0 -206 1 -228q0 -37 8.5 -47.5t42.5 -19.5q26 -7 26 -17q0 -13 -28 -13h-2q-7 -1 -44.5 1.5t-49.5 2.5q-20 0 -45.5 -2
t-26.5 -2q-23 0 -23 13q0 7 21 13q24 7 32.5 16.5t10.5 28.5q3 24 4 59t1 63t-0.5 74t-0.5 68q0 3 -2 5.5t-7 4t-8.5 2.5t-10.5 1.5t-10 1.5q-9 2 -11.5 5t-2.5 13q0 3 5.5 6.5t16.5 9l17 8.5q14 9 14 18q0 155 111 237q69 46 133 46q68 0 105 -39q4 -4 8 0q49 52 124 62
q14 2 22 2q33 -1 58 -16t25 -37q0 -16 -14.5 -30.5t-26.5 -15.5q-11 2 -25 15q-38 35 -78 37q-8 1 -18 -2q-26 -9 -48 -43q-16 -26 -27 -93.5t-11 -129.5q0 -9 9 -9h140q9 0 17 7.5t29 33.5q24 28 28 28q3 0 9 -5t6 -7q-1 -8 -1.5 -24t-0.5 -25q0 -8 8 -8q10 0 39.5 1t56 2
t27.5 1l3 1q10 -4 10 -46q0 -11 -26 -11h-109q-6 0 -9 -42q-2 -33 -2 -181q0 -67 80 -67q25 0 48 14q11 6 15 6q5 -2 5 -11q0 -25 -40.5 -47t-79.5 -22q-29 0 -53 14t-36 33t-12 66q0 19 2 113.5t2 111.5q0 7 -4 12q-6 7 -153 7q-3 0 -6.5 -3.5t-3.5 -8.5q0 -192 3 -249
q1 -23 3.5 -31t15.5 -15.5t44 -13.5q19 -4 19 -17q0 -11 -22 -11q-5 0 -47 2t-57 2q-18 0 -45 -2t-37 -2q-8 0 -15.5 4t-7.5 9q0 10 20 14q33 9 42 21.5t9 47.5q0 11 1 121t1 123q0 3 -3 6t-6 3z" />
    <glyph glyph-name="f_h" unicode="fh" horiz-adv-x="788" 
d="M437 694l-1 -66q0 -65 -1 -148t-1 -128q0 -3 2 -5.5t5 -0.5q61 58 125 58q72 0 105 -46q29 -39 29 -108q0 -22 2 -86.5t2 -98.5q0 -18 9 -26t31 -13q28 -6 28 -16q0 -13 -26 -13q-18 0 -41 1.5t-40 1.5q-10 0 -33 -1t-38 -1q-21 0 -21 12q0 8 21 14q20 6 25.5 13.5
t8.5 35.5q1 8 1 39.5t-0.5 67.5t-0.5 38q0 80 -17 100q-30 33 -80 33q-20 0 -39.5 -5t-29.5 -10t-12 -8q-14 -14 -16 -49q-2 -33 -2 -106.5t1 -101.5q1 -23 9.5 -31.5t27.5 -13.5q23 -6 23 -16q0 -12 -25 -12q-2 0 -35 1t-47 1q-13 0 -40.5 -1.5t-35.5 -1.5q-24 0 -24 13
q0 9 29 17q21 7 29.5 18.5t10.5 38.5q9 126 9 268q0 183 -4 228q-4 46 -11 53q-32 32 -73 32q-51 0 -75 -40q-35 -59 -35 -227q0 -8 9 -8h54h43l16 1q5 0 9.5 -13t4.5 -29q0 -2 -5.5 -6t-9.5 -4q-3 0 -53.5 1.5t-56.5 1.5q-10 0 -10 -11q-2 -65 1 -228q1 -44 11 -57t42 -21
q23 -5 23 -13q0 -6 -6 -10.5t-13 -4.5q-15 0 -45.5 1.5t-39.5 1.5q-32 0 -59 -2t-33 -2q-22 0 -22 11q0 8 23 15q37 10 41 41q3 22 3 260q0 16 -10 17q-20 4 -34 6q-6 2 -6 6q0 7 6.5 13.5t18 13t14.5 8.5q11 8 11 17q2 73 13 115q26 95 94 150q56 44 115 44q34 0 68 -17
q6 -3 12 0q25 14 34 14q8 0 8 -16z" />
    <glyph glyph-name="f_j" unicode="fj" horiz-adv-x="493" 
d="M331 344h-155q-10 0 -10 -20q0 -222 2 -262q1 -14 10.5 -21.5t32.5 -14.5q22 -7 22 -17q0 -12 -23 -12q-7 0 -35 1.5t-46 1.5q-20 0 -48.5 -1.5t-32.5 -1.5q-20 0 -20 14q0 10 20 15q23 7 31 14.5t11 27.5t3 261q1 10 -11 12q-7 1 -16.5 2t-16.5 2q-4 0 -7.5 4t-3.5 7
q0 6 8.5 12t37.5 20q9 7 9 11q0 3 1.5 21t2 23.5t2 20.5t3.5 23.5t4.5 20.5t6 22.5t7.5 20.5q32 73 89 115q61 48 122 48q71 0 102 -43q8 -12 8 -23q0 -16 -19.5 -32.5t-31.5 -16.5q-4 0 -39 30q-32 34 -77 35q-32 0 -57 -31q-50 -58 -50 -232q0 -7 3.5 -8.5t12.5 -1.5
q56 -1 78 -1q70 -1 91.5 1t36.5 11q13 9 24 9q9 0 9 -20v-357q-2 -111 -46 -186q-34 -59 -93 -102q-25 -19 -35 -19q-14 0 -20 6t1 11q44 26 64 51q55 67 55 240q0 258 -2 292q-3 17 -15 17z" />
    <glyph glyph-name="f_k" unicode="fk" horiz-adv-x="757" 
d="M435 352q0 -115 2 -121q3 -9 7 -9q5 0 20 13q86 81 105 108q12 15 -21 21q-25 4 -25 14q0 12 21 12h43q37 0 79.5 6t55.5 6q7 0 7 -7q0 -8 -7.5 -14.5t-12.5 -7.5q-38 -8 -58 -18t-58 -35q-20 -15 -48.5 -42.5t-32.5 -33.5q-3 -6 -1 -10q53 -65 161 -177q30 -28 69 -36
q23 -6 23 -16q0 -12 -24 -12q-8 0 -52 3t-74 3h-46q-24 0 -24 13q0 9 21 14q31 7 13 28q-5 6 -21.5 24.5t-43.5 48.5t-48 54q-19 23 -24 23t-5 -8q-4 -9 -3.5 -63t4.5 -76q3 -15 10 -21.5t27 -11.5q22 -6 22 -15q0 -11 -25 -11q-12 0 -40.5 1t-41.5 1q-19 0 -46.5 -2
t-37.5 -2q-24 0 -24 11q0 8 24 15q29 7 38.5 15.5t13.5 28.5q7 44 7 282q0 176 -5 232q-4 48 -11 56q-29 29 -72 29q-51 0 -75 -42q-35 -59 -35 -225q0 -8 9 -8h54h43l16 1q5 0 9.5 -13t4.5 -29q0 -2 -5.5 -6t-9.5 -4q-3 0 -54 1.5t-57 1.5q-9 0 -9 -11q-1 -21 -1 -106
t1 -122q1 -46 8.5 -58t37.5 -20q23 -5 23 -13q0 -6 -6.5 -10.5t-13.5 -4.5q-15 0 -41 1.5t-35 1.5q-32 0 -59 -2t-33 -2q-22 0 -22 11q0 8 23 15q37 10 41 41q3 22 3 260q0 16 -10 17q-20 4 -34 6q-7 2 -7 6q0 7 6.5 13.5t18.5 13t15 8.5q11 8 11 17q1 70 13 112
q27 98 97 155q54 42 117 42q31 0 67 -18q6 -1 13 2q24 13 30 13q7 0 7 -16l-1 -66q0 -65 -0.5 -148t-0.5 -128z" />
    <glyph glyph-name="f_t" unicode="ft" horiz-adv-x="573" 
d="M414 390q10 0 40 0.5t56.5 1t27.5 0.5q8 0 10 -10q3 -9 3 -30q0 -11 -26 -11h-110q-7 0 -8 -12q-2 -34 -2 -214q0 -68 79 -68q11 0 37 10.5t27 10.5q5 0 5 -11q0 -25 -40.5 -47t-79.5 -22q-29 0 -53.5 14.5t-34.5 32.5q-13 18 -13 66q0 19 2 114.5t2 112.5q0 16 -9 16
h-153q-2 0 -4.5 -3t-2.5 -4q-1 -14 0 -130t3 -129q3 -27 14.5 -36.5t52.5 -16.5q23 -4 23 -15q0 -12 -26 -12q-5 -1 -28 0.5t-35 1.5h-22q-21 0 -59 -2.5t-39 -2.5q-25 0 -25 11q0 8 21 16q31 9 37.5 20t7.5 47q2 82 2 215q0 39 -10 39q-31 0 -42 -2q-4 0 -7.5 6t-1.5 11
l15 9q16 9 31.5 21t15.5 18q3 97 25 149q27 63 78 107.5t108 50.5q7 1 20 1q29 0 54 -14.5t25 -38.5q0 -19 -14 -32t-31 -13q-1 0 -34.5 25t-60.5 26q-6 0 -18 -2q-19 -5 -32 -21q-27 -33 -37 -83.5t-10 -161.5q0 -9 6 -9h61.5t61 0.5t26.5 0.5q9 0 14 5q5 3 18 18.5
t25 28.5t15 13q4 0 9 -4.5t5 -6.5l-1 -47q0 -8 6 -8z" />
    <glyph glyph-name="gamma_gamma" unicode="&#x3b3;&#x3b3;" horiz-adv-x="763" 
d="M117 407q24 0 42 -7t38.5 -38t32.5 -86q16 -75 16 -162q0 -7 8 -2q3 2 4 5q65 192 123 251q12 15 37 27.5t38 12.5q91 0 119 -133q18 -85 18 -161q0 -7 7 -1q2 1 3 4q66 131 80 165q27 64 39 130q0 1 3.5 2t7.5 1t6 -2q27 -17 34 -40q5 -17 -7 -44q-8 -18 -45.5 -80
t-71.5 -128t-44 -112q-5 -25 -5 -29q0 -24 -4 -102.5t-6 -86.5q-1 -5 -8.5 -11t-11.5 -5q-36 13 -53 47q-9 20 -5 33q17 77 47 164q5 15 5.5 53t-2.5 55q-5 30 -13 60.5t-22 67t-37.5 59.5t-51.5 23q-21 0 -37 -12q-39 -28 -80 -119t-62 -184q-4 -20 -4 -34
q-2 -42 -11.5 -127.5t-12.5 -96.5q-1 -5 -9 -11t-12 -5q-37 12 -51 44q-9 20 -5 34q33 122 61 197q12 34 3 107q-5 44 -17 85t-40 77t-65 36q-24 0 -45 -14t-29 -26q-5 -8 -9.5 -4.5t-6.5 13.5q-5 26 15 52q42 58 96 58z" />
    <glyph glyph-name="lambda_lambda" unicode="&#x3bb;&#x3bb;" horiz-adv-x="759" 
d="M96 676q41 0 67.5 -32t48.5 -114q7 -23 37 -155.5t40 -170.5q38 -141 81 -141q14 0 24 21q17 32 43.5 86.5t46.5 96t23 47.5q19 47 28 58q8 8 4 35q-45 234 -153 234q-51 0 -85 -26q-2 -1 -6 2t-4 6q0 16 12 32q42 58 104 58q45 0 73 -33t55 -118q5 -17 50.5 -210
t58.5 -229q3 -9 9.5 -19t22 -22t33.5 -12q26 0 47 5q1 0 2 -1.5t1.5 -5.5t0.5 -5q2 -4 -3 -20q-22 -61 -69 -61q-21 0 -38 19t-25 52q-52 200 -60 242q-2 7 -6.5 5t-5.5 -6q-3 -9 -57.5 -134t-59.5 -133q-19 -44 -53 -44q-20 0 -36.5 8.5t-26.5 19t-19 30.5t-13 32t-10 34
q-42 160 -47 188q-2 7 -6.5 5t-5.5 -6q-2 -8 -51 -130.5t-53 -128.5q-25 -54 -34 -54q-6 0 -23.5 5.5t-27.5 12.5q-11 7 -8 17q4 9 70.5 141.5t78.5 154.5q23 52 33 64q8 5 5 22q-22 110 -51 160t-83 50q-32 0 -62 -15q-2 -1 -6.5 2.5t-4.5 6.5q0 12 14 32q32 42 80 42z" />
    <glyph glyph-name="longs_b" unicode="&#x17f;b" horiz-adv-x="758" 
d="M420 701q0 -169 -3 -319q0 -3 1.5 -6t3 -3.5t2.5 0.5q58 31 116 31q72 0 121 -44q66 -56 66 -152q0 -63 -24 -103t-64 -72q-52 -42 -135 -45q-57 -2 -128 20q-7 3 -18 -3q-4 -3 -10 -3q-7 0 -7 13q5 190 5 332q1 200 -2 251q0 30 -13 41q-23 23 -56 23q-49 0 -75 -44
q-30 -52 -32 -226v-289q1 -43 8 -55t38 -20q27 -6 27 -16q0 -6 -9 -10t-17 -4q-14 0 -39 1t-35 1q-25 0 -46.5 -1t-33.5 -2t-13 -1q-21 0 -21 11q0 10 22 17q38 10 41 37q3 25 3 261q0 16 -9 17l-35 6q-6 2 -6 7q0 7 5.5 13t19.5 15l15 8q11 8 11 15q1 72 14 113
q25 88 86 141q60 51 124 51q35 0 57 -13q7 -3 12 3q17 20 25 20t8 -17zM644 188q0 73 -44 123q-43 48 -111 48q-41 0 -62 -14q-6 -4 -8 -15q-2 -18 -2 -56q0 -100 6 -164q1 -35 27 -59q30 -30 73 -30q38 0 69 28q52 46 52 139z" />
    <glyph glyph-name="longs_h" unicode="&#x17f;h" horiz-adv-x="768" 
d="M93 322q0 16 -9 17l-6 1q-6 1 -14.5 2.5t-14.5 2.5q-6 2 -6 7q0 7 5.5 13t19.5 15l15 8q11 8 11 15q1 75 14 115q25 88 86 140q59 52 124 52q36 0 57 -13q8 -3 17 11q3 5 10 10.5t10 5.5q8 0 8 -17q0 -140 -4 -340q0 -7 3 -9.5t6 -0.5q25 19 60.5 33t63.5 14
q72 0 104 -46q29 -39 29 -108q1 -63 1 -185q0 -18 10 -25.5t32 -12.5q27 -5 27 -16q0 -14 -25 -14q-18 0 -42 1.5t-40 1.5q-10 0 -33 -1.5t-39 -1.5q-22 0 -22 15q0 9 20 14q19 5 26.5 14.5t9.5 32.5q3 28 3 153q0 71 -22 97q-25 29 -78 29q-48 0 -83 -20q-11 -6 -11 -17
q-2 -43 -2 -130.5t1 -113.5q1 -23 8 -30.5t27 -13.5t20 -16q0 -14 -20 -14q-1 0 -34.5 1.5t-47.5 1.5q-12 0 -39 -1.5t-35 -1.5q-22 0 -22 13q0 11 27 19q22 6 30.5 17t9.5 38q7 98 7 273v232q0 39 -15 52q-23 23 -56 23q-49 0 -77 -47q-28 -49 -30 -225v-289q1 -48 7.5 -59
t37.5 -16q21 -4 21 -14q0 -6 -6.5 -11t-13.5 -5q-14 0 -38.5 1t-34.5 1q-25 0 -46.5 -1t-33.5 -2t-13 -1q-20 0 -20 11q0 10 21 17q38 11 41 37q3 25 3 261z" />
    <glyph glyph-name="longs_i" unicode="&#x17f;i" horiz-adv-x="507" 
d="M166 385q0 -55 0.5 -159t0.5 -151q0 -25 9 -34t40 -15q20 -3 20 -16t-21 -13q-4 0 -41.5 1.5t-52.5 1.5q-20 0 -44.5 -1.5t-26.5 -1.5q-21 0 -21 13q0 10 16 14q30 9 38 19t9 48q2 82 2 241q0 3 -3.5 6.5t-8.5 3.5h-33q-7 0 -7 13q0 2 40 33q11 9 11 15q0 84 28 147
q33 74 89 116q61 48 126 48q74 0 104 -45q9 -13 9 -23q0 -16 -20 -32.5t-31 -16.5q-6 0 -39 31q-33 35 -80 36q-36 0 -61 -31q-21 -24 -36.5 -88.5t-15.5 -159.5zM349 200q0 98 -2 122q-3 15 -30 26q-13 5 -13 14t22 16q20 4 89 26q9 0 9 -11q0 -3 -1 -40t-1.5 -83t-0.5 -71
q0 -63 2 -133q0 -15 6 -24t11.5 -11.5t17.5 -5.5q22 -7 22 -17q0 -11 -19 -11q-2 0 -35 1.5t-46 1.5q-18 0 -44.5 -1.5t-33.5 -1.5q-22 0 -22 12q0 9 24 15q36 11 40 26q5 16 5 150z" />
    <glyph glyph-name="longs_k" unicode="&#x17f;k" horiz-adv-x="740" 
d="M93 322q0 16 -9 17l-16 3q-15 2 -19 3q-6 2 -6 7q0 7 5.5 13t19.5 15l15 8q11 8 11 15q1 78 15 114q25 89 85 141q60 51 124 51q35 0 58 -13q3 -3 9 5q4 5 14 13.5t13 8.5q8 0 8 -17q0 -24 -3 -327q-1 -29 -0.5 -84.5t1.5 -62.5q1 -9 7 -9q14 0 26 12q71 62 103 108
q1 3 1 6t-7.5 6.5t-21.5 5.5q-25 4 -25 17q0 12 20 12h51q39 0 75 4.5t49 4.5q18 0 18 -11q0 -12 -21 -17q-45 -9 -60.5 -16t-49.5 -34q-31 -25 -83 -79q-5 -7 1 -13q60 -75 162 -173q25 -22 69 -30q22 -4 22 -13q0 -16 -27 -16q-9 0 -50 1.5t-72 1.5q-13 0 -33.5 -0.5
t-21.5 -0.5q-26 0 -26 14q0 11 20 15q36 9 18 28q-11 14 -111 125q-15 20 -27 20q-8 0 -8 -8q0 -131 1 -136q2 -14 9.5 -18.5t31.5 -12.5q19 -6 19 -15q0 -14 -22 -14q-12 0 -42 1.5t-43 1.5q-18 0 -46 -1.5t-38 -1.5q-21 0 -21 12q0 10 21 16q31 8 40.5 15.5t13.5 25.5
q4 19 6 295v227q0 39 -15 52q-23 23 -56 23q-49 0 -77 -47q-28 -49 -30 -224v-289q1 -47 8.5 -59t39.5 -17q22 -4 22 -14q0 -6 -9 -10.5t-17 -4.5q-14 0 -37.5 1t-33.5 1q-25 0 -46.5 -1t-33.5 -2t-13 -1q-20 0 -20 11q0 10 21 17q38 10 41 37q3 25 3 261z" />
    <glyph glyph-name="longs_l" unicode="&#x17f;l" horiz-adv-x="504" 
d="M93 322q0 16 -9 17q-5 1 -19 3.5t-16 2.5q-6 2 -6 7q0 7 5.5 13t19.5 15l15 8q11 8 11 15q1 78 15 114q25 89 85 141q60 51 124 51q35 0 58 -13q6 -3 16 11q3 5 10 10.5t10 5.5q8 0 8 -17q0 -130 -2 -332q0 -64 0.5 -133.5t1 -118t0.5 -55.5q1 -16 10.5 -24t38.5 -17
q22 -6 22 -15q0 -5 -7 -9.5t-16 -4.5q-12 0 -48.5 1.5t-44.5 1.5q-12 0 -40 -1.5t-39 -1.5q-26 0 -26 14q0 9 21 15q33 9 40.5 18.5t10.5 48.5q5 68 5 254q0 148 -1 241q0 39 -15 52q-23 23 -56 23q-49 0 -77 -47q-28 -49 -30 -224v-289q1 -47 8 -58t37 -19q24 -6 24 -14
q0 -6 -8 -10t-15 -4q-14 0 -38.5 1t-34.5 1q-25 0 -46.5 -1t-33.5 -2t-13 -1q-23 0 -23 11q0 9 24 17q38 10 41 37q3 25 3 261z" />
    <glyph glyph-name="longs_longs" unicode="&#x17f;s" horiz-adv-x="508" 
d="M94 329q0 9 -12 11q-10 1 -32 4q-8 1 -8 13q1 2 35 27q17 11 17 21q0 98 37 157q30 52 76 84q57 43 117 43q6 0 9 -3q58 0 98 -36q1 0 8 1.5t10 2.5q59 59 128 58q31 0 54 -16.5t24 -37.5q0 -16 -14 -28q-14 -10 -27 -10q-3 0 -24 16q-35 28 -66 28q-38 0 -64 -39
q-38 -58 -38 -231v-309q1 -29 10.5 -41.5t36.5 -18.5q22 -5 22 -18q0 -11 -22 -11q-5 0 -42.5 2t-53.5 2q-20 0 -45 -2t-27 -2q-23 0 -23 12q0 8 21 15q31 10 39.5 21.5t10.5 47.5v64t0.5 95.5t0.5 81.5q0 10 -11 12q-3 1 -12.5 2t-18.5 3q-8 1 -8 15q0 2 5 5t14 8.5t14 9.5
q16 9 17 21q6 120 35 175q8 10 2 16q-45 45 -104 45q-45 0 -74 -39q-42 -52 -42 -232v-304q0 -20 10.5 -28.5t39.5 -15.5q23 -6 23 -15q0 -15 -23 -15q-6 0 -44 2t-50 2q-21 0 -46 -1.5t-26 -1.5q-23 0 -23 13q0 8 23 14q20 6 28.5 15t10 18t3.5 36v63.5t0.5 93.5t0.5 79z
" />
    <glyph glyph-name="longs_longs_i" unicode="&#x17f;si" horiz-adv-x="763" 
d="M325 689q65 0 108 -41q3 -4 9 2q59 64 131 64q33 0 58 -16.5t25 -39.5q0 -16 -14 -28q-12 -10 -26 -10q-5 0 -24 16q-35 28 -66 28q-39 0 -65 -39q-39 -59 -39 -242v-298q1 -29 10 -41.5t36 -18.5q23 -5 23 -18q0 -11 -23 -11q-5 0 -42 2t-53 2q-20 0 -45.5 -2t-27.5 -2
q-22 0 -22 12q0 8 20 15q31 10 40 22t11 47v63t0.5 95.5t0.5 82.5q0 10 -11 12l-31 5q-8 1 -8 15q0 2 5 5t14 8.5t14 9.5q16 10 17 21q7 118 38 179q5 10 1 12q-45 45 -104 45q-44 0 -75 -40q-43 -54 -43 -220v-315q0 -20 10.5 -28.5t39.5 -15.5q23 -6 23 -15q0 -15 -23 -15
q-6 0 -44 2t-50 2q-21 0 -46.5 -2t-26.5 -2q-9 0 -16 4.5t-8 9.5q0 8 23 14q28 8 35 20.5t9 48.5v63.5t0.5 93.5t0.5 79q0 9 -12 11l-32 4q-8 1 -8 13q1 2 35 27q17 11 17 21q0 95 36 154q32 54 78 87q60 43 117 43zM553 359q0 11 21 15q22 5 59 19t41 15q3 0 6 -5t3 -6
q0 -3 -1.5 -41t-3 -85t-1.5 -72q0 -63 2 -133q0 -8 2.5 -14t4.5 -9.5t8.5 -7t8.5 -4.5t12 -3.5t12 -3.5q22 -7 22 -17t-24 -10q-2 0 -33.5 1.5t-43.5 1.5q-18 0 -48.5 -2t-37.5 -2q-25 0 -25 11q0 9 24 16q36 9 40 28t4 103v8q0 9 0.5 22t0.5 29t0.5 32t0 29.5t-1 23.5
t-1.5 12q-6 12 -39 36q-12 7 -12 13z" />
    <glyph glyph-name="longs_longs_l" unicode="&#x17f;sl" horiz-adv-x="755" 
d="M325 689q64 0 106 -40q3 -3 9 2q60 63 133 63q38 0 61 -16q5 -1 9 5t13 12.5t11 6.5q8 0 8 -16q0 -3 -0.5 -61.5t-1.5 -145.5t-1 -140q-1 -66 0 -176.5t1 -114.5q0 -17 9.5 -26.5t40.5 -17.5q23 -7 23 -15q0 -12 -26 -12q-13 0 -44.5 1.5t-39.5 1.5q-12 0 -45 -1.5
t-42 -1.5q-29 0 -29 11t22 15q32 7 40.5 21t10.5 54q6 114 6 254v238q0 39 -16 55q-19 21 -54 21q-42 0 -68 -39q-39 -59 -39 -242v-300q1 -29 10 -41.5t36 -18.5q23 -5 23 -18q0 -11 -23 -11q-5 0 -42 2t-53 2q-20 0 -47 -2t-29 -2q-19 0 -19 13q0 8 17 14q32 10 42 22
t12 47q1 32 1 241q0 10 -11 12l-31 5q-8 1 -8 15q0 2 5 5t14 8.5t14 9.5q16 10 17 21q2 107 39 179q4 9 1 12q-37 45 -105 45q-46 0 -77 -40q-41 -52 -41 -218v-317q0 -20 11 -28.5t40 -16.5q22 -6 22 -16q0 -13 -23 -13q-5 0 -43.5 2t-50.5 2q-21 0 -47.5 -2t-27.5 -2
q-9 0 -16 4.5t-7 9.5q0 8 23 14q28 8 35 20.5t9 48.5q-1 19 0.5 117t1.5 119q0 9 -12 11l-32 4q-8 1 -8 13q1 2 35 27q17 11 17 21q0 97 37 156q30 54 76 85q57 43 118 43z" />
    <glyph glyph-name="longs_t" unicode="&#x17f;t" horiz-adv-x="582" 
d="M81 341q-18 2 -32 2q-8 0 -8 12q0 1 44 34q9 6 9 20q0 147 93 225q60 48 112 48q58 0 88.5 -32.5t30.5 -84.5v-160q0 -2 4 -6.5t7 -4.5h35t46.5 0.5t22.5 0.5q16 0 17 -12l2 -31v-1q0 -11 -25 -11q-2 0 -48.5 1t-49.5 1q-12 0 -12 -12v-205q0 -35 17 -55q22 -26 53 -26
q15 0 31.5 6.5t20.5 11.5q8 7 14 7q8 0 8 -17q0 -2 -9.5 -14t-15.5 -16q-36 -34 -88 -34q-29 0 -55 15.5t-36 33.5q-14 22 -14 65q0 19 1.5 117.5t1.5 115.5q0 2 -2.5 3t-7.5 2t-10.5 1t-14.5 0.5t-16 1.5q-12 0 -12 12q0 5 5 9q7 5 24.5 13.5t20.5 10.5q11 8 12 24
q4 36 4 140q0 40 -18 60q-22 23 -68 23q-98 0 -98 -208q0 -34 0.5 -167.5t0.5 -186.5q0 -26 8.5 -34.5t39.5 -14.5q22 -4 22 -14q0 -5 -7.5 -9t-15.5 -4q-5 0 -41.5 1.5t-51.5 1.5q-21 0 -44.5 -1.5t-25.5 -1.5q-21 0 -21 13q0 5 17 12q31 8 37.5 19t7.5 47q2 82 2 244
q0 9 -12 9z" />
    <glyph glyph-name="f_f" unicode="ff" horiz-adv-x="559" 
d="M351 345h-176q-9 0 -9 -25v-248q0 -21 11 -29t41 -17q25 -7 25 -18q0 -12 -27 -12q-6 0 -44.5 2t-49.5 2q-20 0 -46.5 -2t-27.5 -2q-23 0 -23 12q0 7 21 13q31 9 38 20.5t9 49.5v239q0 9 -12 11l-29 6q-11 0 -11 17q0 2 7 6t17.5 9.5t16.5 9.5q12 8 12 17q0 76 28 137
q32 70 96 109q58 37 117 37q65 0 107 -40q2 -1 4.5 -1t3.5 1q63 65 142 65q35 0 60 -15t25 -38q0 -7 -7.5 -20.5t-13.5 -17.5q-16 -8 -22 -8q-5 0 -25 17q-38 36 -77 36q-35 0 -65 -44q-17 -26 -27.5 -97.5t-7.5 -129.5q0 -7 6 -7h112q10 -4 10 -34q0 -13 -17 -13
q-3 0 -51 0.5t-54 0.5q-2 0 -5 -3.5t-3 -6.5q0 -13 0.5 -129t0.5 -121q0 -28 11 -39.5t50 -19.5q23 -5 23 -18q0 -11 -26 -11q-4 0 -43 2t-54 2q-20 0 -46 -2t-36 -2q-8 0 -15.5 4t-7.5 9q0 11 20 15q33 9 41.5 21t8.5 47v244q0 9 -6 9zM175 390h176q6 0 6 8q0 107 43 188
q1 1 0 4.5t-2 5.5q-14 18 -47.5 34.5t-67.5 16.5q-43 0 -79 -48q-37 -49 -37 -197q0 -12 8 -12z" />
    <glyph glyph-name="f_i" unicode="fi" horiz-adv-x="514" 
d="M181 391q13 -1 90 -1q80 -1 124 13q23 7 31 7q3 0 3.5 -8.5t-0.5 -34.5t-1 -46q0 -229 3 -262q1 -14 10.5 -20.5t33.5 -13.5q13 -4 17 -7.5t4 -9.5q0 -11 -23 -11q-12 0 -38 1.5t-39 1.5q-18 0 -46.5 -2t-39.5 -2q-19 0 -19 11q0 8 21 16t29 16t9 20q5 103 5 268
q0 4 -4.5 9t-7.5 6q-22 3 -77 3.5t-90 -3.5q-2 0 -6 -4t-4 -9q0 -193 3 -253q2 -25 10 -33.5t42 -17.5q21 -8 21 -17q0 -11 -22 -11q-7 0 -39.5 1.5t-50.5 1.5q-20 0 -49.5 -2.5t-33.5 -2.5q-20 0 -20 12q0 9 21 15q24 8 31 15.5t11 30.5q3 20 3 261q0 2 -3.5 6t-7.5 5
q-34 5 -36 5q-4 0 -6 4t-1 7q3 11 45 33q9 7 9 13q0 87 27 149q33 75 87 115q61 48 127 48q76 0 106 -45q9 -12 9 -23q0 -16 -20 -32.5t-31 -16.5q-6 0 -39 31q-33 34 -82 36q-37 0 -62 -31q-48 -56 -48 -232q0 -3 4.5 -6.5t9.5 -3.5z" />
    <glyph glyph-name="f_l" unicode="fl" horiz-adv-x="517" 
d="M322 713q21 0 55 -17q6 -3 17 3q18 11 30 11q7 0 7 -16l-1 -64q0 -64 -1 -145.5t-1 -126.5q0 -269 1 -288q1 -18 10 -28.5t34 -16.5q21 -5 21 -13q0 -14 -22 -14q-10 0 -41 1t-41 1q-22 1 -44.5 -1t-25.5 -2q-27 0 -27 12q0 9 21 15q23 6 30 17.5t9 34.5q0 2 3 255
q0 12 -8 12q-13 1 -85 2t-87 1q-9 0 -9 -14q-2 -65 1 -229q1 -45 9.5 -57.5t38.5 -19.5q24 -7 24 -15q0 -6 -8 -10t-16 -4q-15 0 -41 1.5t-35 1.5q-32 0 -59 -2t-33 -2q-22 0 -22 11q0 8 23 15q37 10 41 41q3 22 3 260q0 16 -10 17l-37 5q-6 2 -6 6q0 7 7 13.5t19.5 13.5
t15.5 9q11 8 11 17q1 53 13 103q24 106 95 164q54 42 121 42zM271 665q-47 0 -72 -42q-32 -54 -32 -224q0 -8 11 -8h4h13t18.5 -0.5t22.5 -0.5h25h26h24t20.5 0.5t15.5 0.5q9 2 9 12t-5 167q-2 56 -9 63q-11 11 -15.5 15t-20.5 10.5t-35 6.5z" />
    <glyph glyph-name="f_f_i" unicode="ffi" horiz-adv-x="778" 
d="M348 345h-172q-10 0 -10 -23q0 -213 4 -238q2 -24 12.5 -37t35.5 -20q27 -7 27 -18q0 -13 -29 -13q-6 0 -44.5 2t-49.5 2q-20 0 -47 -2.5t-28 -2.5q-23 0 -23 12q0 10 21 16q32 9 39 20t9 48q0 12 0.5 112.5t-0.5 126.5q0 9 -11 11l-36 1q-11 0 -11 18q0 2 9 7t21 12
t17 10q13 9 13 17q0 73 28 134q31 68 98 109q59 39 117 39q72 0 108 -38q3 -5 8 0q27 28 67 46t78 18q73 0 105 -45q8 -12 8 -23q0 -16 -19.5 -32.5t-31.5 -16.5q-4 0 -38 31q-33 35 -79 36q-35 0 -62 -30q-50 -58 -50 -232q0 -10 8 -10q10 0 42.5 -0.5t53.5 -0.5
q81 -1 123 13q23 7 27 7q6 0 6 -89q0 -229 3 -262q1 -14 10.5 -20.5t33.5 -13.5q14 -5 17.5 -8t3.5 -9q0 -11 -23 -11q-12 0 -38 1.5t-40 1.5q-18 0 -46.5 -2t-38.5 -2q-19 0 -19 12q0 8 21 16t29 15.5t9 19.5q5 78 5 268q0 4 -3.5 8.5t-6.5 5.5q-23 3 -80 4t-92 -3
q-1 0 -2.5 -1t-3 -3.5t-1.5 -5.5q0 -223 2 -249q0 -19 0.5 -24.5t6 -14.5t17.5 -13t35 -9q22 -5 22 -16t-25 -11q-4 0 -42.5 2t-53.5 2q-20 0 -47 -2t-38 -2q-22 0 -22 11t20 15q33 9 41.5 21.5t8.5 48.5q0 14 1 112.5t1 131.5q0 3 -3.5 6t-5.5 3zM177 390h171q9 0 9 8
q0 104 46 188q2 5 -2 11q-38 47 -115 47q-45 0 -79 -48q-40 -51 -40 -194q0 -12 10 -12z" />
    <glyph glyph-name="f_f_l" unicode="ffl" horiz-adv-x="778" 
d="M352 345h-177q-9 0 -9 -23q0 -9 1.5 -124t1.5 -120q0 -22 11 -33t38 -19q26 -7 26 -17q0 -13 -28 -13q-6 0 -44.5 2t-49.5 2q-20 0 -46.5 -2t-27.5 -2q-22 0 -22 10t19 15q31 9 38.5 21t9.5 49v239q0 9 -12 11q-10 2 -32 6q-8 0 -8 17q0 2 7 5.5l18 9t16 8.5q12 8 12 17
q0 72 31 139q30 69 97 110q54 36 116 36q29 0 58 -10t44 -26q5 -5 7 0q60 60 127 60q31 0 65 -17q6 -4 11 -1q21 15 35 15q7 0 7 -16l-1 -64q-1 -64 -1.5 -145.5t-0.5 -126.5q0 -269 1 -288q1 -18 10 -28.5t34 -16.5q21 -5 21 -13q0 -14 -22 -14q-10 0 -41 1t-41 1
q-21 1 -44 -1t-26 -2q-27 0 -27 12q0 10 21 16q23 7 30.5 18t9.5 33q0 2 3 256q0 12 -5 12q-33 1 -85.5 1t-91.5 1q-6 0 -6 -13t0.5 -128.5t0.5 -120.5q0 -31 9.5 -41t52.5 -19q21 -6 21 -17t-24 -11q-4 0 -43.5 2t-54.5 2q-20 0 -46 -2t-37 -2q-9 0 -16.5 4t-7.5 9
q0 11 21 15q33 9 42 21t9 47v245q0 8 -5 8zM178 390h174q5 0 5 8q0 108 44 190q1 1 0 4.5t-2 5.5q-38 47 -115 47q-45 0 -78 -47q-39 -50 -39 -196q0 -12 11 -12zM534 665q-45 0 -69 -43q-35 -59 -35 -223q0 -8 10 -8h4h12.5t18.5 -0.5t23 -0.5h25h25.5t23.5 0.5t20.5 1
t15.5 0.5q10 2 10 12q-1 10 -2 80.5t-1 85.5q-1 52 -12 63q-30 32 -69 32z" />
    <glyph glyph-name=".notdef" horiz-adv-x="500" 
d="M0 0v700h500v-700h-500zM250 395l170 255h-340zM280 350l170 -255v510zM80 50h340l-170 255zM50 605v-510l170 255z" />
    <glyph glyph-name=".null" horiz-adv-x="0" 
 />
    <glyph glyph-name="nonmarkingreturn" horiz-adv-x="333" 
 />
    <glyph glyph-name="space" unicode=" " horiz-adv-x="199" 
 />
    <glyph glyph-name="exclam" unicode="!" horiz-adv-x="291" 
d="M162 612q27 0 41 -25.5t13 -57.5q-1 -12 -9 -82t-16 -141.5t-9 -76.5q-1 -12 -6.5 -24t-13.5 -12q-7 0 -13 11.5t-7 28.5q0 6 -15 128t-19 170q-3 40 16 60.5t38 20.5zM161 115q30 0 45.5 -20.5t15.5 -42.5q0 -27 -17.5 -45.5t-44.5 -18.5q-24 0 -43 16t-19 48
q0 31 21.5 47t41.5 16z" />
    <glyph glyph-name="quotedbl" unicode="&#x22;" horiz-adv-x="302" 
d="M105 689q8 0 12 -7.5t4 -13.5q0 -39 -27 -177q-10 -30 -22 -30q-10 0 -13 25q-17 144 -17 150q0 14 7 18q45 35 56 35zM250 696q13 0 13 -21q0 -71 -26 -179q-5 -33 -21 -33q-3 0 -5 2.5t-3.5 6t-2.5 7t-2 7.5l-1 3q-5 51 -9.5 88t-7 51.5t-2.5 20.5q0 13 15 21
q43 26 52 26z" />
    <glyph glyph-name="numbersign" unicode="#" horiz-adv-x="486" 
d="M447 430q-9 -34 -16 -34l-76 -3q-3 0 -6 -10l-27 -107q-1 -2 0 -4.5t3 -1.5l81 3q3 0 5 -9t1 -14q-2 -11 -9 -24.5t-14 -13.5l-79 -3q-5 0 -6 -7l-45 -171q-1 -6 -9.5 -10t-17.5 -4q-5 0 -9.5 3t-2.5 8l43 171q2 9 -4 9l-97 -4q-2 0 -6 -3.5t-4 -4.5l-46 -173
q-3 -11 -23 -11q-5 0 -10.5 5t-4.5 8l43 168q3 10 -6 10l-71 -2q-2 0 -4.5 7t-2.5 9q9 43 22 43l73 4q8 0 9 7l27 108q0 8 -4 8l-83 -2l-1 4q0 4 -0.5 10.5t0.5 16.5q8 27 17 29l81 4q1 0 3.5 2t2.5 3l40 155q6 11 30 11q2 0 6 -3.5t4 -5.5l-39 -154q0 -6 3 -6l103 3
q4 0 6 8l40 157q3 10 31 10q1 0 3 -1.5t3.5 -4.5t0.5 -8l-39 -151q-2 -9 2 -9l76 1q7 -17 3 -26zM308 381q3 11 -3 10l-100 -3q-6 0 -8 -8l-27 -107q-1 -2 1 -5.5t5 -2.5l98 4q6 0 8 8z" />
    <glyph glyph-name="dollar" unicode="$" horiz-adv-x="486" 
d="M257 258l-23 -224q0 -5 4 -5q51 6 86 35.5t35 76.5q0 40 -22 66.5t-74 55.5q-6 0 -6 -5zM237 374l23 207q0 8 -5 8q-49 -2 -80 -31t-31 -79q0 -69 87 -109q6 -2 6 4zM266 625l8 67q0 3 5 3q8 0 16.5 -3t8.5 -7l-6 -59q0 -6 4 -6q24 -3 86 -21q8 -2 17 -31q7 -40 7 -57
q0 -26 -9 -26q-10 0 -17 18q-23 63 -88 84q-2 1 -4.5 -1.5t-2.5 -5.5l-22 -223q0 -5 4 -9q89 -42 125 -84t36 -100q0 -72 -73 -127q-16 -13 -54 -24t-71 -14q-7 0 -7 -8l-10 -75q-1 -3 -7.5 -5.5t-10.5 -1.5q-7 0 -13 6l8 77q0 7 -4 7q-31 3 -56 10q-12 3 -55 16
q-15 1 -19 24q-3 11 -9 51t-6 43q0 17 9 17q13 0 37 -43q38 -70 101 -86q6 -1 6 4l25 237q0 7 -3 9q-66 32 -106 74t-41 107q0 59 47 104q49 52 139 54q3 0 5 5z" />
    <glyph glyph-name="percent" unicode="%" horiz-adv-x="725" 
d="M185 631q66 0 102.5 -56t36.5 -118q0 -74 -37 -129.5t-107 -55.5q-69 0 -104 53t-35 122q0 76 37 130t107 54zM191 298q19 0 33 16t20 41.5t8.5 48t2.5 45.5q0 22 -3.5 45.5t-11 50t-24.5 43.5t-40 17q-20 0 -34 -15.5t-20.5 -40t-9 -46.5t-2.5 -44q0 -32 6.5 -66
t26 -64.5t48.5 -30.5zM559 643q6 0 12 -4.5t9 -9t2 -5.5q-256 -409 -412 -653q-2 -2 -9.5 -1t-10.5 3q-13 12 -5 25q63 101 198.5 315t199.5 317q7 13 16 13zM543 346q66 0 102.5 -56t36.5 -118q0 -75 -36.5 -130.5t-107.5 -55.5q-47 0 -79.5 28t-46 66t-13.5 81
q0 75 37 130t107 55zM548 12q26 0 41.5 30t19.5 60t4 61q0 30 -5.5 62.5t-25 63t-48.5 30.5q-26 0 -42 -28t-20.5 -57.5t-4.5 -60.5t7 -66t26.5 -65t47.5 -30z" />
    <glyph glyph-name="ampersand" unicode="&#x26;" horiz-adv-x="770" 
d="M269 613q56 -1 93.5 -40.5t37.5 -83.5q0 -14 -5 -27.5t-10.5 -22t-19.5 -19.5t-20 -15t-24 -15t-20 -12q-3 -3 0 -6q30 -19 81 -68t84 -89q6 -9 15 0q37 37 103 138q12 18 12 30q0 13 -43 21q-20 3 -20 13q0 12 25 12q74 0 101 3q66 9 71 9q22 0 22 -10t-22 -16
q-35 -10 -59.5 -28.5t-59.5 -57.5q-15 -17 -61 -72t-59 -70q-5 -7 0 -12q7 -10 25.5 -36.5t28.5 -41.5q36 -52 110 -54q40 0 75 22q5 3 8 1.5t3 -5.5q0 -14 -18 -32q-28 -26 -66.5 -36.5t-68.5 -9.5q-38 0 -64 10q-25 11 -41 40q-37 68 -47 82l-1 1q-4 1 -5 0
q-66 -78 -116 -108q-48 -27 -95 -27q-73 0 -125.5 51t-52.5 127q0 80 92 152q40 30 60 42q5 2 1 6q-67 53 -67 115q0 61 47 102q45 37 95 37zM254 584q-19 0 -40 -20t-21 -60q0 -32 23.5 -62.5t55.5 -49.5q7 -4 14 1q10 6 27 26q18 21 18 69q0 32 -19 63.5t-58 32.5zM264 48
q37 0 77.5 26.5t67.5 62.5q7 10 -4 23q-34 47 -94.5 105t-82.5 70q-10 7 -22 -2q-86 -65 -86 -149q0 -59 45 -97q44 -39 99 -39z" />
    <glyph glyph-name="quotesingle" unicode="'" horiz-adv-x="174" 
d="M113 693q14 0 14 -21q1 -50 -26 -178q-10 -31 -23 -31q-5 0 -10 9t-6 18q-10 112 -19 151q0 9 7 16q9 9 30.5 22.5t32.5 13.5z" />
    <glyph glyph-name="parenleft" unicode="(" horiz-adv-x="341" 
d="M129 282q0 -89 8.5 -152t33 -119.5t45 -88.5t68.5 -101q9 -11 2 -20q-13 -11 -22 -11q-13 0 -30 18q-159 178 -159 452q0 146 52.5 269.5t120.5 193.5q18 18 29 18q9 0 16.5 -4.5t7.5 -9.5q0 -8 -10 -18q-73 -66 -117.5 -183t-44.5 -244z" />
    <glyph glyph-name="parenright" unicode=")" horiz-adv-x="341" 
d="M211 247q0 109 -21 193t-52.5 139.5t-86.5 124.5q-7 11 2 20q11 11 22 11q18 0 34 -19q154 -187 154 -445q0 -145 -52 -266t-120 -192q-19 -19 -29 -19q-15 0 -19 11q-3 5 8 19q72 74 116 187t44 236z" />
    <glyph glyph-name="asterisk" unicode="*" horiz-adv-x="327" 
d="M147 653q3 1 7 -3.5t7 -10.5q2 -5 20 -91q2 -5 7 -1q45 30 72 43q24 7 24 -5q0 -7 -11 -18q-19 -22 -65 -53q-4 -4 1 -8q58 -33 77 -49q14 -10 14 -15q0 -14 -25 -8q-34 8 -82 32q-1 1 -4 -2q-1 -2 -1 -4q1 -29 1 -75q0 -27 -12 -29q-12 0 -19 20q-8 28 -14 82q-2 6 -6 5
q-49 -29 -79 -40q-10 -3 -17 -1.5t-7 6.5q0 12 11 19q15 12 67 48q3 7 -1 9q-43 22 -70 41q-12 8 -12 17q0 15 23 7q6 -2 80 -30q3 0 5 5q-4 78 -1 93q2 14 10 16z" />
    <glyph glyph-name="plus" unicode="+" horiz-adv-x="624" 
d="M283 499q0 5 17 9.5t30 4.5q7 0 11 -4t4 -7l-3 -217q0 -6 6 -6l207 2q2 0 5 -5t3 -9q0 -17 -4.5 -27.5t-9.5 -10.5l-201 -3q-6 0 -6 -9l-2 -216q0 -6 -13 -11t-31 -5q-4 0 -8 3.5t-4 7.5l-1 219q0 11 -6 11l-196 1q-21 0 -21 25q0 10 4.5 19t10.5 9l202 -1q6 0 6 7v213z
" />
    <glyph glyph-name="comma" unicode="," horiz-adv-x="205" 
d="M90 112q30 0 53 -25.5t23 -67.5q0 -58 -44 -91.5t-71 -33.5q-18 0 -18 9q0 8 18 16q59 35 59 73q0 22 -29 32q-38 14 -38 42q0 22 15 34t32 12z" />
    <glyph glyph-name="hyphen" unicode="-" horiz-adv-x="292" 
d="M52 231q49 7 194 22q2 0 5 -4t3 -7q0 -15 -5 -31t-13 -17q-28 -3 -185 -19q-7 -1 -11.5 3.5t-4.5 10.5q0 18 6 29.5t11 12.5z" />
    <glyph glyph-name="period" unicode="." horiz-adv-x="205" 
d="M102 103q29 0 42.5 -19t13.5 -39q0 -24 -16 -41t-40 -17q-21 0 -38 14.5t-17 43.5q0 28 18.5 43t36.5 15z" />
    <glyph glyph-name="slash" unicode="/" horiz-adv-x="403" 
d="M44 -48q35 89 128.5 325.5t143.5 366.5q8 15 15 15q11 0 24 -5q10 -4 7 -14q-48 -124 -140 -353.5t-133 -335.5q-4 -10 -8.5 -14t-8.5 -3q-13 0 -21 5q-3 1 -5.5 6t-1.5 7z" />
    <glyph glyph-name="zero" unicode="0" horiz-adv-x="486" 
d="M251 631q56 0 97 -32.5t61.5 -84t30 -100.5t9.5 -95q0 -113 -33.5 -193t-80.5 -110q-45 -30 -92 -28q-53 1 -94.5 32t-64.5 79.5t-34.5 101t-11.5 103.5q0 113 34.5 190t86.5 110q43 27 92 27zM234 601q-33 0 -61 -38q-51 -77 -51 -247q0 -46 7 -94.5t22 -97t42.5 -79
t63.5 -30.5q15 0 31 12t23 21t11 15q39 75 39 250q0 110 -24.5 180.5t-50.5 88.5q-28 19 -52 19z" />
    <glyph glyph-name="one" unicode="1" horiz-adv-x="486" 
d="M107 5q0 11 33 20q37 8 50.5 20.5t17.5 43.5q7 58 7 290q0 135 -4 155q-3 17 -22 20q-6 1 -16 2.5t-17.5 3t-11.5 2.5q-19 5 -19 14q0 4 6.5 9t13.5 6q85 18 105 29l38 19q5 1 8 -2.5t3 -7.5q0 -1 -2 -36t-1 -79q0 -278 1 -396q0 -52 10 -67t55 -26q26 -6 26 -18
q0 -11 -24 -11q-12 0 -46.5 2t-50.5 2q-34 0 -83.5 -2.5t-51.5 -2.5q-25 0 -25 10z" />
    <glyph glyph-name="two" unicode="2" horiz-adv-x="486" 
d="M55 -3q-5 -1 -12.5 2.5t-8.5 8.5q-3 9 13 23q44 40 159 184q103 132 103 223q0 62 -32.5 92.5t-82.5 30.5q-75 0 -123 -62q-16 -21 -21 -21q-2 0 -6.5 5.5t-4.5 8.5q0 15 13 33q69 106 180 106q67 0 113.5 -50t46.5 -119q0 -81 -79 -176q-146 -169 -181 -208
q-2 -2 -1 -4.5t3 -3.5q32 -3 118.5 -3t110.5 4q23 4 37.5 11.5t32.5 27.5q15 17 20 17t7 -4t1.5 -11.5t-5.5 -16.5q-26 -56 -31 -90q-2 -9 -15 -9q-1 0 -55 1t-116 2t-83 1q-65 0 -101 -3z" />
    <glyph glyph-name="three" unicode="3" horiz-adv-x="486" 
d="M239 631q65 0 102 -41t37 -84q0 -47 -35 -85q-27 -29 -59 -50q-5 -7 2 -10q85 -19 121 -63q28 -35 28 -92q0 -61 -39.5 -119t-104.5 -96q-71 -42 -148 -42q-42 0 -71.5 14.5t-29.5 35.5q0 11 8 23q13 19 27 19q8 0 24 -14q41 -36 101 -36q47 0 83 29q33 26 49 64t16 72
q0 70 -36 109q-31 34 -90 34q-39 0 -78 -17q-4 -1 -6.5 1.5t-1.5 6.5q0 14 15 26q14 10 49 28q53 27 74.5 57t21.5 69q0 41 -28.5 70t-68.5 29q-64 0 -110 -56q-14 -18 -21 -18q-9 0 -9 14q0 9 16 32t39 43q53 47 123 47z" />
    <glyph glyph-name="four" unicode="4" horiz-adv-x="486" 
d="M377 446v-197q0 -8 5 -8l90 2q6 0 6 -9t-5 -22.5t-11 -16.5l-79 1q-1 0 -3.5 -2.5t-2.5 -4.5v-82q2 -51 10.5 -63.5t42.5 -19.5q22 -5 22 -16q0 -12 -23 -12q-12 -1 -46 1.5t-48 2.5q-18 0 -52.5 -2.5t-51.5 -2.5q-26 0 -26 13q0 11 26 16q39 7 48 20t12 49q1 7 1 10
q3 60 3 79q0 12 -5 13q-10 2 -123 1.5t-142 -3.5q-18 -2 -18 8q0 7 27 44l321 439q10 14 19 14h11q14 0 14 -8q0 -4 -5 -11l-317 -428q-4 -6 2 -8q30 -3 116 -3t96 1q5 5 5 7l1 191q0 9 9 15q8 6 29 12t33 6q9 0 9 -26z" />
    <glyph glyph-name="five" unicode="5" horiz-adv-x="486" 
d="M423 196q0 -101 -89 -175q-45 -37 -110.5 -57.5t-112.5 -20.5q-20 0 -23 1q-14 1 -14 8q0 3 7 11t13 9q102 9 174.5 60.5t72.5 137.5q0 47 -27 85.5t-74 59.5q-82 35 -161 49q-3 1 -8 10t-5 13q0 20 17.5 78.5t32.5 94.5q15 33 22 34q20 8 106.5 22t133.5 14q1 0 4.5 -4
t3.5 -5q0 -27 -20 -52.5t-31 -26.5q-185 -13 -190 -13q-10 0 -12 -9q-19 -55 -21 -63q-2 -12 7 -14q47 -10 108.5 -33t90.5 -41q51 -30 78 -76t27 -97z" />
    <glyph glyph-name="six" unicode="6" horiz-adv-x="486" 
d="M312 365q67 0 104 -45.5t37 -111.5q0 -113 -90 -178q-56 -43 -123 -43q-92 0 -146 64.5t-54 170.5q0 118 71.5 225t171.5 171q107 67 163 67q20 0 20 -11q0 -6 -20 -16q-88 -35 -168 -107q-70 -63 -111.5 -149t-41.5 -174q0 -78 40.5 -140t107.5 -62q32 0 54 16
q51 38 51 122q0 66 -32.5 102t-82.5 36q-29 0 -73 -22q-2 -1 -5.5 1.5t-3.5 6.5q0 10 11 22q20 22 57 37q32 18 63 18z" />
    <glyph glyph-name="seven" unicode="7" horiz-adv-x="486" 
d="M234 618q69 -1 164 3q10 0 23.5 0.5t20.5 1t8 0.5q15 0 17 -6q0 -6 -8 -19q-11 -16 -85.5 -163t-126.5 -257q-96 -200 -100 -211q-6 -14 -14 -14q-10 0 -17.5 6.5t-7.5 13.5t9 23q13 26 119.5 235.5t148.5 301.5q1 1 -1 4t-3 3q-63 7 -211 7q-40 0 -60 -4
q-19 -1 -30.5 -11.5t-31.5 -40.5q-12 -22 -21 -22t-9 13q0 10 11 39q5 12 9 26t6 22.5t3.5 19t2.5 13.5q2 15 10 23q5 4 14 0q17 -7 160 -7z" />
    <glyph glyph-name="eight" unicode="8" horiz-adv-x="486" 
d="M251 649q73 0 121.5 -42t48.5 -107q0 -56 -55 -102q-10 -9 -68 -48q-3 -1 -3.5 -4.5t1.5 -4.5q133 -99 133 -186q0 -78 -72 -130q-50 -38 -123 -38q-86 0 -133 46.5t-47 102.5q0 66 70 124q50 41 64 50q2 2 -1 6q-51 36 -80 73q-37 45 -37 100q0 71 54 114q53 46 127 46z
M248 15q48 0 74 31t26 78q0 34 -20.5 67.5t-42.5 52.5t-59 46q-11 9 -15 5q-31 -21 -55.5 -65t-24.5 -83q0 -45 32 -91q38 -41 85 -41zM241 622q-39 0 -68.5 -27.5t-29.5 -76.5q0 -46 29.5 -80t88.5 -75q7 -5 12 -2q31 24 45 46q29 50 29 100q0 15 -9 40t-35 50t-62 25z" />
    <glyph glyph-name="nine" unicode="9" horiz-adv-x="486" 
d="M253 631q92 0 142 -71t50 -165q0 -106 -71.5 -224.5t-174.5 -182.5q-71 -45 -120 -45q-6 0 -12.5 3.5t-6.5 7.5q0 5 14 10q99 49 172 137q49 56 80 135t31 154q0 52 -17.5 103t-51.5 79q-27 22 -68 22q-45 0 -75.5 -39t-30.5 -87q0 -71 34.5 -109t92.5 -38q22 0 59 17
q4 1 7.5 -0.5t3.5 -4.5q0 -7 -5 -17q-4 -9 -18 -21q-20 -17 -49.5 -27.5t-49.5 -10.5q-66 0 -107 46.5t-41 116.5q0 51 25.5 101.5t82.5 82.5q46 27 104 27z" />
    <glyph glyph-name="colon" unicode=":" horiz-adv-x="247" 
d="M124 362q28 0 41 -18.5t13 -38.5q0 -23 -16 -39.5t-39 -16.5q-21 0 -38 14t-17 44q0 28 19 41.5t37 13.5zM124 102q28 0 41 -18.5t13 -38.5q0 -23 -16 -39.5t-39 -16.5q-21 0 -38 14t-17 43q0 28 19 42t37 14z" />
    <glyph glyph-name="semicolon" unicode=";" horiz-adv-x="247" 
d="M124 361q28 0 41 -18.5t13 -38.5q0 -23 -16 -39.5t-39 -16.5q-20 0 -37.5 13.5t-17.5 42.5q0 28 19 42.5t37 14.5zM110 108q30 0 52.5 -24.5t22.5 -66.5q0 -40 -24.5 -70.5t-49 -41.5t-38.5 -11q-17 0 -17 8q0 10 13 17q58 33 58 73q0 19 -22 27q-8 2 -16 6t-17 14t-9 23
q0 22 15.5 34t31.5 12z" />
    <glyph glyph-name="less" unicode="&#x3c;" horiz-adv-x="586" 
d="M493 80q2 -3 2 -9.5t-5 -17.5t-13 -19q-6 -6 -15 -1l-329 183q-42 23 -42 32q0 5 7 15q10 16 31 27l323 181q13 8 20 2q34 -34 17 -44l-309 -167l-2 -2t-2 -4.5t3 -4.5z" />
    <glyph glyph-name="equal" unicode="=" horiz-adv-x="624" 
d="M553 377q10 0 10 -12q0 -44 -10 -44h-480q-13 0 -13 16q0 11 4.5 23.5t10.5 12.5zM552 188q3 0 7 -5t4 -11q0 -37 -14 -37l-475 1q-6 0 -10 7.5t-4 14.5q0 11 4.5 21t10.5 10z" />
    <glyph glyph-name="greater" unicode="&#x3e;" horiz-adv-x="586" 
d="M493 257q0 -6 -7 -15q-10 -16 -31 -27l-323 -182q-12 -7 -20 -1q-12 11 -18 23.5t2 20.5q43 23 151 81.5t161 87.5q2 2 1 4.5t-3 3.5q-206 112 -315 172q-2 3 -1.5 10t5.5 19t13 20q3 2 8 2t6 -1q141 -79 330 -187q41 -23 41 -31z" />
    <glyph glyph-name="question" unicode="?" horiz-adv-x="357" 
d="M138 600q38 0 96 -49q18 -14 48.5 -57.5t30.5 -85.5q0 -63 -37 -102q-22 -15 -88 -51q-6 -3 -9.5 -6t-5.5 -8t-2.5 -8t-1 -10t-0.5 -10q-2 -26 -16 -26q-10 0 -17 28q-13 55 -13 78q0 24 21 39.5t73 38.5q49 21 49 56q0 39 -15 61.5t-63 22.5q-4 0 -21 -2t-26 -2
q-14 0 -28 18t-14 39q0 12 11.5 24t27.5 12zM171 108q30 0 44 -19.5t14 -40.5q0 -25 -17 -43t-42 -18q-23 0 -41 15.5t-18 45.5q0 29 20 44.5t40 15.5z" />
    <glyph glyph-name="at" unicode="@" horiz-adv-x="874" 
d="M496 335q-32 0 -81 -53q-35 -39 -63.5 -90.5t-28.5 -87.5q0 -22 15 -22q28 0 84 50q38 34 72 81.5t50 83.5q2 5 1.5 12t-2.5 9q-15 17 -47 17zM524 383q25 0 40 -17q6 -4 8 1q3 7 7 16.5t6.5 16t3.5 8.5q2 3 8 6.5t11 2.5q18 0 29 -8q3 -1 4.5 -5.5t0.5 -7.5
q-93 -224 -106 -301q-4 -22 4 -31.5t32 -9.5q75 0 140 65t65 165q0 121 -81.5 193t-206.5 72q-113 0 -199.5 -58.5t-129.5 -149.5t-43 -197q0 -55 18 -107.5t54 -97t97.5 -72t140.5 -27.5q135 0 244 97q4 4 10 4t6 -8q0 -16 -13 -31q-46 -52 -121 -79t-149 -27
q-68 0 -129 20.5t-112 61.5t-81 110.5t-30 159.5q0 122 63 223t163.5 156.5t212.5 55.5q158 0 243.5 -87t85.5 -211q0 -106 -84 -188.5t-208 -82.5q-33 0 -50.5 10t-17.5 22q-1 8 8 34l27 79q2 3 -2 5q-3 1 -5 -2q-146 -148 -211 -148q-15 0 -25 12.5t-10 29.5q-2 63 95 181
q45 55 100.5 100.5t86.5 45.5z" />
    <glyph glyph-name="A" unicode="A" horiz-adv-x="676" 
d="M353 661q7 0 16 -26q6 -19 44 -124q95 -267 144 -385q23 -58 40.5 -75t53.5 -26q24 -7 24 -17q0 -13 -32 -13q-15 0 -59 2.5t-67 2.5q-17 0 -38 -1t-33 -1q-31 0 -31 12t24 16q22 5 32.5 13t9.5 17.5t-2 20.5q-6 33 -56 171q-3 10 -34 10q-136 0 -164 -4q-6 0 -11 -8
q-52 -130 -52 -175q0 -28 49 -43q27 -8 27 -18q0 -13 -28 -13q-6 0 -32 1.5t-47 1.5t-60 -2.5t-44 -2.5q-23 0 -23 10q0 13 22 20q41 14 56.5 26.5t35.5 58.5q12 28 87 220.5t94 240.5q6 12 6 21q0 5 2 8q5 7 17 27t13 22q11 12 16 12zM398 303q1 0 2.5 3t0.5 5
q-65 195 -78 215q-4 9 -8 0q-69 -184 -78 -219q-2 -7 5 -7q14 0 48.5 0.5t63.5 1t44 1.5z" />
    <glyph glyph-name="B" unicode="B" horiz-adv-x="589" 
d="M500 495q0 -88 -81 -132q-2 -1 -1 -4t3 -4q123 -55 123 -165q0 -96 -80 -149q-33 -23 -84 -34.5t-95 -11.5q-12 0 -78.5 2t-91.5 2q-12 0 -34 -0.5t-30 -0.5q-29 0 -29 13q0 11 25 16q49 9 60.5 20t14.5 41q8 56 8 328q0 128 -6 158q-4 19 -14.5 27t-48.5 13
q-26 4 -26 16q0 13 27 13h67q15 0 76 3.5t83 3.5q95 0 141 -29q35 -21 53 -55.5t18 -70.5zM416 488q0 61 -38.5 96t-107.5 35q-21 0 -43 -8q-9 -5 -12 -16q-6 -48 -6 -222q0 -13 11 -13q37 0 80.5 7t60.5 18q24 16 39.5 44t15.5 59zM450 180q0 88 -83 130q-37 19 -106 19
q-37 0 -44 -7q-5 -8 -7 -29q-2 -26 -1 -100.5t5 -100.5q3 -21 16 -33q14 -16 35 -25t33 -9q65 0 108.5 42.5t43.5 112.5z" />
    <glyph glyph-name="C" unicode="C" horiz-adv-x="717" 
d="M431 661q50 0 118 -16q14 -2 41.5 -10t34.5 -9q15 0 15 -30q0 -10 7 -87q1 -15 -4 -24t-11 -9q-7 0 -16 26q-14 54 -41 75q-70 52 -160 52q-117 0 -190.5 -83.5t-73.5 -200.5q0 -95 35 -165q39 -80 111.5 -120t141.5 -40q63 0 109 27q54 28 93 97q16 26 21 26
q7 0 9 -11.5t0 -21.5q-2 -18 -15 -50t-25 -51q-6 -14 -31 -26q-18 -8 -72 -18t-110 -10q-95 0 -171 36.5t-113 80.5q-84 97 -84 230q0 77 35 142t75 98q113 92 271 92z" />
    <glyph glyph-name="D" unicode="D" horiz-adv-x="755" 
d="M338 652q94 0 165.5 -30t111.5 -67q40 -39 65.5 -100.5t25.5 -120.5q0 -100 -49 -177.5t-111 -111.5q-97 -56 -238 -56q-90 0 -196 8q-19 1 -53 1q-32 0 -32 15q0 12 22 14q50 6 62.5 25t14.5 81q3 71 3 137q0 120 -5 257q-2 51 -11 66t-53 21q-23 4 -23 16q0 13 24 13
h28q20 0 110.5 4.5t138.5 4.5zM294 621q-55 0 -69 -8q-9 -6 -10 -13q-4 -24 -4 -190v-145q0 -114 4 -173q3 -35 22 -47q14 -10 39.5 -18t42.5 -8q41 0 95 16.5t92 48.5q103 88 103 250q0 65 -29.5 128.5t-77.5 99.5q-37 27 -94 43t-114 16z" />
    <glyph glyph-name="E" unicode="E" horiz-adv-x="563" 
d="M223 643h147q70 0 92 3q2 1 5 -3t4 -8q0 -26 1 -57t1 -38q0 -26 -15 -26q-11 0 -16 24q-9 37 -24.5 50.5t-42.5 17.5q-52 8 -142 4q-2 0 -4.5 -2t-6 -9t-4.5 -17q-2 -20 -3 -118.5t0 -109.5q3 -10 7 -10h65q50 0 69.5 3.5t28 12.5t18.5 34q8 21 18 21q11 0 8 -22
q-3 -42 -3 -72q0 -1 3 -61q2 -29 -11 -29q-11 0 -17 22q-11 35 -22 42.5t-57 9.5q-32 2 -99 2q-3 0 -6 -3.5t-3 -5.5q-3 -16 -3 -157q0 -56 10 -83q6 -18 19 -22q40 -7 91 -7q69 0 95 7q52 13 83 74q14 28 23 28q5 0 7.5 -9t0.5 -18q-1 -8 -16 -54.5t-20 -52.5
q-9 -12 -17 -12l-49 2q-48 2 -126 4t-150 2q-28 0 -62 -2.5t-51 -2.5q-30 0 -30 13q0 9 28 16q41 10 55.5 22.5t17.5 50.5q8 112 8 284q0 155 -1 169q-2 33 -12.5 46t-43.5 20q-29 7 -29 17q0 14 28 14q21 0 69 -2t84 -2z" />
    <glyph glyph-name="F" unicode="F" horiz-adv-x="527" 
d="M177 643h130q26 0 64 0.5t66 1.5t30 1q4 1 8 -2.5t4 -7.5q-1 -20 -0.5 -30.5t2 -33t1.5 -34.5q1 -10 -3 -18.5t-11 -8.5q-13 0 -22 31q-12 36 -23.5 47.5t-36.5 15.5q-23 3 -82.5 3.5t-72.5 -1.5q-7 -1 -11.5 -5.5t-4.5 -7.5q-4 -48 -4 -221q0 -37 10 -37q132 0 144 1
q23 2 33 11t21 35q10 24 19 24t9 -22q0 -6 -2.5 -29.5t-2.5 -33.5q0 -27 1 -49t1 -30q0 -23 -15 -23q-9 0 -15 21q-7 26 -15.5 35t-25.5 13q-28 5 -67 5q-67 0 -88 -3q-5 0 -8 -12q-2 -29 4 -188q1 -19 4 -28.5t18 -19t46 -15.5q24 -5 24 -19q0 -12 -28 -12q-12 0 -43 1.5
t-52 1.5q-22 0 -66.5 -3t-52.5 -3q-28 0 -28 10q0 13 27 20q25 6 38.5 16t15.5 16.5t3 16.5q8 83 8 303q0 153 -2 179t-16 40t-47 22q-25 6 -25 17q0 12 28 12q24 0 60.5 -1.5t50.5 -1.5z" />
    <glyph glyph-name="G" unicode="G" horiz-adv-x="724" 
d="M415 661q65 0 168 -22q33 -7 38 -8q4 0 8 -6.5t4 -17.5q0 -9 7 -49t7 -61q0 -22 -13 -22q-9 0 -18 23q-15 41 -38 70q-19 24 -62 43t-98 19q-124 0 -198 -87t-74 -211q0 -108 45 -182q39 -66 104.5 -102t137.5 -36q15 0 43.5 6t46.5 18q6 4 13.5 23t7.5 29q0 86 -3 104
q-4 14 -9.5 21.5t-25.5 15.5t-55 10q-26 2 -26 17q0 14 30 14q8 0 56 -2t64 -2q11 0 42 2t48 2q27 0 27 -13q0 -9 -23 -17q-14 -4 -22 -10t-9.5 -9.5t-4.5 -11.5q-5 -14 -5 -124q0 -21 14 -29q17 -9 17 -18q0 -10 -15 -14q-5 -2 -37 -10t-54 -14q-65 -18 -138 -18
q-165 0 -266 91q-103 99 -103 246q0 153 113 252q47 42 115 66t141 24z" />
    <glyph glyph-name="H" unicode="H" horiz-adv-x="816" 
d="M212 367q1 -13 3 -16.5t8 -3.5q15 0 142 1.5t230 1.5q8 0 11 26q1 7 0.5 82t-2.5 101q-2 28 -11.5 38t-43.5 19q-25 7 -25 19q0 11 31 11q5 0 46.5 -1t55.5 -1q20 0 54 1.5t37 1.5q28 0 28 -12q0 -10 -29 -17q-30 -7 -40 -20t-12 -37q-8 -82 -8 -330q0 -26 2 -85t2 -63
q1 -28 11 -37t46 -19q23 -8 23 -19t-28 -11q-6 0 -36 1.5t-47 1.5q-11 0 -59 -3t-58 -3q-25 0 -25 11q0 12 22 18q40 12 50 28t12 70q4 84 4 161q0 21 -12 21q-60 0 -160.5 0.5t-140.5 1t-71 -0.5q-3 0 -7 -5.5t-4 -11.5v-183q1 -36 12 -52t42 -26q29 -8 30 -20
q0 -4 -4.5 -6t-11 -3t-13.5 -1q-2 0 -21 1t-43 2t-40 1q-10 0 -45.5 -2t-53.5 -2q-30 0 -30 10q0 13 23 19q38 10 49 21t14 41q9 123 9 317v154q-2 27 -11 39t-39 18q-28 5 -28 19q0 11 29 11q14 0 46 -1t45 -1q23 0 54.5 1t40.5 1q32 0 32 -11q0 -13 -29 -19
q-33 -6 -42 -19t-11 -47q-2 -23 -3 -95t0 -87z" />
    <glyph glyph-name="I" unicode="I" horiz-adv-x="339" 
d="M128 326q0 170 -3 219q-1 22 -2.5 30t-7 18.5t-17 14.5t-32.5 8q-28 5 -28 18q0 12 25 12q12 0 52 -1.5t57 -1.5q26 0 58.5 1.5t48.5 1.5q25 0 25 -12t-26 -17q-21 -4 -33 -10t-18 -18t-6.5 -15l-3.5 -21q-6 -40 -6 -294q0 -101 3 -149q2 -44 14.5 -60.5t58.5 -25.5
q26 -4 26 -17t-27 -13q-28 0 -83 3t-66 3q-14 0 -35.5 -1t-40.5 -1q-26 0 -26 14q0 11 30 17q36 8 45.5 21.5t12.5 51.5q5 58 5 224z" />
    <glyph glyph-name="J" unicode="J" horiz-adv-x="330" 
d="M-73 -167q0 17 23 40q13 13 24 13q14 0 31 -12q33 -21 52 -21q23 0 40 19q24 25 28 83q6 93 6 312q0 222 -6 294q-1 13 -4.5 21.5t-17 18.5t-37.5 14q-31 5 -31 19q0 12 27 12q14 0 50.5 -1.5t60.5 -1.5q18 0 54 1.5t51 1.5q27 0 27 -10q0 -14 -30 -20q-32 -6 -44.5 -21
t-12.5 -52q0 -41 -2 -225t-2 -228q-1 -84 -33 -149.5t-75 -98.5q-63 -48 -114 -48q-25 0 -45 12.5t-20 26.5z" />
    <glyph glyph-name="K" unicode="K" horiz-adv-x="683" 
d="M43 633q0 13 27 13q11 0 46 -1.5t52 -1.5q16 0 49 1t44 1q27 0 27 -12q0 -10 -29 -17q-27 -5 -37 -16t-11 -39q-2 -27 -2.5 -116.5t1.5 -98.5q2 -7 7 -7q2 0 9 3l6 4q23 17 110.5 102t112.5 113q37 41 -11 54q-23 8 -23 15q0 13 26 13q10 0 19.5 -0.5t18.5 -0.5
q11 0 72 2.5t76 2.5q26 0 26 -12q0 -11 -27 -18q-41 -9 -67.5 -23.5t-77.5 -53.5q-37 -29 -108.5 -95t-80.5 -80q-2 -7 0 -10q16 -20 267 -278q22 -22 41.5 -33.5t29.5 -14t34 -6.5q20 -5 20 -14q0 -15 -25 -15q-13 0 -73 4t-73 4q-20 0 -40 -0.5t-30 -0.5t-15.5 6t-5.5 12
q0 8 43 17q3 1 5 4.5t0 5.5q-48 61 -216 232q-5 5 -10.5 11.5t-9 9.5t-7 7.5t-6 6.5l-5 4t-4 2.5t-3.5 0.5t-5 -21q-3 -29 2 -218q1 -20 14 -32t46 -21q23 -5 23 -18t-26 -13q-10 0 -58 1.5t-65 1.5q-16 0 -48.5 -1.5t-48.5 -1.5q-9 0 -16.5 4t-7.5 9q0 10 29 17q39 8 54 24
t17 59q3 102 3 236q0 142 -4 214q-1 26 -12.5 37t-42.5 19q-26 7 -26 17z" />
    <glyph glyph-name="L" unicode="L" horiz-adv-x="562" 
d="M46 633q0 12 30 12q13 0 36 -1t38 -1q21 0 71 1.5t60 1.5q25 0 25 -11t-23 -17q-40 -9 -52.5 -17.5t-14.5 -21.5q-6 -45 -6 -294q0 -149 7 -207q1 -10 14 -23.5t20 -14.5q33 -5 96 -5q49 0 71 3t40 19q32 32 57 67q13 22 25 22q11 0 4 -27q-23 -71 -31 -108
q-1 -7 -10 -12t-14 -5q-2 0 -16 0.5t-39 1.5t-58.5 2t-84.5 1.5t-108 0.5q-41 0 -85 -2l-44 -3q-29 0 -29 11q0 14 24 18q40 8 55 23t19 46q5 63 5 329q0 109 -1 142q-1 20 -11 32t-42 18q-28 6 -28 19z" />
    <glyph glyph-name="M" unicode="M" horiz-adv-x="889" 
d="M47 635q0 7 5.5 8.5t23.5 1.5q33 0 69.5 -1t64.5 -1q2 0 6 -5t5 -8q10 -31 38 -91q166 -350 186 -377q6 -9 10 -3q196 371 212 412q0 1 4.5 11.5t10 24t8.5 22.5q1 4 5 9t6 5q21 0 73 1.5t53 1.5q26 0 26 -11q0 -12 -26 -16q-24 -4 -45 -13q-31 -12 -31 -77
q0 -302 14 -433q4 -33 16.5 -45.5t48.5 -23.5q27 -6 27 -19t-29 -13q-2 0 -52.5 2.5t-72.5 2.5q-9 0 -36 -1.5t-40 -1.5q-27 0 -27 14q0 11 26 18q20 6 29.5 17t12 21.5t4.5 33.5q3 37 2 190.5t-3 195.5q-1 5 -3 7t-5 -1q-10 -18 -73 -142t-91 -182q-42 -91 -62 -143
q-5 -14 -9.5 -20.5t-6.5 -7t-7 -0.5q-10 0 -15 19q-12 43 -37 106q-31 76 -96 212t-77 163q-6 13 -7 -3q-6 -32 -12 -175t-4 -211q2 -39 12.5 -54t48.5 -27q27 -7 27 -19t-27 -12q-17 0 -52.5 1.5t-47.5 1.5t-39.5 -1.5t-40.5 -1.5q-26 0 -26 14q0 9 20 14q44 13 57 29.5
t19 62.5q7 50 19.5 212t14.5 220q0 45 -45 58q-33 10 -43 12q-16 5 -16 16z" />
    <glyph glyph-name="N" unicode="N" horiz-adv-x="771" 
d="M15 634q0 12 33 12q7 0 50 -1.5t72 -1.5q8 0 21 -13q40 -48 79 -99q47 -59 332 -370q4 -4 7 -0.5t3 7.5q2 13 2 284q0 48 -5 100q-1 20 -13.5 35t-49.5 26q-27 8 -27 22q0 9 26 9q12 0 40.5 -0.5t45.5 -0.5q19 0 50.5 2t43.5 2q23 0 23 -11q0 -13 -24 -20
q-35 -8 -48.5 -21.5t-15.5 -51.5q-11 -198 -11 -405q0 -24 3.5 -76t3.5 -57q0 -21 -14 -21q-10 0 -23.5 10.5t-21.5 21.5q-7 8 -27 35t-35 45q-45 54 -177.5 206.5t-179.5 208.5q-3 4 -7 3t-4 -5q0 -7 -1.5 -26.5t-2.5 -45.5t-1 -61q0 -34 -0.5 -104.5t-1 -105.5t0.5 -65
q3 -35 15 -50t48 -25q25 -6 25 -18q0 -13 -32 -13q-14 0 -51 2.5t-56 2.5q-12 0 -34.5 -1t-30.5 -1q-26 0 -26 11t20 17q29 10 39.5 15.5t19.5 24t11 54.5q19 308 19 404q0 38 -7 48q-18 22 -31.5 29t-43.5 15q-6 1 -9 2q-22 6 -22 16z" />
    <glyph glyph-name="O" unicode="O" horiz-adv-x="781" 
d="M385 661q145 0 246 -95t101 -236q0 -98 -40.5 -172t-101.5 -118q-83 -58 -197 -58q-76 0 -145 30.5t-115 83.5q-83 92 -83 226q0 165 130 269q37 30 95 50t110 20zM363 628q-33 0 -73 -16t-65 -41q-78 -76 -78 -235q0 -119 78 -219.5t192 -100.5q88 0 132 48
q35 31 60 92.5t25 143.5q0 81 -32.5 155t-88.5 119q-30 24 -72.5 39t-77.5 15z" />
    <glyph glyph-name="P" unicode="P" horiz-adv-x="545" 
d="M417 452q0 69 -47 119.5t-116 50.5q-15 0 -29 -9q-9 -6 -10 -39q0 -9 -0.5 -47t-1 -103.5t-0.5 -109.5q0 -54 1 -125t1 -75q1 -48 11 -62.5t49 -25.5q27 -7 27 -19t-33 -12q-10 0 -45.5 2t-59.5 2q-14 0 -49.5 -2t-51.5 -2q-28 0 -28 14q0 10 20 16q40 9 54 25t16 49
q5 80 5 181q0 181 -3 277q0 17 -1 23.5t-6 15.5t-16.5 12.5t-32.5 6.5q-31 5 -31 15q0 12 23 14h9h13.5h10.5q19 0 80 4t87 4q125 0 187 -59q58 -56 58 -136q0 -95 -70 -155q-52 -44 -115 -44q-34 0 -53 7q-17 7 -17 16t12 9h25q47 0 87 41.5t40 120.5z" />
    <glyph glyph-name="Q" unicode="Q" horiz-adv-x="780" 
d="M396 661q137 0 236 -96t99 -235q0 -152 -105 -250q-26 -24 -67.5 -49t-75.5 -36q-8 -3 -2 -10q29 -37 124 -97q102 -64 175 -64q16 0 69 10q13 2 13 -7q0 -11 -15 -22q-43 -34 -105 -34q-105 0 -220 75q-47 28 -144 103q-53 41 -113 60q-96 31 -155.5 117.5t-59.5 191.5
q0 91 37.5 162t98.5 115q93 66 210 66zM361 626q-64 0 -113 -39q-101 -80 -101 -260q0 -118 77 -212q30 -39 87 -68t92 -29q73 0 125 34q48 34 77.5 104.5t29.5 138.5q0 78 -27.5 147t-77.5 115q-31 31 -78.5 50t-90.5 19z" />
    <glyph glyph-name="R" unicode="R" horiz-adv-x="631" 
d="M506 481q0 -41 -22 -79.5t-59 -60.5q-1 -1 -14 -7.5t-17 -9.5q-2 -2 -3.5 -7t-0.5 -8q10 -23 62 -102t93 -125q40 -47 98 -59q6 -1 11 -6t5 -8q0 -6 -14 -13q-17 -7 -55 -7q-35 0 -73 18.5t-60 46.5q-51 70 -126 188q-28 42 -40 50q-3 3 -26.5 8t-44.5 5q-5 0 -8.5 -4.5
t-3.5 -7.5q-3 -58 4 -202q2 -32 13.5 -45.5t46.5 -21.5q24 -7 24 -17q0 -13 -24 -13q-18 0 -55 3t-74 3q-10 0 -43 -2t-38 -2q-26 0 -26 14q0 7 22 15q26 8 36.5 13t19 15.5t9.5 29.5q6 93 6 197q0 226 -6 284q-3 26 -12.5 33.5t-45.5 16.5q-24 6 -24 17q0 12 27 12h56
q16 0 74.5 2.5t87.5 2.5q112 0 163 -42q25 -21 41 -55t16 -70zM417 479q0 20 -12.5 50t-32.5 50q-18 17 -46 27.5t-53 10.5q-33 0 -48 -7q-3 -1 -7.5 -9.5t-4.5 -11.5q-2 -27 -3.5 -129t0.5 -116q4 -15 16 -15q39 0 75.5 9t49.5 17q25 16 45.5 48.5t20.5 75.5z" />
    <glyph glyph-name="S" unicode="S" horiz-adv-x="473" 
d="M274 661q22 0 46 -3.5t47.5 -9t25.5 -5.5q4 -1 8 -9t4 -10q1 -8 3.5 -27.5t4.5 -35.5t2 -18q0 -27 -7 -27q-18 0 -24 21q-8 24 -23.5 45t-25.5 27q-30 23 -71 23q-50 0 -82.5 -33.5t-32.5 -83.5q0 -21 7.5 -39.5t14.5 -30t31.5 -31t35.5 -27t50 -33.5q68 -46 103 -89
t35 -105q0 -39 -21.5 -77.5t-60.5 -63.5q-24 -16 -63 -26t-73 -10q-26 0 -67.5 7.5t-63.5 18.5q-7 4 -15 16t-8 16q-2 13 -6 34.5t-6.5 37t-2.5 22.5q0 3 5.5 11t8.5 8q11 0 37 -57q18 -38 57.5 -59t72.5 -21q52 0 86.5 34t34.5 87q0 36 -26 72t-99 82q-71 46 -108 92
t-37 106q0 73 55 122q54 49 148 49z" />
    <glyph glyph-name="T" unicode="T" horiz-adv-x="667" 
d="M341 642q147 0 229 2q46 3 68 18q10 6 14 6q3 0 4.5 -3t1.5 -8t-2 -12q-14 -43 -22 -114q-1 -7 -6 -13t-11 -6q-10 0 -14 32q-4 38 -18.5 48t-62.5 12q-12 1 -72 0.5t-68 -2.5q-3 -1 -6 -6t-3 -7v-245q0 -211 4 -248q4 -36 15.5 -48.5t56.5 -22.5q27 -6 27 -18t-28 -12
q-2 0 -22 1.5t-46.5 2.5t-45.5 1q-30 0 -71 -3.5t-43 -3.5q-30 0 -30 12q0 5 6 10t13 7q50 11 61.5 29.5t13.5 78.5q7 206 7 340v119q0 13 -8 13q-33 5 -124 5q-54 0 -74 -23q-10 -8 -33 -52q-4 -10 -8 -14.5t-6 -5t-5 -0.5q-10 0 -10 23q0 5 9.5 51t9.5 81q0 5 5 10.5
t10 5.5q2 0 3.5 -2l4.5 -6t8 -8q18 -18 34 -19q52 -6 234 -6z" />
    <glyph glyph-name="U" unicode="U" horiz-adv-x="762" 
d="M37 634q0 12 29 12q22 0 53.5 -1.5t49.5 -1.5q20 0 54 1t43 1q31 0 31 -11q0 -13 -30 -19q-29 -6 -43 -17.5t-18 -39.5q-4 -26 -4 -279q0 -77 14.5 -118.5t41.5 -72.5q21 -23 63.5 -39t81.5 -16q60 0 115 33t72 107q22 97 22 251q0 81 -4 129q-2 30 -14 43t-52 22
q-8 2 -14.5 7.5t-6.5 10.5q0 10 23 10q12 0 40 -1.5t45 -1.5q22 0 50 1t40 1q25 0 25 -11q0 -10 -22 -18q-34 -10 -49 -28.5t-16 -63.5q-1 -24 -4.5 -106t-4.5 -100q-7 -236 -125 -302q-57 -32 -144 -32q-60 0 -109 19t-72 40q-43 41 -61.5 106t-18.5 188q0 185 -4 237
q-3 32 -54 43q-23 6 -23 17z" />
    <glyph glyph-name="V" unicode="V" horiz-adv-x="656" 
d="M-1 635q0 13 30 13q6 0 41.5 -2.5t63.5 -2.5q19 0 54 1t45 1q24 0 24 -12q0 -14 -24 -18q-25 -5 -37 -13.5t-11.5 -17t1.5 -17.5q13 -39 73.5 -196t87.5 -222q7 -7 10 -1q3 9 33.5 80.5t70.5 167t58 138.5q9 20 9.5 34t-8 23t-18.5 13.5t-29 10.5q-22 6 -22 18t29 12
q10 0 36 -1t44 -1q16 0 48 2t42 2q29 0 29 -13q0 -11 -26 -17q-32 -8 -51.5 -26.5t-35.5 -52.5q-12 -27 -38 -80.5t-46 -99.5t-48 -114q-79 -191 -94 -242q-8 -23 -21 -23q-5 0 -10 5.5t-6 13.5q-14 67 -52 163q-85 227 -144 369q-15 39 -34 59t-51 29q-23 8 -23 17z" />
    <glyph glyph-name="W" unicode="W" horiz-adv-x="987" 
d="M-2 635q0 11 26 11q22 0 54.5 -1.5t52.5 -1.5q13 0 47 1.5t37 1.5q25 0 25 -12q0 -11 -27 -19q-41 -11 -31 -40q96 -236 196 -450q1 -2 3.5 -2.5t4.5 1.5q26 42 86 177q3 7 -1 14q-53 126 -96 220q-22 46 -33.5 59t-40.5 21q-25 7 -25 18t29 11q4 0 34 -0.5t48 -0.5
q27 0 61 1l34 2q25 0 25 -11q0 -15 -24 -19q-31 -6 -36.5 -15t5.5 -33q13 -33 72 -164q2 -6 8 0q31 62 63 137q16 42 9 55.5t-40 21.5q-8 2 -14.5 7t-6.5 8q0 12 29 12q7 0 29.5 -1t40.5 -1q17 0 46 1t36 1q22 0 22 -10q0 -12 -28 -19q-27 -7 -42 -20.5t-36 -51.5
q-33 -56 -95 -178q-3 -10 3 -17q65 -154 100 -218q4 -12 11 0q58 124 183 408q15 34 8.5 51t-40.5 27q-23 7 -23 16q0 12 26 12q12 0 35.5 -1t32.5 -1q15 0 47 1.5t48 1.5q26 0 26 -11q0 -12 -25 -18q-30 -6 -48 -21.5t-38 -54.5q-1 -1 -18 -34.5l-34 -67t-43 -88.5
t-49 -106q-72 -165 -101 -236q-3 -8 -11.5 -15.5t-14.5 -7.5q-9 0 -15 19q-7 25 -24 66.5t-45 103t-38 85.5q-5 7 -8 2q-97 -203 -116 -259q-3 -8 -10.5 -15.5t-12.5 -7.5q-10 0 -18 19q-29 81 -62 159q-109 266 -167 378q-4 7 -11 21.5t-10 19t-9.5 13.5t-12 12.5t-15 7.5
t-22.5 7q-26 4 -26 18z" />
    <glyph glyph-name="X" unicode="X" horiz-adv-x="694" 
d="M23 636q0 12 29 12q8 0 55 -2.5t66 -2.5q21 0 47 1t39 1q24 0 24 -11t-23 -17q-35 -10 -19 -38q24 -42 69 -113t57 -83q2 -2 5.5 -3t4.5 1q26 29 74.5 95t61.5 90q11 22 1 32t-40 17q-25 5 -25 17q0 13 29 13q15 0 45.5 -1t43.5 -1q12 0 53 1.5t52 1.5q9 0 16.5 -3.5
t6.5 -7.5q0 -12 -22 -18q-40 -8 -67.5 -24t-55.5 -50q-116 -136 -155 -190q-2 -5 0 -12q4 -11 65 -102t85 -125q25 -32 35.5 -44t31 -24.5t53.5 -20.5q24 -6 24 -19q0 -12 -30 -12q-15 0 -60.5 3t-79.5 3q-16 0 -47.5 -2t-35.5 -2q-25 0 -25 13q0 11 22 17q31 8 38 13
q11 8 4 18q-20 36 -73.5 119t-62.5 91q-7 7 -10 3q-63 -77 -110 -146q-23 -35 -27 -54t4 -26.5t31 -15.5q24 -8 24 -18q0 -13 -25 -13q-12 0 -49 1.5t-54 1.5q-23 0 -59 -2.5t-45 -2.5q-26 0 -26 11q0 16 38 23q33 6 65 25.5t52 41.5q80 88 159 197q6 9 3 14
q-6 16 -65 107.5t-96 142.5q-34 47 -99 61q-27 6 -27 18z" />
    <glyph glyph-name="Y" unicode="Y" horiz-adv-x="622" 
d="M3 637q0 11 27 11q4 0 45 -2.5t69 -2.5q12 0 33 1t43 1t22 -11q0 -13 -22 -19q-25 -6 -26.5 -16.5t11.5 -29.5q22 -42 131 -219q1 -2 5 -1.5t5 3.5q26 38 129 206q15 27 8 38.5t-37 18.5q-21 6 -21 20q0 9 23 9q13 0 33.5 -0.5t31.5 -0.5q21 0 63.5 2t47.5 2q21 0 21 -10
t-26 -18q-58 -15 -109 -78q-28 -35 -78.5 -113t-54.5 -83q-25 -36 -25 -61q0 -164 6 -212q3 -17 17 -27t54 -20q27 -7 27 -18t-30 -11q-6 0 -40 2t-47 2q-36 0 -87 -3t-53 -3q-25 0 -25 11q0 13 28 18q63 14 65 48q3 41 3 207q0 12 -9 36q-28 60 -127 210q-36 54 -53.5 70.5
t-49.5 23.5q-28 6 -28 19z" />
    <glyph glyph-name="Z" unicode="Z" horiz-adv-x="620" 
d="M313 641q183 0 220 5q17 3 17 -5q0 -11 -12 -25q-7 -7 -88 -122q-45 -67 -107.5 -164t-116 -181t-57.5 -89q-5 -7 4 -13q18 -11 149 -11q109 0 127 3q38 5 59 20t65 76q2 3 6 8.5t6 7.5t4.5 5t4.5 4t5 1q9 0 9 -22q0 -17 -50 -127q-9 -17 -58 -17q-44 0 -190.5 2
t-165.5 2h-95q-6 0 -11.5 4t-5.5 10q0 4 5 11.5t18 24.5t20 27q27 36 173 257t164 254q3 5 1.5 9t-5.5 5q-49 5 -181 5q-50 0 -73 -5q-56 -13 -90 -76q-11 -22 -22 -22q-3 0 -6 3.5t-3.5 11t3.5 19.5q1 2 9 23.5t17.5 48.5t13.5 46q2 13 13 13q9 0 16 -9q12 -12 50 -15
q81 -3 158 -3z" />
    <glyph glyph-name="bracketleft" unicode="[" horiz-adv-x="342" 
d="M140 719h129q24 0 24 -14q0 -6 -8 -11.5t-17 -6.5q-7 0 -46.5 -3.5t-44.5 -3.5q-6 0 -10.5 -8t-5.5 -17q-4 -75 -4 -337q0 -33 7 -416q1 -48 18 -50q69 -8 95 -8q7 0 16.5 -5t9.5 -12q0 -14 -29 -14q-4 0 -37 -1t-49 -1q-17 0 -39 -0.5t-23 -0.5q-10 0 -13 7t-3 28v608
v127t-0.5 81t-0.5 27q0 23 7 28q3 3 24 3z" />
    <glyph glyph-name="backslash" unicode="\" horiz-adv-x="363" 
d="M327 -50q1 -3 -1.5 -8t-7.5 -6q-12 -3 -18 -3q-12 -2 -16 12q-168 467 -246 695q-3 11 6 14q17 5 27 5q7 0 13 -12q111 -323 243 -697z" />
    <glyph glyph-name="bracketright" unicode="]" horiz-adv-x="342" 
d="M203 -189q-35 0 -75.5 -0.5t-43.5 -0.5q-14 0 -24 5t-10 10q0 6 9 12t24 7q6 1 39 3.5t43 3.5q14 2 15 21q4 76 4 341q0 27 -7 414q0 50 -17 51q-20 2 -50.5 5.5t-38.5 4.5q-29 4 -29 16q0 7 9.5 11.5t22.5 4.5q1 0 32 -0.5t48 -0.5t40.5 0.5t24.5 0.5q14 0 14 -35v-609
q0 -71 0.5 -128t0.5 -85.5v-29.5q0 -14 -5 -19q-3 -3 -26 -3z" />
    <glyph glyph-name="asciicircum" unicode="^" horiz-adv-x="469" 
d="M236 642q6 0 16 -12.5t17 -25.5l149 -291q8 -15 1 -22q-10 -10 -24 -15.5t-20 2.5l-134 275q-7 10 -11 1l-138 -279q-3 -2 -8.5 -2.5t-15.5 4.5t-18 13q-6 7 0 20l150 291q20 41 36 41z" />
    <glyph glyph-name="underscore" unicode="_" horiz-adv-x="495" 
d="M0 -124h495v-49h-495v49z" />
    <glyph glyph-name="grave" unicode="`" 
d="M136 652q11 0 26 -35q40 -83 61 -146q8 -25 -4 -25t-23 16q-50 65 -93 140q-9 15 -9 27q0 11 16 17q12 6 26 6z" />
    <glyph glyph-name="a" unicode="a" horiz-adv-x="397" 
d="M208 404q58 0 90 -47q20 -28 20 -83q0 -23 -2 -98.5t-2 -77.5q0 -21 9 -33t16.5 -14.5t14.5 -2.5q17 0 38 15q3 2 6 -3q3 -3 3 -10q0 -16 -29.5 -39t-60.5 -23q-48 0 -64 50q0 1 -2.5 3t-3.5 1q-47 -33 -90 -46q-17 -6 -40 -6q-27 0 -48 28t-21 65q0 27 19 51q8 10 40 25
q9 3 59.5 18t57.5 17q29 9 29 18q2 18 2 82q0 22 -22 44.5t-56 22.5q-26 0 -41 -11q-11 -5 -7 -41q0 -5 -6 -11q-7 -6 -34 -19.5t-31 -13.5t-8 4.5t-4 8.5q0 39 75 88q21 15 49.5 26.5t43.5 11.5zM178 42q22 0 54 17q4 3 8 12.5t4 12.5q2 24 2 78q0 8 -8 8q-41 0 -103 -30
q-20 -14 -20 -38q0 -29 21 -44.5t42 -15.5z" />
    <glyph glyph-name="b" unicode="b" horiz-adv-x="486" 
d="M454 209q0 -109 -87 -176q-54 -45 -136 -45q-25 0 -67 7t-60 13q-8 4 -21 -3q-6 -3 -12 -3t-6 13q6 94 6 332q0 222 -5 257q-3 16 -25 34q-20 15 -20 19q0 1 5 7t7 7q75 27 82 31q19 12 25 12q3 0 7 -5t4 -8q-9 -198 -9 -241q0 -75 2 -86q0 -1 2.5 -3t3.5 -1
q51 34 114 34q74 0 124 -44q66 -56 66 -151zM371 188q0 30 -12.5 66.5t-36.5 62.5q-43 43 -109 43q-40 0 -60 -15q-6 -4 -8 -15q-2 -18 -2 -58q0 -74 8 -160q1 -31 20 -50q19 -20 47.5 -31t45.5 -11q24 0 61 34q20 19 33 59t13 75z" />
    <glyph glyph-name="c" unicode="c" horiz-adv-x="392" 
d="M260 401q64 0 93 -23q15 -10 15 -30q0 -11 -14.5 -25.5t-18.5 -14.5q-11 0 -39 19q-3 2 -10.5 7.5t-9.5 7t-8.5 6t-9 6t-8 4t-9 3.5t-8.5 2.5t-10 2t-11 0.5q-13 0 -32 -10t-30 -24q-42 -47 -42 -115q0 -61 26 -100q19 -31 53 -49t73 -18q46 0 89 30q5 4 9.5 4.5t7 -0.5
t2.5 -4q0 -16 -13 -29q-26 -29 -65 -45.5t-79 -16.5q-46 0 -84.5 21.5t-63.5 58.5q-31 51 -31 117q0 108 97 173q27 19 67 30.5t64 11.5z" />
    <glyph glyph-name="d" unicode="d" horiz-adv-x="499" 
d="M270 404q40 0 64 -4q3 -1 5 2.5t3 8.5q3 23 2.5 103t-3.5 101q-4 18 -47 41q-10 6 -10 9t6.5 9.5t10.5 7.5q44 6 102 28q9 3 13 3q3 0 6 -5t2 -11q-9 -95 -9 -395q0 -171 3 -228q1 -41 15 -41q6 0 28.5 4t25.5 4q6 0 6 -6q0 -5 -6.5 -14.5t-10.5 -10.5q-62 -10 -90 -20
q-29 -10 -36 -10q-3 0 -7 4.5t-4 8.5t1 18.5t1 22.5q0 6 -6 6q-56 -50 -130 -50q-73 0 -125 55q-48 54 -48 137q0 121 106 184q62 38 132 38zM233 371q-43 0 -78 -35q-16 -16 -29 -51.5t-13 -74.5q0 -64 40.5 -118t101.5 -54q40 0 73 24q1 1 4.5 10.5t7.5 25.5t4 30
q1 96 -3 166q-2 18 -22 38q-39 39 -86 39z" />
    <glyph glyph-name="e" unicode="e" horiz-adv-x="392" 
d="M229 403q61 0 99 -38q35 -33 35 -84q0 -5 -5.5 -11t-13.5 -6q-182 0 -228 1q-5 0 -8 -8q-5 -13 -5 -35q0 -64 38 -114q17 -24 47.5 -39.5t64.5 -15.5q67 0 91 36q8 12 13 12q8 0 8 -12t-7 -24q-51 -75 -145 -75q-81 0 -130.5 55.5t-49.5 143.5q0 62 31.5 116t88.5 80
q39 18 76 18zM219 377q-34 0 -60.5 -19.5t-40.5 -54.5q-1 -3 0.5 -7t3.5 -4q44 -2 129 0q19 0 26.5 5t7.5 20q0 22 -20 41t-46 19z" />
    <glyph glyph-name="f" unicode="f" horiz-adv-x="294" 
d="M174 390h55.5h45.5l17 1q5 0 9.5 -13t4.5 -29q0 -2 -5.5 -6t-9.5 -4q-3 0 -57 1.5t-60 1.5q-1 0 -4 -3t-3 -5q-1 -14 0 -128.5t3 -127.5q3 -27 14.5 -36.5t52.5 -16.5q23 -4 23 -15q0 -12 -26 -12q-4 0 -36.5 1t-46.5 1q-21 0 -59.5 -2.5t-40.5 -2.5q-25 0 -25 11
q0 8 21 16q31 9 37.5 20t7.5 47q2 82 2 215q0 37 -10 37q-31 0 -42 -2q-4 0 -7.5 6t-1.5 11q0 2 7 6t19.5 11.5t22.5 15.5q13 11 13 17q3 97 25 149q32 76 90 118q55 41 114 41q41 0 64 -19q17 -14 17 -34q0 -11 -8.5 -24.5t-18.5 -17.5q-7 -3 -18 -3q-7 0 -27 20
q-35 31 -70 31q-37 0 -62 -41q-18 -32 -25.5 -81t-7.5 -146q0 -9 6 -9z" />
    <glyph glyph-name="g" unicode="g" horiz-adv-x="416" 
d="M205 408q37 0 87 -12q5 -1 14.5 -3t13.5 -3q2 0 52.5 -2.5t63.5 -5.5q9 -2 9 -11q0 -10 -7 -21t-11 -11q-42 0 -67 2q-3 0 -5 -3t-1 -5q8 -24 8 -50q0 -83 -56 -126q-49 -38 -109 -38q-3 0 -17 0.5t-18 0.5q-10 2 -15 -1q-8 -4 -20 -16t-12 -18q0 -17 15 -30.5t26 -14.5
q13 -1 56.5 -2t78.5 -2.5t49 -3.5q20 -3 48 -24q42 -36 42 -88q0 -93 -94 -154q-66 -43 -144 -43q-75 0 -125 37q-21 16 -33.5 40.5t-12.5 46.5q0 20 6.5 35t10 18t12.5 10q14 12 39 31t30 23q3 3 -3 7l-16 7q-15 7 -23 13q-34 24 -34 74q0 4 5 9q5 4 35 23.5t39 28.5
q2 2 -4 9q-76 43 -76 127q0 69 61 114q43 32 102 32zM197 384q-13 0 -28 -8t-22 -17q-26 -28 -26 -89q0 -43 27 -84t72 -41q11 0 33 14q18 11 28 42t10 64q0 42 -22 75q-30 44 -72 44zM229 -235q46 0 79 18q55 36 55 93q0 33 -14 52q-18 24 -53 31q-27 5 -101 5
q-39 0 -54 -10q-22 -15 -33.5 -38.5t-11.5 -43.5q0 -46 35 -76q40 -31 98 -31z" />
    <glyph glyph-name="h" unicode="h" horiz-adv-x="513" 
d="M290 404q73 0 106 -46q29 -39 29 -108q1 -33 2.5 -94.5t1.5 -90.5q0 -18 9 -26t30 -13q28 -6 28 -16q0 -13 -27 -13q-17 0 -39.5 1.5t-39.5 1.5q-11 0 -34 -1t-38 -1q-20 0 -20 12q0 9 21 14q19 6 24 13.5t8 35.5q1 8 1 39.5t-0.5 67.5t-0.5 38q0 81 -16 100
q-28 33 -81 33q-19 0 -38.5 -5t-29 -10t-12.5 -8q-15 -15 -16 -49q-2 -29 -2.5 -106.5t0.5 -101.5q1 -23 10 -31.5t29 -13.5q22 -6 22 -16q0 -12 -25 -12q-2 0 -35 1t-47 1q-12 0 -40 -1.5t-36 -1.5q-23 0 -23 13q0 9 29 17q20 7 28.5 18.5t10.5 38.5q10 140 10 414
q0 80 -3 102q-2 19 -7 25.5t-26 20.5q-10 5 -10 20l3 5q84 24 100 35q14 7 19 7q6 0 6 -11q-6 -46 -10 -172.5t-4 -177.5q0 -3 1.5 -4.5t3 -1.5h2.5q64 58 126 58z" />
    <glyph glyph-name="i" unicode="i" horiz-adv-x="253" 
d="M45 357q0 13 20 17q22 5 59 19t40 15q3 0 6 -5t3 -6q0 -3 -1.5 -41t-3 -85t-1.5 -72q0 -63 2 -133q0 -8 2.5 -14t4.5 -9.5t8.5 -7t8.5 -4.5t12 -3.5t12 -3.5q22 -7 22 -17t-23 -10q-2 0 -34 1.5t-44 1.5q-18 0 -48 -2t-37 -2q-26 0 -26 11q0 9 24 16q36 9 40 28t4 103
q0 150 -1 156q-1 7 -41 36q-8 5 -8 11zM136 607q19 0 31.5 -16.5t12.5 -32.5q0 -19 -16 -34t-32 -15q-18 0 -32 12q-15 17 -15 37t12 36q14 13 39 13z" />
    <glyph glyph-name="j" unicode="j" horiz-adv-x="235" 
d="M33 354q0 9 17 15q71 21 94 33q9 5 17 5q1 0 4 -4.5t3 -6.5q-1 -32 -3 -192t-2 -170q-3 -116 -44 -185q-36 -62 -94 -103q-24 -18 -34 -18q-16 0 -22 5q-4 6 1 11q48 30 64 50q54 68 54 250q0 236 -4 265q-2 14 -41 35q-10 5 -10 10zM119 615q27 0 40 -17.5t13 -32.5
q0 -24 -16 -37t-33 -13q-14 0 -30.5 15t-17.5 34q0 24 19 41q10 10 25 10z" />
    <glyph glyph-name="k" unicode="k" horiz-adv-x="479" 
d="M262 390h47q37 0 79.5 6t55.5 6q7 0 7 -7q0 -8 -7.5 -14.5t-12.5 -7.5q-39 -9 -59.5 -18.5t-56.5 -34.5q-20 -15 -48.5 -42.5t-32.5 -33.5q-3 -6 -1 -10q24 -29 79.5 -90t81.5 -87q29 -27 68 -36q24 -6 24 -16q0 -12 -25 -12q-8 0 -51.5 3t-73.5 3h-45q-25 0 -25 13
q0 9 22 14q29 7 13 28q-4 6 -21.5 25t-44 48t-47.5 54q-19 23 -25 23q-5 0 -5 -8q-4 -9 -3.5 -63t4.5 -76q2 -15 9.5 -21.5t27.5 -11.5q22 -6 22 -15q0 -11 -24 -11q-12 0 -41 1t-42 1q-19 0 -47 -2t-37 -2q-23 0 -23 11q0 8 23 15q29 7 38.5 15.5t13.5 28.5q7 33 7 343
q0 159 -6 211q0 8 -30 26q-13 10 -13 14q0 8 13 13q1 0 14 3.5t23.5 7t25.5 9t24 11.5q15 9 20 9q2 0 5 -5t2 -8q-9 -43 -9 -368q0 -92 3 -101t8 -9t20 13q89 84 106 108q1 3 2 6.5t-9 8t-31 7.5q-9 1 -9 7q0 4 6 11t11 7z" />
    <glyph glyph-name="l" unicode="l" horiz-adv-x="244" 
d="M41 660q0 10 14 14q13 5 31 10.5t28 9t22 8.5t22 11q2 1 5.5 -3t3.5 -7q-9 -75 -9 -272q0 -348 3 -364q3 -17 12 -26.5t39 -17.5q23 -6 23 -15q0 -11 -26 -11q-13 0 -45 1.5t-40 1.5q-12 0 -45 -1.5t-43 -1.5q-28 0 -28 11q0 10 22 14q32 7 40.5 21.5t10.5 56.5
q7 133 7 304q0 42 -1.5 121t-1.5 88q0 13 -24 28q-20 14 -20 19z" />
    <glyph glyph-name="m" unicode="m" horiz-adv-x="762" 
d="M52 351q0 7 20 18q14 6 40.5 20.5t35.5 20.5q5 4 8 4q3 -1 7.5 -4.5t4.5 -5.5q0 -8 -2 -28t-2 -25q0 -2 1.5 -5t4.5 -1q24 20 63 39.5t71 19.5q50 0 78 -20q18 -14 34 -38q2 -4 8 -4q1 0 34 20t39 22q31 15 60 15q52 0 86 -34q30 -34 33 -96q2 -26 2 -200q2 -36 43 -47
q19 -6 19 -14q0 -11 -28 -11q-9 0 -34 1.5t-38 1.5q-16 0 -36.5 -1t-31.5 -1q-25 0 -25 13q0 7 22 13q23 7 29.5 18t6.5 39q0 11 -1 79t-1 86q0 41 -16 66q-22 36 -76 36q-44 0 -77 -28q-2 -2 -6 -13t-4 -16v-23t-0.5 -50.5t-0.5 -59v-54.5t1 -30q2 -25 9.5 -34.5
t32.5 -15.5q21 -6 21 -14q0 -12 -24 -12q-11 0 -37 1t-38 1q-10 0 -35 -1t-36 -1q-26 0 -26 12q0 9 20 14q25 6 31.5 16t6.5 38v197q0 34 -13 51q-23 30 -75 30q-43 0 -80 -28q-10 -8 -11 -26q-2 -25 -2 -231q0 -34 36 -45q27 -9 27 -18q0 -10 -27 -10q-1 0 -13 0.5t-30.5 1
t-35.5 0.5q-18 0 -41.5 -1.5t-33.5 -1.5q-25 0 -25 11q0 10 24 15q23 6 31 19t11 47q3 44 3 199q0 20 -7 27q-35 33 -35 36z" />
    <glyph glyph-name="n" unicode="n" horiz-adv-x="521" 
d="M53 356q0 12 18 20q52 18 67 29q18 11 24 11q3 0 6.5 -5.5t3.5 -9.5q0 -9 -2 -28t-2 -22t6 -3q81 55 134 55q58 0 91 -38q35 -41 35 -122q0 -140 3 -182q3 -26 37 -35q25 -7 25 -17q0 -11 -30 -11q-11 0 -35 1t-39 1q-14 0 -39 -1t-30 -1q-23 0 -23 12q0 9 23 17
q18 7 24 16t7 34q3 49 3 183q0 25 -9.5 45.5t-20.5 28.5q-26 19 -64 19q-53 0 -89 -32q-10 -10 -10 -24q0 -228 1 -240t8 -18.5t29 -12.5q18 -5 18 -15q0 -12 -25 -12q-5 0 -27 0.5t-34 0.5q-21 0 -49 -1.5t-34 -1.5q-26 0 -26 13q0 9 21 15q24 7 32 18t10 38q5 50 5 219
q0 19 -24 39q-19 13 -19 17z" />
    <glyph glyph-name="o" unicode="o" horiz-adv-x="482" 
d="M250 404q79 0 139.5 -57t60.5 -147q0 -57 -27 -104t-60 -68q-55 -40 -124 -40q-71 0 -133 52q-32 26 -53 70.5t-21 82.5q0 97 70 156q63 55 148 55zM231 374q-31 0 -65 -29q-20 -19 -34.5 -54.5t-14.5 -73.5q0 -51 12 -89q18 -53 54.5 -82t75.5 -29q28 0 61 33
q18 20 31.5 59.5t13.5 72.5q0 95 -50 153q-36 39 -84 39z" />
    <glyph glyph-name="p" unicode="p" horiz-adv-x="496" 
d="M306 402q27 0 57.5 -15.5t53.5 -40.5q47 -53 47 -131q0 -44 -20.5 -91.5t-64.5 -80.5q-65 -51 -159 -51q-30 0 -56 4q-7 0 -7 -13q0 -129 4 -166q2 -21 11.5 -31t36.5 -19q28 -8 28 -18q0 -13 -26 -13q-9 0 -53 2.5t-66 2.5q-11 0 -29.5 -1.5t-34.5 -1.5q-30 0 -30 13
q0 11 23 15q39 8 49 23t13 69q3 49 3 217v66v76.5v59.5q0 46 -8 51q-37 27 -37 32q0 4 5.5 10.5t8.5 7.5q30 8 76 35q18 9 20 9t6.5 -4.5t4.5 -7.5q-1 -10 -2 -29.5t-1 -21.5q0 -3 2.5 -5t5.5 0q34 23 65 36q27 12 74 12zM254 351q-59 0 -81 -18q-9 -7 -13 -30
q-4 -22 -4.5 -85.5t2.5 -94.5q4 -32 13 -44q19 -26 48.5 -40.5t51.5 -14.5q26 0 46 17q33 28 50.5 73t17.5 74q0 77 -41 122q-18 19 -44.5 30t-45.5 11z" />
    <glyph glyph-name="q" unicode="q" horiz-adv-x="489" 
d="M252 404q53 0 86 -10q33 -11 38 -11q7 0 24 16q15 13 24 13q2 0 4 -2.5t2.5 -6.5t-1.5 -11q-11 -37 -11 -353q0 -150 3 -215q1 -28 9.5 -37.5t42.5 -15.5q7 -1 14.5 -5.5t7.5 -9.5q0 -13 -25 -13q-45 0 -110.5 -6t-81.5 -6q-25 0 -25 12t25 16q22 4 35.5 10t19.5 14.5
t7.5 14.5t2.5 17q5 52 5 200q0 5 -1.5 8t-3.5 2q-74 -37 -115 -37q-88 0 -146 60q-23 24 -36.5 62.5t-13.5 75.5q0 71 33 116.5t72 67.5q23 14 57 24t58 10zM228 373q-35 0 -58 -21q-55 -48 -55 -143q0 -80 50 -133q43 -43 113 -43q11 0 31 5t29 12q3 1 6.5 13t3.5 18
q0 128 -5 180q-1 9 -7 30.5t-10 27.5q-15 23 -43 38.5t-55 15.5z" />
    <glyph glyph-name="r" unicode="r" horiz-adv-x="340" 
d="M51 352q0 12 13 17q46 15 74 32q18 12 20 12q3 0 6 -4.5t3 -7.5q0 -9 -1 -27t-1 -28q0 -3 2.5 -4t4.5 0q65 62 114 62q27 0 38.5 -11.5t11.5 -22.5q0 -4 -6 -14q-27 -39 -41 -46q-5 -3 -14 3q-24 22 -55 22t-44 -14q-10 -11 -10 -22q0 -126 6 -216q3 -47 26 -51
q7 -2 46 -12q18 -6 18 -16q0 -9 -24 -9q-8 0 -46.5 2.5t-71.5 2.5q-16 0 -35.5 -2t-30.5 -2q-21 0 -21 12q0 6 20 13q29 10 35.5 23.5t7.5 59.5v191q0 23 -11 30q-6 5 -12.5 9.5t-10 7t-6.5 4.5t-4 3.5t-1 2.5z" />
    <glyph glyph-name="s" unicode="s" horiz-adv-x="321" 
d="M185 404q29 0 51 -6q16 -3 32 -11q8 -4 8 -14t1.5 -33.5t1.5 -25.5q0 -18 -12 -18q-7 0 -15 17q-31 67 -80 67q-28 0 -44 -21t-16 -41q0 -24 23 -46t76 -51q78 -46 78 -112q0 -56 -58 -98q-35 -23 -84 -23q-25 0 -55 6t-42 16q-3 5 -9 31t-6 45q0 21 8 21t21 -23
q39 -71 91 -71q19 0 40 15q23 18 23 55q0 39 -45 67q-42 30 -61 42q-62 39 -62 101q0 57 55 90q33 21 80 21z" />
    <glyph glyph-name="t" unicode="t" horiz-adv-x="322" 
d="M164 390q10 0 39.5 1t56 2t27.5 1t6 -3t5 -5l3 -37v-1q0 -11 -26 -11h-109q-3 0 -6 -2.5t-3 -4.5q-2 -40 -2 -215q0 -32 17 -49q21 -19 61 -19q24 0 49 15q11 6 15 6q6 0 6 -11t-14 -25q-46 -44 -107 -44q-29 0 -53.5 14.5t-34.5 32.5q-13 20 -13 66q0 19 2 112t2 110
q0 9 -38 20q-14 5 -14 11q0 5 6 11q68 54 80 69q19 22 23 22q3 0 8.5 -4.5t5.5 -6.5v-47q0 -8 8 -8z" />
    <glyph glyph-name="u" unicode="u" horiz-adv-x="498" 
d="M246 38q36 0 76 35q15 13 15 24l2 230q0 4 -6 12t-11 10q-40 11 -46 12q-20 6 -20 16q0 3 7.5 6t15.5 3q65 0 107 11q13 4 24 4q7 0 7 -15q-2 -26 -6 -151.5t-4 -180.5q0 -3 3.5 -8.5t8.5 -5.5q3 0 23 2.5t27 2.5q6 0 12 -19q0 -2 -4 -6t-7 -4q-26 -2 -91 -19
q-31 -9 -35 -9q-3 0 -6.5 4.5t-3.5 9.5q0 3 1.5 18t2.5 24q0 4 -1.5 6t-3.5 1q-64 -44 -82 -51q-29 -12 -67 -12q-58 0 -88 47q-14 22 -14 47q0 185 -2 238q0 6 -1 10.5t-4 8t-4.5 6t-6 5t-6.5 3.5t-8 3t-7 3q-18 8 -18 18q0 9 17 9q12 0 37.5 3t46.5 5.5t22 2.5q8 0 8 -15
q1 -19 -1 -135.5t-2 -132.5q0 -38 25 -56q26 -20 68 -20z" />
    <glyph glyph-name="v" unicode="v" horiz-adv-x="423" 
d="M-8 384q0 11 24 11q10 0 44 -2.5t39 -2.5q15 0 36.5 1t25.5 1q23 0 23 -11q0 -8 -22 -15q-31 -8 -22 -34q20 -60 51.5 -133t37.5 -78q3 -5 8 4q57 137 76 201q6 19 -0.5 26.5t-30.5 16.5q-16 6 -16 13q0 11 20 11q9 0 25 -1.5t29 -1.5q9 0 33.5 2.5t34.5 2.5q20 0 20 -11
q0 -7 -21 -15q-25 -10 -50 -39q-6 -10 -19 -39t-33.5 -79t-29.5 -71q-11 -27 -45 -134q-4 -12 -11 -19t-13 -7q-8 0 -13 18q-23 70 -36 102q-56 150 -104 235q-13 25 -42 33q-19 6 -19 15z" />
    <glyph glyph-name="w" unicode="w" horiz-adv-x="654" 
d="M91 390q13 0 37.5 1.5t32.5 1.5q26 0 26 -11q0 -10 -25 -16q-31 -6 -18 -39q9 -28 44.5 -120t41.5 -102q5 -10 9 0q22 44 70 152q5 11 5 20q-4 25 -16 48q-8 14 -11.5 19.5t-11.5 12.5t-19 10q-22 7 -22 16q0 10 24 10q6 0 30 -1.5t37 -1.5q9 0 34 1.5t36 1.5
q24 0 24 -11q0 -12 -24 -16q-29 -7 -29 -22q0 -3 12 -36q1 -4 16.5 -45t33.5 -87t27 -68q3 -11 9 1q9 19 67 167q17 45 17 60q0 22 -39 31q-23 8 -23 16q0 10 23 10q5 0 29.5 -1.5t32.5 -1.5q19 0 43.5 2.5t30.5 2.5q21 0 21 -10q0 -9 -23 -15q-12 -4 -19 -7t-14.5 -12
t-8.5 -10.5t-11 -18.5q-32 -57 -96 -215q-37 -91 -42 -108q-4 -12 -13 -12q-8 0 -19 15q-1 3 -6 17.5t-10.5 30t-9.5 26.5q-4 10 -17 42t-25 62.5t-20 48.5q-1 2 -3.5 1.5t-3.5 -2.5q-61 -127 -91 -202q-15 -41 -25 -41q-13 0 -18 15q-5 12 -30 86q-25 73 -86 214
q-14 32 -25.5 47t-30.5 20q-25 5 -25 15q0 12 29 12q8 0 32 -2t36 -2z" />
    <glyph glyph-name="x" unicode="x" horiz-adv-x="426" 
d="M15 387q0 9 26 9q5 0 39 -3t48 -3q11 0 31 1t28 1q22 0 22 -9q0 -12 -19 -17q-20 -6 -20 -21q0 -4 21 -40t32 -52q2 -4 7 1q32 42 53 82q7 12 5 17t-12 9q-27 11 -27 19q0 11 20 11q4 0 18.5 -1t24.5 -1q13 0 46.5 2.5t40.5 2.5q21 0 21 -11q0 -6 -19 -14
q-62 -17 -87 -48q-39 -48 -70 -92q-3 -6 -1 -11q31 -68 83 -142q31 -44 76 -55q23 -5 23 -15q0 -12 -24 -12q-17 0 -53 2.5t-55 2.5q-10 0 -25.5 -1t-25.5 -1q-21 0 -21 13q0 8 19 13q11 4 15 6.5t4 11t-9 22.5q-42 80 -49 86q-3 4 -7 0q-13 -13 -37.5 -51t-25.5 -48
q0 -18 26 -28q14 -5 14 -15t-21 -10q-11 0 -23.5 1t-19.5 1q-18 0 -45.5 -2t-35.5 -2q-29 0 -29 11q0 10 25 16q47 13 75 46q11 13 41 54.5t42 56.5q3 4 0 10q-20 44 -69 119q-32 48 -70 60q-26 7 -26 18z" />
    <glyph glyph-name="y" unicode="y" horiz-adv-x="414" 
d="M-5 381q0 12 24 12q12 0 37.5 -2t40.5 -2q16 0 41 1t29 1q22 0 22 -11t-23 -17q-21 -6 -24.5 -12.5t3.5 -26.5q11 -34 46 -120t41 -96q3 -3 8 4q9 19 42 105t37 99q7 21 -1 31.5t-37 17.5q-21 5 -21 14q0 12 25 12q10 0 31.5 -1t27.5 -1t27 2t36 2q20 0 20 -9
q0 -10 -22 -17q-30 -10 -49 -52q-46 -104 -110 -266q-20 -52 -56.5 -151t-47.5 -128q-3 -11 -17.5 -19.5t-34.5 -8.5q-23 0 -34 15t-11 34q0 15 12.5 29.5t31.5 14.5q2 0 16 -0.5t20 -0.5q8 0 15 17q6 11 24 60t24 69q6 29 3 36q-1 1 -15 41q-16 45 -53.5 134.5t-60.5 135.5
q-4 9 -6.5 12.5t-7.5 9t-13 9.5t-20 8q-20 7 -20 15z" />
    <glyph glyph-name="z" unicode="z" horiz-adv-x="392" 
d="M204 390q40 0 85 2t54 2q4 0 8 -3q9 -7 3 -15q-2 -3 -23.5 -30.5t-36.5 -49.5q-20 -29 -153 -245q-3 -3 -1.5 -6t4.5 -4q6 -2 52 -5t76 -3q12 0 24 12q25 25 49 59q15 22 21 22q11 0 8 -19q-1 -5 -12 -42t-15 -58q0 -3 -5 -7.5t-8 -4.5q-2 0 -42 1.5t-88 2.5t-69 1
q-1 0 -93 -4q-3 0 -8 5t-5 9t70 107q26 35 146 230q4 6 -3 8q-21 6 -129 6q-7 0 -26.5 -21t-32.5 -42q-8 -16 -15 -16q-3 0 -6.5 5.5t-3.5 11.5q0 10 8 34q10 33 10 62q0 5 3 8q8 7 11 4q23 -17 52 -17h91z" />
    <glyph glyph-name="braceleft" unicode="{" horiz-adv-x="342" 
d="M37 297q51 11 74 37.5t23 59.5q0 18 -13 88.5t-13 84.5q0 24 15.5 59t46.5 60q60 46 120 46q18 0 18 -9q0 -3 -4.5 -11t-7.5 -9q-1 0 -7 -1.5t-15 -3.5t-14 -3q-87 -22 -87 -123q0 -20 13.5 -77t13.5 -84q0 -34 -28 -65t-71 -54q-8 -5 -1 -9q55 -28 78 -61.5t23 -78.5
q0 -41 -22 -135q-11 -45 -11 -56q0 -89 124 -116q13 -2 13 -8q0 -8 -8 -13t-16 -5q-82 0 -130 53t-48 120q0 9 12.5 76.5t12.5 90.5q0 49 -15 72t-57 36q-14 5 -22.5 13.5t-8.5 14.5q0 8 12 11z" />
    <glyph glyph-name="bar" unicode="|" horiz-adv-x="259" 
d="M99 743h61v-991h-61v991z" />
    <glyph glyph-name="braceright" unicode="}" horiz-adv-x="342" 
d="M291 267q-52 -11 -75 -38t-23 -59q0 -20 12.5 -102t12.5 -93q0 -26 -14.5 -60t-45.5 -59q-58 -46 -114 -46q-7 0 -12.5 4t-5.5 9q0 7 11 13q12 7 40 15q76 19 76 119q0 20 -12.5 87.5t-12.5 94.5q0 35 29 68t72 54q6 4 0 7q-57 28 -79.5 61t-22.5 80q0 42 21 113
q10 44 10 55q0 48 -30 71.5t-93 43.5q-12 5 -12 9q0 5 8.5 11.5t14.5 6.5q82 0 130 -52.5t48 -120.5q0 -8 -12 -65.5t-12 -79.5q0 -49 14.5 -72.5t56.5 -36.5q31 -11 31 -25q0 -8 -11 -13z" />
    <glyph glyph-name="asciitilde" unicode="~" horiz-adv-x="624" 
d="M211 338q33 0 73 -28t76.5 -56.5t58.5 -28.5q36 0 55 23t43 82q4 9 11 9q12 0 25 -9t9 -19q-22 -65 -60.5 -105t-87.5 -40q-35 0 -74.5 28.5t-75 57t-59.5 28.5q-27 0 -48.5 -23t-45.5 -76q-7 -15 -13 -15q-9 0 -23.5 8.5t-11.5 17.5q20 61 57.5 103.5t90.5 42.5z" />
    <glyph glyph-name="uni00A0" unicode="&#xa0;" horiz-adv-x="199" 
 />
    <glyph glyph-name="exclamdown" unicode="&#xa1;" horiz-adv-x="270" 
d="M123 -176q-30 0 -42 26.5t-12 56.5q1 19 16.5 152t18.5 154q1 11 7 20.5t14 9.5q16 0 18 -34q1 -9 16 -133t18 -170q3 -41 -15.5 -61.5t-38.5 -20.5zM125 327q-29 0 -44 20t-15 41q0 25 17 43t43 18q23 0 41 -15.5t18 -46.5q0 -30 -20 -45t-40 -15z" />
    <glyph glyph-name="cent" unicode="&#xa2;" horiz-adv-x="486" 
d="M135 331q0 -119 97 -165q7 -2 7 6l30 314q-2 5 -4 5q-52 0 -91 -50t-39 -110zM60 293q0 122 104 190q46 29 104 39q6 2 6 6l9 72q0 6 6 6q24 0 24 -7l-5 -67q0 -7 4 -7q57 -1 95 -27q17 -13 17 -30q0 -10 -11.5 -21t-18.5 -11t-40 28q-22 19 -48 24l-4 -3l-31 -320
q0 -9 6 -10q8 -2 16 -2q57 0 118 49q3 3 6.5 0.5t3.5 -5.5q0 -19 -15 -34q-50 -54 -136 -64q-6 0 -6 -8l-8 -78q-7 -7 -22 -7q-10 0 -10 6l9 80q0 2 -2.5 5t-5.5 3q-40 6 -76 28t-57 54q-32 50 -32 111z" />
    <glyph glyph-name="sterling" unicode="&#xa3;" horiz-adv-x="486" 
d="M343 631q44 0 69.5 -22.5t25.5 -53.5q0 -28 -14.5 -44t-29.5 -16q-9 0 -9 7q0 2 0.5 8.5t0.5 9.5q0 34 -17 59.5t-44 25.5q-81 0 -110 -264q0 -8 6 -8l124 5q4 0 6.5 -4.5t1.5 -9.5q0 -5 -3.5 -12t-6.5 -7l-124 -8q-3 0 -6.5 -3t-4.5 -7q-12 -61 -28 -98.5t-47 -71.5
q-2 -1 -1.5 -4.5t4.5 -3.5q49 0 93 -23q17 -8 44 -25t47 -27t35 -10q39 0 53 16.5t15 53.5q0 16 -5 54q0 4 3.5 8.5t7.5 4.5q15 0 27 -14t11 -38q-2 -52 -54 -100t-117 -48q-10 0 -21.5 3.5t-20 7.5t-22.5 14t-21.5 16t-26 21t-26.5 22q-28 23 -57 23q-3 0 -9 -7.5t-15 -21
t-15 -20.5q-28 -31 -45 -31q-11 0 -19.5 7t-7.5 15q0 18 23 46t58 43q5 2 16 13q33 33 43 169q0 9 -5 9l-65 -1q-3 -1 -5 4.5t-2 10.5q0 16 8 18l67 5q7 2 7 9q12 109 38.5 169t69.5 93t100 33z" />
    <glyph glyph-name="currency" unicode="&#xa4;" horiz-adv-x="486" 
d="M437 469l-50 -54q-2 -5 0 -11q31 -47 31 -102q0 -53 -34 -102l-2 -6l53 -58q4 -3 2 -12t-10 -16q-4 -4 -11.5 -7t-9.5 0l-61 55q-3 3 -10 -1q-49 -30 -90 -30q-50 0 -92 26q-4 2 -12 -1l-51 -50q-7 -9 -25 5q-18 18 -8 32l46 51q3 6 0 10q-33 50 -33 103q0 42 34 98
q1 1 1.5 5.5t-1.5 6.5l-51 59q-4 5 0 14t9 14q16 15 25 7l51 -52q2 -2 7 -2.5t7 0.5q44 26 93 26q48 0 95 -28q6 -3 10 1l50 52q10 10 28 -7q18 -14 9 -26zM245 426q-52 0 -86.5 -35.5t-34.5 -89.5t35.5 -88t85.5 -34q49 0 85 34.5t36 87.5q0 51 -37.5 88t-83.5 37z" />
    <glyph glyph-name="yen" unicode="&#xa5;" horiz-adv-x="486" 
d="M9 612q0 10 23 10q7 0 30.5 -1.5t37.5 -1.5q16 0 48 1.5t41 1.5q21 0 21 -10t-20 -16q-19 -6 -22 -15.5t6 -28.5q2 -4 36.5 -78t52.5 -107q3 -7 8 1q38 68 69 135q25 55 25 64q0 17 -37 29q-20 6 -20 16t24 10q10 0 30.5 -1.5t29.5 -1.5q14 -1 38.5 1t33.5 2q21 0 21 -10
t-18 -15q-9 -3 -16.5 -6t-14 -8t-10.5 -8t-10.5 -11t-8.5 -10.5t-9.5 -14t-10.5 -15.5q-17 -26 -53 -92.5t-45 -87.5q-1 -2 -1.5 -3.5t0.5 -3t3 -1.5l106 -1q4 0 4 -8q0 -7 -4 -14.5t-8 -7.5h-105q-4 0 -4 -8v-64q0 -1 2 -4.5t3 -3.5h103q6 0 6 -11q0 -7 -3.5 -13t-7.5 -6
l-96 -2q-7 0 -7 -10v-39q0 -69 4.5 -87t22.5 -24q15 -6 34 -10q18 -4 18 -14q0 -4 -7 -7.5t-16 -3.5q-12 0 -43.5 1t-42.5 1q-14 0 -50 -2t-51 -2q-19 0 -19 10t22 16q33 8 41 22t10 62q1 22 1 75q0 12 -6 12h-103q-8 0 -8 11q0 6 3 13.5t6 7.5h100q8 0 8 7v63q0 10 -5 10
h-94q-7 0 -7 9q0 6 3.5 14.5t5.5 8.5l87 -1q4 0 0 9q-6 15 -43.5 88.5t-59.5 109.5q-13 20 -17.5 26t-15.5 14t-29 13q-20 7 -20 16z" />
    <glyph glyph-name="brokenbar" unicode="&#xa6;" horiz-adv-x="259" 
d="M99 -173v346h61v-346h-61zM99 668h61v-346h-61v346z" />
    <glyph glyph-name="section" unicode="&#xa7;" horiz-adv-x="423" 
d="M261 637q33 0 57 -17q11 -11 11 -18q0 -17 -29 -41q-5 -4 -24 1q-41 28 -60 28q-57 0 -57 -64q0 -14 14 -36t28.5 -39t38 -41t29.5 -31q105 -110 105 -201q0 -19 -2 -37.5t-6.5 -35.5t-8 -29t-10.5 -28t-10 -22t-11 -20t-8 -15q-24 -43 -65 -77.5t-71 -42.5
q-23 -7 -37 -7q-22 0 -37.5 6.5t-21.5 13.5t-6 13q0 7 13 24t29 26q7 4 22 -7q26 -21 57 -21q57 0 57 65q0 19 -34 64.5t-65 76.5q-71 74 -102 136q-16 37 -16 80q0 44 20.5 90.5t46.5 78.5q9 44 53 84q51 43 100 43zM333 114q0 38 -18 78t-31.5 57.5t-52.5 65.5
q-11 13 -41.5 46t-50 57.5t-28.5 42.5q-3 3 -7 -1q-18 -29 -18 -69q0 -87 115 -208q83 -82 108 -142q0 -2 4 -2q1 0 2 2q18 31 18 73z" />
    <glyph glyph-name="dieresis" unicode="&#xa8;" 
d="M116 600q17 0 29 -14t12 -32q0 -21 -13 -32.5t-30 -11.5q-15 0 -28.5 12t-13.5 31t12.5 33t31.5 14zM285 599q17 0 30 -14t13 -31q0 -18 -13.5 -31t-31.5 -13q-17 0 -30 12.5t-13 30.5q0 21 14 33.5t31 12.5z" />
    <glyph glyph-name="copyright" unicode="&#xa9;" horiz-adv-x="692" 
d="M347 628q131 0 218 -90t87 -219q0 -128 -89 -219t-216 -91q-132 0 -219.5 90.5t-87.5 219.5q0 128 89.5 218.5t217.5 90.5zM347 598q-114 0 -192 -80.5t-78 -197.5q0 -115 81.5 -198t188.5 -83q113 0 190.5 81t77.5 200q0 116 -79 197t-189 81zM364 493q37 0 61 -6
q7 -1 26.5 -6t22.5 -6q8 -3 9 -23q1 -14 1 -44q0 -18 -11 -18q-8 0 -13 16q-8 26 -33.5 44t-56.5 18q-54 0 -89 -37.5t-35 -96.5q0 -80 40 -117.5t88 -37.5q26 0 46 10t27.5 19.5t18.5 26.5q14 20 22 20q5 0 5 -13q-2 -31 -14 -54q-2 -5 -10.5 -12.5t-12.5 -9.5
q-41 -17 -90 -17q-48 0 -87 18t-59 41q-45 50 -45 114q0 78 60 125q53 46 129 46z" />
    <glyph glyph-name="ordfeminine" unicode="&#xaa;" horiz-adv-x="272" 
d="M140 535q37 0 58 -26t21 -63q0 -9 -3 -93q-2 -39 24 -39q11 0 25 10q2 1 3 0.5t2 -3t1 -6.5q0 -8 -8 -18q-23 -25 -55 -25q-33 0 -44 32q-2 6 -6 3q-52 -35 -77 -35q-19 0 -37 18.5t-18 44.5q0 35 34 47q2 1 41.5 12.5t55.5 17.5q7 6 7 9q1 10 1 36q0 20 -15 33.5
t-33 13.5q-22 0 -31 -5q-7 -4 -7 -29q0 -5 -6 -10q-1 0 -17 -7t-22 -8q-10 -2 -10 5q0 21 29 48q49 37 87 37zM80 344q0 -12 12 -23t25 -11q20 0 35 17q9 7 9 14q1 7 1 42q-1 9 -7 6q-42 -10 -58.5 -19.5t-16.5 -25.5z" />
    <glyph glyph-name="guillemotleft" unicode="&#xab;" horiz-adv-x="689" 
d="M110 185q-8 4 -9.5 12.5t2.5 10.5q152 85 225 148q23 20 36 20q11 0 2 -18q-2 -6 -6 -11q-27 -39 -147 -135q-13 -10 -3 -17q4 -4 20.5 -18.5t24.5 -21.5t23 -21t24.5 -23.5t21 -21.5t19.5 -22t14 -19q3 -5 5 -9t4 -9t0 -8t-8 -3q-10 0 -23 11q-106 90 -225 155zM332 185
q-8 5 -9 13t3 10q141 77 223 148q23 20 33 20q4 0 5.5 -4t-0.5 -11t-7 -14q-32 -46 -145 -135q-11 -9 -3 -17q115 -94 148 -149q5 -8 6 -17t-7 -10q-7 0 -21 11q-104 88 -226 155z" />
    <glyph glyph-name="logicalnot" unicode="&#xac;" horiz-adv-x="624" 
d="M75 349h459q12 0 12 -21v-274q0 -10 -15.5 -15t-31.5 -5q-12 0 -12 15v227q0 20 -17 20h-389q-14 0 -17.5 2.5t-3.5 12.5q0 12 4.5 25t10.5 13z" />
    <glyph glyph-name="uni00AD" unicode="&#xad;" horiz-adv-x="292" 
d="M52 231q49 7 194 22q2 0 5 -4t3 -7q0 -15 -5 -31t-13 -17q-28 -3 -185 -19q-7 -1 -11.5 3.5t-4.5 10.5q0 18 6 29.5t11 12.5z" />
    <glyph glyph-name="registered" unicode="&#xae;" horiz-adv-x="233" 
d="M92 508v51q0 7 -1.5 10.5t-3 4.5t-6.5 3t-6 4.5t1 3.5l4 2q31 3 49 3q19 0 31 -8t12 -22q0 -12 -18 -21q-2 -2 -1 -4q19 -37 32 -45q6 -3 6 -6q0 -5 -14 -5q-18 0 -27 15q-14 23 -17 29q-1 4 -9 4q-7 0 -7 -4v-11q0 -11 2 -13.5t14 -7.5q3 -1 4 -3.5t-0.5 -4t-3.5 -1.5
h-27h-26q-3 0 -4.5 3t2.5 5q14 6 14 18zM117 574v-30q0 -4 9 -4q19 0 19 18q0 8 -5 14t-13 6q-10 0 -10 -4zM127 644q47 0 78.5 -31.5t31.5 -78.5q0 -43 -30.5 -78t-81.5 -35q-46 0 -77.5 32.5t-31.5 80.5q0 44 32 77t79 33zM127 626q-38 1 -63.5 -25.5t-25.5 -66.5
t25.5 -66.5t63.5 -26.5q39 0 63.5 26.5t24.5 66.5q0 39 -26 65.5t-62 26.5z" />
    <glyph glyph-name="macron" unicode="&#xaf;" 
d="M99 573l209 4q3 0 6 -6.5t3 -9.5q0 -17 -6 -29.5t-15 -12.5h-204q-8 0 -8 12q0 15 5 28.5t10 13.5z" />
    <glyph glyph-name="degree" unicode="&#xb0;" horiz-adv-x="282" 
d="M145 636q46 0 78.5 -31t32.5 -84t-34 -84.5t-81 -31.5q-49 0 -82.5 31t-33.5 85q0 50 36 82.5t84 32.5zM138 601q-29 0 -47.5 -23t-18.5 -57q0 -36 21.5 -58t54.5 -22q26 0 44 22t18 58q0 34 -20 57t-52 23z" />
    <glyph glyph-name="plusminus" unicode="&#xb1;" horiz-adv-x="624" 
d="M283 545q0 6 16 10.5t28 4.5q10 0 12.5 -3t2.5 -17v-189q0 -12 11 -12h195q9 0 12 -2.5t3 -9.5q0 -18 -4.5 -29.5t-9.5 -11.5h-197q-10 0 -10 -13v-190q0 -11 -15.5 -16t-31.5 -5q-12 0 -12 15v192q0 11 -3.5 14t-12.5 3h-187q-13 0 -16.5 2.5t-3.5 12.5q0 12 4.5 25
t10.5 13h195q5 0 9 4t4 8v194zM548 4q9 0 12 -2.5t3 -9.5q0 -18 -4.5 -30t-9.5 -12h-468q-14 0 -17.5 2.5t-3.5 12.5q0 12 4.5 25.5t10.5 13.5h473z" />
    <glyph glyph-name="two.superior" unicode="&#xb2;" horiz-adv-x="299" 
d="M139 773q42 0 71 -29.5t29 -70.5q0 -44 -43 -90q-35 -38 -93 -93q-3 -4 -1 -6t4 -2h114q13 0 36 29q9 11 16 11q5 0 6 -8t-2 -15q-16 -32 -23 -67q-2 -6 -8 -6h-19q-20 1 -43 1.5t-46.5 0.5h-33.5l-61 -1q-18 0 -18 9q0 8 8 14q47 42 98 101q44 53 44 111q0 27 -16.5 42
t-41.5 15q-41 0 -68 -31q-12 -10 -18 -10q-7 0 -7 8q0 12 9 23q46 64 107 64z" />
    <glyph glyph-name="three.superior" unicode="&#xb3;" horiz-adv-x="299" 
d="M148 775q36 0 58 -21.5t22 -45.5q0 -38 -51 -71q-2 -1 -1.5 -3t2.5 -3q81 -10 81 -77q0 -37 -25 -70t-67 -53q-33 -17 -73 -17q-18 0 -38.5 11t-20.5 24q0 10 7.5 18.5t14.5 11.5q6 3 11 -2q33 -28 72 -28q24 0 43.5 24t19.5 49q0 31 -17 52t-49 21q-7 0 -39 -7
q-10 -2 -10 2q0 6 2 10q9 15 26 22q33 14 44 26t11 37q0 17 -14 32t-32 15q-26 0 -59 -27q-19 -16 -20 -3q0 7 3 13q36 60 99 60z" />
    <glyph glyph-name="acute" unicode="&#xb4;" 
d="M252 625q10 21 24 21q31 0 38 -8q5 -7 -5 -27q-39 -74 -89 -148q-13 -19 -26 -19q-12 0 -4 27q21 64 62 154z" />
    <glyph glyph-name="mu" unicode="&#xb5;" horiz-adv-x="453" 
d="M92 407q19 0 45 -18q1 0 5.5 -10t4.5 -13q0 -16 -15 -96q-5 -28 -12 -77.5t-8 -54.5q-2 -17 3 -43q7 -36 48 -36q33 0 69 37.5t55 86.5q6 18 8 39q4 74 14 158q2 9 7 18.5t9 9.5q34 0 59 -25q5 -5 2 -35q-3 -33 -22.5 -97.5t-34.5 -96.5q-4 -10 -4 -25q-1 -35 16.5 -53.5
t37.5 -18.5q41 0 67 32q2 3 5 1.5t5 -6.5q6 -21 -9 -50q-27 -52 -75 -52q-28 0 -48 27.5t-21 88.5l-5 1l-1 -1q-65 -109 -117 -109q-44 0 -76 71q-1 4 -5 -2q-1 -2 -1 -3q-2 -17 -4 -85t0 -95q13 -71 68 -105q4 -2 1 -15q-4 -10 -29 -22q-14 -7 -29 -7t-31 25
q-12 22 -12 107q0 44 7 226q2 29 -1 54q-9 73 -7 249q0 10 9 16q8 4 22 4z" />
    <glyph glyph-name="paragraph" unicode="&#xb6;" horiz-adv-x="546" 
d="M459 626h35q17 0 17 -21q0 -4 -4 -9t-6 -5q-3 0 -47.5 -1t-54.5 -1q-7 0 -7 -16q0 -134 1 -275t2 -228.5t1 -90.5q0 -37 -2 -65t-10 -62.5t-21.5 -57t-40 -38.5t-62.5 -16q-47 0 -76 31t-29 68q0 36 24 65t60 29q21 0 36.5 -15t15.5 -32q0 -25 -15.5 -37.5t-27.5 -12.5
q-17 0 -27 6q-9 6 -14 6q-11 0 -11 -13q0 -28 18.5 -45t51.5 -17q87 0 89 175q1 50 1.5 96.5t0.5 61.5q0 12 -8 14q-82 2 -148 28t-108.5 83t-42.5 137q0 100 76 176q30 31 76.5 49.5t86.5 24.5q68 8 170 8z" />
    <glyph glyph-name="periodcentered" unicode="&#xb7;" horiz-adv-x="205" 
d="M103 257q31 0 46 -20.5t15 -43.5q0 -26 -17.5 -44t-44.5 -18q-23 0 -42 16t-19 48t20.5 47t41.5 15z" />
    <glyph glyph-name="cedilla" unicode="&#xb8;" 
d="M263 -136q0 -44 -49 -82q-41 -31 -68 -31q-16 0 -24 14q-3 5 -3 16.5t2 14.5q5 7 11 7q30 -6 42 -6q17 0 26.5 11.5t9.5 26.5q0 20 -17 33.5t-39 13.5q-9 0 -16 -1q-4 0 -10 5.5t-6 9.5q0 5 7 13q47 60 75 96h32q-39 -49 -43 -54q-3 -6 6 -12q22 -11 33 -18t21 -22
t10 -35z" />
    <glyph glyph-name="one.superior" unicode="&#xb9;" horiz-adv-x="299" 
d="M188 766q0 -2 -0.5 -11t-1 -28t-0.5 -41q0 -80 2 -190q0 -14 1 -20.5t9 -12t12 -7t24 -7.5q15 -6 15 -11q0 -12 -18 -12q-3 0 -35 1t-45 1q-23 0 -48 -1l-25 -1q-19 0 -19 10q0 11 27 17q20 4 27 11t9 21q5 35 5 141q0 47 -2 71q0 11 -11 15q-25 9 -32 11q-18 5 -18 12
q0 8 17 10q55 4 97 28q3 3 6.5 1t3.5 -8z" />
    <glyph glyph-name="ordmasculine" unicode="&#xba;" horiz-adv-x="321" 
d="M161 535q54 0 94.5 -36.5t40.5 -97.5q0 -53 -40.5 -91t-97.5 -38q-53 0 -93 39t-40 93t40 92.5t96 38.5zM155 513q-35 0 -51 -31.5t-16 -71.5q0 -44 23 -78t59 -34q34 0 49 30t15 71q0 42 -24.5 78t-54.5 36z" />
    <glyph glyph-name="guillemotright" unicode="&#xbb;" horiz-adv-x="689" 
d="M578 209q8 -4 9.5 -12.5t-2.5 -10.5q-147 -81 -225 -147q-23 -20 -36 -20q-12 0 1 23l4 6q30 43 147 134q13 10 3 17q-4 3 -37 33t-47.5 43.5t-36 36t-30.5 37.5q-18 27 3 27q10 0 23 -11q93 -82 224 -156zM356 209q8 -5 9.5 -13t-2.5 -10q-65 -34 -128 -76.5t-95 -70.5
q-23 -20 -34 -20q-4 0 -6 3.5t0 10t7 13.5q26 39 147 137q11 8 3 16q-115 95 -151 150q-5 7 -5 17t8 10t22 -11q98 -85 225 -156z" />
    <glyph glyph-name="onequarter" unicode="&#xbc;" horiz-adv-x="657" 
d="M188 618q0 -2 -0.5 -11t-1 -28t-0.5 -41q0 -80 2 -190q0 -14 1 -20.5t9 -12t12 -7t24 -7.5q15 -6 15 -11q0 -12 -18 -12q-3 0 -35 1t-45 1q-23 0 -48 -1l-25 -1q-19 0 -19 10q0 11 27 17q20 4 27 11t9 21q5 35 5 141q0 47 -2 71q0 11 -11 15q-25 9 -32 11q-18 5 -18 12
q0 8 17 10q55 4 97 28q10 7 10 -7zM556 643q10 0 16.5 -6.5t1.5 -14.5q-50 -80 -156 -249t-171 -272t-84 -129q-3 -7 -12 0q-17 13 -8 27q53 85 150.5 240.5t165.5 264t81 127.5q7 12 16 12zM581 350q8 0 8 -11q0 -1 0.5 -40t0.5 -85.5v-63.5q0 -7 5 -7l56 2q5 0 5 -9
q0 -6 -3.5 -16.5t-6.5 -11.5l-51 1q-4 0 -4 -8q0 -7 1 -45.5t0 -48.5q0 -10 -9 -13q-13 -5 -45 -5q-3 0 -6 3t-3 7q0 85 1 104q0 6 -6 6q-88 0 -146 -4q-7 0 -7 12q0 2 3.5 5.5l8 8t5.5 6.5q140 163 153 185q7 9 19.5 18.5t20.5 9.5zM531 147q0 8 2 52t2 69q0 2 -2.5 2.5
t-3.5 -0.5q-85 -100 -99 -119q-2 -3 -1 -5.5t4 -2.5l90 -1q8 0 8 5z" />
    <glyph glyph-name="onehalf" unicode="&#xbd;" horiz-adv-x="679" 
d="M188 618q0 -2 -0.5 -11t-1 -28t-0.5 -41q0 -80 2 -190q0 -14 1 -20.5t9 -12t12 -7t24 -7.5q15 -6 15 -11q0 -12 -18 -12q-3 0 -35 1t-45 1q-23 0 -48 -1l-25 -1q-19 0 -19 10q0 11 27 17q20 4 27 11t9 21q5 35 5 141q0 47 -2 71q0 11 -11 15q-25 9 -32 11q-18 5 -18 12
q0 8 17 10q55 4 97 28q10 7 10 -7zM537 643q10 0 16.5 -6.5t1.5 -14.5q-50 -80 -156 -249t-171 -272t-84 -129q-3 -7 -12 0q-17 13 -8 27q53 85 150.5 240.5t165.5 264t81 127.5q7 12 16 12zM519 345q42 0 71 -29.5t29 -70.5q0 -44 -43 -90q-35 -38 -93 -93q-3 -4 -1 -6
t4 -2h114q13 0 36 29q9 11 16 11q5 0 6 -8t-2 -15q-16 -32 -23 -67q-2 -6 -8 -6h-19q-20 1 -43 1.5t-46.5 0.5h-33.5l-61 -1q-18 0 -18 9q0 8 8 14q47 42 98 101q44 53 44 111q0 27 -16.5 42t-41.5 15q-41 0 -68 -31q-12 -10 -18 -10q-7 0 -7 8q0 12 9 23q46 64 107 64z" />
    <glyph glyph-name="threequarters" unicode="&#xbe;" horiz-adv-x="634" 
d="M148 627q36 0 58 -21.5t22 -45.5q0 -38 -51 -71q-2 -1 -1.5 -3t2.5 -3q81 -10 81 -77q0 -37 -25 -70t-67 -53q-33 -17 -73 -17q-18 0 -38.5 11t-20.5 24q0 10 7.5 18.5t14.5 11.5q6 3 11 -2q33 -28 72 -28q24 0 43.5 24t19.5 49q0 31 -17 52t-49 21q-7 0 -39 -7
q-10 -2 -10 2q0 6 2 10q9 15 26 22q33 14 44 26t11 37q0 17 -14 32t-32 15q-26 0 -59 -27q-19 -16 -20 -3q0 7 3 13q36 60 99 60zM535 643q10 0 16.5 -6.5t1.5 -14.5q-50 -80 -156 -249t-171 -272t-84 -129q-3 -7 -12 0q-17 13 -8 27q53 85 150.5 240.5t165.5 264t81 127.5
q7 12 16 12zM557 350q8 0 8 -11q0 -1 0.5 -40t0.5 -85.5v-63.5q0 -7 5 -7l56 2q5 0 5 -9q0 -6 -3.5 -16.5t-6.5 -11.5l-51 1q-4 0 -4 -8q0 -7 1 -45.5t0 -48.5q0 -10 -9 -13q-13 -5 -45 -5q-3 0 -6 3t-3 7q0 85 1 104q0 6 -6 6q-88 0 -146 -4q-7 0 -7 12q0 2 3.5 5.5l8 8
t5.5 6.5q140 163 153 185q7 9 19.5 18.5t20.5 9.5zM507 147q0 8 2 52t2 69q0 2 -2.5 2.5t-3.5 -0.5q-85 -100 -99 -119q-2 -3 -1 -5.5t4 -2.5l90 -1q8 0 8 5z" />
    <glyph glyph-name="questiondown" unicode="&#xbf;" horiz-adv-x="336" 
d="M217 -164q-40 0 -97 48q-10 9 -25 26t-34 53t-19 66q0 64 37 101q16 11 88 51q4 2 7 4.5t5 5.5t3 5t2 6.5t1.5 6t1 7t0.5 7.5q2 26 15 26q5 0 10 -9t7 -18q12 -63 12 -79q0 -23 -20 -38.5t-73 -39.5q-49 -23 -49 -56q0 -19 2.5 -31.5t9.5 -25.5t23.5 -20t41.5 -7
q4 0 21.5 2t26.5 2q11 0 26 -16t15 -42q0 -11 -11 -23t-27 -12zM183 330q-24 0 -39.5 19t-15.5 39q0 24 16.5 41t40.5 17q22 0 39 -14.5t17 -44.5q0 -28 -19.5 -42.5t-38.5 -14.5z" />
    <glyph glyph-name="Agrave" unicode="&#xc0;" horiz-adv-x="676" 
d="M353 661q7 0 16 -26q6 -19 44 -124q95 -267 144 -385q23 -58 40.5 -75t53.5 -26q24 -7 24 -17q0 -13 -32 -13q-15 0 -59 2.5t-67 2.5q-17 0 -38 -1t-33 -1q-31 0 -31 12t24 16q22 5 32.5 13t9.5 17.5t-2 20.5q-6 33 -56 171q-3 10 -34 10q-136 0 -164 -4q-6 0 -11 -8
q-52 -130 -52 -175q0 -28 49 -43q27 -8 27 -18q0 -13 -28 -13q-6 0 -32 1.5t-47 1.5t-60 -2.5t-44 -2.5q-23 0 -23 10q0 13 22 20q41 14 56.5 26.5t35.5 58.5q12 28 87 220.5t94 240.5q6 12 6 21q0 5 2 8q5 7 17 27t13 22q11 12 16 12zM398 303q1 0 2.5 3t0.5 5
q-65 195 -78 215q-4 9 -8 0q-69 -184 -78 -219q-2 -7 5 -7q14 0 48.5 0.5t63.5 1t44 1.5zM229 820q6 0 39 -24q31 -22 105 -82q14 -14 10 -21q-10 -12 -33 0q-96 43 -140 71q-19 11 -19 21t18 23q12 12 20 12z" />
    <glyph glyph-name="Aacute" unicode="&#xc1;" horiz-adv-x="676" 
d="M353 661q7 0 16 -26q6 -19 44 -124q95 -267 144 -385q23 -58 40.5 -75t53.5 -26q24 -7 24 -17q0 -13 -32 -13q-15 0 -59 2.5t-67 2.5q-17 0 -38 -1t-33 -1q-31 0 -31 12t24 16q22 5 32.5 13t9.5 17.5t-2 20.5q-6 33 -56 171q-3 10 -34 10q-136 0 -164 -4q-6 0 -11 -8
q-52 -130 -52 -175q0 -28 49 -43q27 -8 27 -18q0 -13 -28 -13q-6 0 -32 1.5t-47 1.5t-60 -2.5t-44 -2.5q-23 0 -23 10q0 13 22 20q41 14 56.5 26.5t35.5 58.5q12 28 87 220.5t94 240.5q6 12 6 21q0 5 2 8q5 7 17 27t13 22q11 12 16 12zM398 303q1 0 2.5 3t0.5 5
q-65 195 -78 215q-4 9 -8 0q-69 -184 -78 -219q-2 -7 5 -7q14 0 48.5 0.5t63.5 1t44 1.5zM452 817q15 10 28 5q9 -4 19 -13.5t10 -18.5q0 -14 -20 -26q-89 -49 -150 -72q-24 -10 -34 0q-1 0 -1 3t3 9t10 12q59 50 135 101z" />
    <glyph glyph-name="Acircumflex" unicode="&#xc2;" horiz-adv-x="676" 
d="M353 661q7 0 16 -26q6 -19 44 -124q95 -267 144 -385q23 -58 40.5 -75t53.5 -26q24 -7 24 -17q0 -13 -32 -13q-15 0 -59 2.5t-67 2.5q-17 0 -38 -1t-33 -1q-31 0 -31 12t24 16q22 5 32.5 13t9.5 17.5t-2 20.5q-6 33 -56 171q-3 10 -34 10q-136 0 -164 -4q-6 0 -11 -8
q-52 -130 -52 -175q0 -28 49 -43q27 -8 27 -18q0 -13 -28 -13q-6 0 -32 1.5t-47 1.5t-60 -2.5t-44 -2.5q-23 0 -23 10q0 13 22 20q41 14 56.5 26.5t35.5 58.5q12 28 87 220.5t94 240.5q6 12 6 21q0 5 2 8q5 7 17 27t13 22q11 12 16 12zM398 303q1 0 2.5 3t0.5 5
q-65 195 -78 215q-4 9 -8 0q-69 -184 -78 -219q-2 -7 5 -7q14 0 48.5 0.5t63.5 1t44 1.5zM351 796q10 0 37 -22q70 -60 82 -70q17 -12 11 -22q-2 -4 -9 -4q-9 0 -28 8q-14 6 -29 13.5t-32.5 16t-27.5 13.5q-7 3 -16 -1q-33 -15 -86 -41q-1 0 -11.5 -4.5t-15.5 -4.5
q-27 0 0 24l2 2q9 8 40.5 35t45.5 38q24 19 37 19z" />
    <glyph glyph-name="Atilde" unicode="&#xc3;" horiz-adv-x="676" 
d="M353 661q7 0 16 -26q6 -19 44 -124q95 -267 144 -385q23 -58 40.5 -75t53.5 -26q24 -7 24 -17q0 -13 -32 -13q-15 0 -59 2.5t-67 2.5q-17 0 -38 -1t-33 -1q-31 0 -31 12t24 16q22 5 32.5 13t9.5 17.5t-2 20.5q-6 33 -56 171q-3 10 -34 10q-136 0 -164 -4q-6 0 -11 -8
q-52 -130 -52 -175q0 -28 49 -43q27 -8 27 -18q0 -13 -28 -13q-6 0 -32 1.5t-47 1.5t-60 -2.5t-44 -2.5q-23 0 -23 10q0 13 22 20q41 14 56.5 26.5t35.5 58.5q12 28 87 220.5t94 240.5q6 12 6 21q0 5 2 8q5 7 17 27t13 22q11 12 16 12zM398 303q1 0 2.5 3t0.5 5
q-65 195 -78 215q-4 9 -8 0q-69 -184 -78 -219q-2 -7 5 -7q14 0 48.5 0.5t63.5 1t44 1.5zM230 713q17 26 33 47q7 9 25 9q124 0 141 4q15 4 32 30q7 7 9 7q8 0 15 -14q4 -8 -3 -15q-6 -6 -26 -32t-25 -31q-6 -6 -14 -6q-139 0 -146 -2q-10 -3 -28 -27q-4 -7 -9 -7
q-7 0 -11 5t-4 8q0 6 11 24z" />
    <glyph glyph-name="Adieresis" unicode="&#xc4;" horiz-adv-x="676" 
d="M353 661q7 0 16 -26q6 -19 44 -124q95 -267 144 -385q23 -58 40.5 -75t53.5 -26q24 -7 24 -17q0 -13 -32 -13q-15 0 -59 2.5t-67 2.5q-17 0 -38 -1t-33 -1q-31 0 -31 12t24 16q22 5 32.5 13t9.5 17.5t-2 20.5q-6 33 -56 171q-3 10 -34 10q-136 0 -164 -4q-6 0 -11 -8
q-52 -130 -52 -175q0 -28 49 -43q27 -8 27 -18q0 -13 -28 -13q-6 0 -32 1.5t-47 1.5t-60 -2.5t-44 -2.5q-23 0 -23 10q0 13 22 20q41 14 56.5 26.5t35.5 58.5q12 28 87 220.5t94 240.5q6 12 6 21q0 5 2 8q5 7 17 27t13 22q11 12 16 12zM398 303q1 0 2.5 3t0.5 5
q-65 195 -78 215q-4 9 -8 0q-69 -184 -78 -219q-2 -7 5 -7q14 0 48.5 0.5t63.5 1t44 1.5zM249 778q18 0 31 -14.5t13 -33.5q0 -21 -14 -32.5t-34 -11.5q-15 0 -28 12t-13 34q0 18 13 32t32 14zM450 777q17 0 29.5 -14.5t12.5 -32.5t-13.5 -31t-31.5 -13q-17 0 -30 12.5
t-13 31.5q0 21 13.5 34t32.5 13z" />
    <glyph glyph-name="Aring" unicode="&#xc5;" horiz-adv-x="676" 
d="M353 661q7 0 16 -26q6 -19 44 -124q95 -267 144 -385q23 -58 40.5 -75t53.5 -26q24 -7 24 -17q0 -13 -32 -13q-15 0 -59 2.5t-67 2.5q-17 0 -38 -1t-33 -1q-31 0 -31 12t24 16q22 5 32.5 13t9.5 17.5t-2 20.5q-6 33 -56 171q-3 10 -34 10q-136 0 -164 -4q-6 0 -11 -8
q-52 -130 -52 -175q0 -28 49 -43q27 -8 27 -18q0 -13 -28 -13q-6 0 -32 1.5t-47 1.5t-60 -2.5t-44 -2.5q-23 0 -23 10q0 13 22 20q41 14 56.5 26.5t35.5 58.5q12 28 87 220.5t94 240.5q6 12 6 21q0 5 2 8q5 7 17 27t13 22q11 12 16 12zM398 303q1 0 2.5 3t0.5 5
q-65 195 -78 215q-4 9 -8 0q-69 -184 -78 -219q-2 -7 5 -7q14 0 48.5 0.5t63.5 1t44 1.5zM348 834q34 0 55.5 -22.5t21.5 -53.5q0 -32 -21.5 -55t-55.5 -23t-55.5 23t-21.5 55q0 31 21.5 53.5t55.5 22.5zM348 807q-18 0 -30 -14t-12 -35q0 -23 12 -36.5t30 -13.5
q19 0 30.5 13.5t11.5 38.5q0 20 -12 33.5t-30 13.5z" />
    <glyph glyph-name="AE" unicode="&#xc6;" horiz-adv-x="903" 
d="M504 643h201q14 0 28 1t25 2t19.5 2t13.5 2t6 1q3 0 7.5 -5t4.5 -11q0 -18 15 -104q1 -6 -2.5 -12.5t-8.5 -6.5q-12 0 -22 22q-31 65 -67 70q-6 1 -152 1q-4 0 -7 -4t-3 -7v-242q0 -22 10 -22q116 0 135 4q20 5 37 44q4 6 11.5 11.5t11.5 5.5t6.5 -7t0.5 -17
q-4 -20 -4 -137q0 -19 -11 -19q-12 0 -21 24q-8 30 -18.5 39t-42.5 9q-7 0 -41.5 0.5t-60.5 0.5q-10 0 -12 -13q-6 -27 1 -179q2 -51 47 -58q49 -6 126 -4q29 1 49 16t60 61q19 22 24 22t9.5 -8t2.5 -15q-15 -46 -42 -101q-8 -14 -36 -14q-6 0 -41.5 1.5t-96 2.5t-126.5 1
q-13 0 -66 -2.5t-67 -2.5q-10 0 -16.5 3.5t-6.5 7.5q0 13 25 19q38 8 49 20.5t15 43.5q4 35 4 182q0 11 -7 11q-29 2 -86.5 2t-74.5 -1q-3 0 -10 -5.5t-9 -9.5q-103 -194 -103 -210q0 -17 44 -29q20 -5 20 -12t-6.5 -13.5t-18.5 -6.5q-10 0 -38.5 1.5t-51.5 1.5
q-16 0 -64 -3t-54 -3q-9 0 -17.5 4t-8.5 9q0 14 34 20q42 6 68 23.5t61 67.5q44 61 275 471q7 11 -7 15q-8 2 -39.5 6.5t-39.5 6.5q-19 6 -19 16q0 12 29 12q18 0 73.5 -1t76.5 -1zM479 575q0 17 -2.5 17.5t-9.5 -10.5q-3 -4 -8 -12q-55 -86 -127 -230q-3 -10 7 -12
q15 -1 129 -1q9 0 9 16q0 1 1 110t1 122z" />
    <glyph glyph-name="Ccedilla" unicode="&#xc7;" horiz-adv-x="717" 
d="M431 661q50 0 118 -16q14 -2 41.5 -10t34.5 -9q15 0 15 -30q0 -10 7 -87q1 -15 -4 -24t-11 -9q-7 0 -16 26q-14 54 -41 75q-70 52 -160 52q-117 0 -190.5 -83.5t-73.5 -200.5q0 -95 35 -165q40 -79 112 -119.5t141 -40.5q61 0 110 27q53 28 92 97q17 24 22 25q14 0 8 -32
q-4 -37 -39 -101q-7 -15 -32 -26q-15 -7 -62 -16t-99 -11q-6 -8 -12.5 -16.5t-9.5 -13t-4 -5.5q-3 -7 7 -13q18 -9 26 -14t19.5 -15t16.5 -22t5 -28q0 -44 -52 -87q-43 -33 -73 -33q-15 0 -25 15q-9 15 0 31q6 10 14 9q37 -7 42 -7q18 0 28.5 12.5t10.5 28.5q0 21 -19 35.5
t-42 14.5q-10 0 -18 -1q-3 0 -9 5.5t-6 9.5q0 6 7 14q5 6 62 79q-92 3 -164.5 39t-108.5 78q-84 97 -84 230q0 77 35 142t75 98q113 92 271 92z" />
    <glyph glyph-name="Egrave" unicode="&#xc8;" horiz-adv-x="563" 
d="M223 643h147q70 0 92 3q2 1 5 -3t4 -8q0 -26 1 -57t1 -38q0 -26 -15 -26q-11 0 -16 24q-9 37 -24.5 50.5t-42.5 17.5q-52 8 -142 4q-2 0 -4.5 -2t-6 -9t-4.5 -17q-2 -20 -3 -118.5t0 -109.5q3 -10 7 -10h65q50 0 69.5 3.5t28 12.5t18.5 34q8 21 18 21q11 0 8 -22
q-3 -42 -3 -72q0 -1 3 -61q2 -29 -11 -29q-11 0 -17 22q-11 35 -22 42.5t-57 9.5q-32 2 -99 2q-3 0 -6 -3.5t-3 -5.5q-3 -16 -3 -157q0 -56 10 -83q6 -18 19 -22q40 -7 91 -7q69 0 95 7q52 13 83 74q14 28 23 28q5 0 7.5 -9t0.5 -18q-1 -8 -16 -54.5t-20 -52.5
q-9 -12 -17 -12l-49 2q-48 2 -126 4t-150 2q-28 0 -62 -2.5t-51 -2.5q-30 0 -30 13q0 9 28 16q41 10 55.5 22.5t17.5 50.5q8 112 8 284q0 155 -1 169q-2 33 -12.5 46t-43.5 20q-29 7 -29 17q0 14 28 14q21 0 69 -2t84 -2zM181 827q6 0 39 -24q31 -22 105 -82q14 -14 10 -21
q-10 -12 -33 0q-96 43 -140 71q-19 11 -19 21t18 23q12 12 20 12z" />
    <glyph glyph-name="Eacute" unicode="&#xc9;" horiz-adv-x="563" 
d="M223 643h147q70 0 92 3q2 1 5 -3t4 -8q0 -26 1 -57t1 -38q0 -26 -15 -26q-11 0 -16 24q-9 37 -24.5 50.5t-42.5 17.5q-52 8 -142 4q-2 0 -4.5 -2t-6 -9t-4.5 -17q-2 -20 -3 -118.5t0 -109.5q3 -10 7 -10h65q50 0 69.5 3.5t28 12.5t18.5 34q8 21 18 21q11 0 8 -22
q-3 -42 -3 -72q0 -1 3 -61q2 -29 -11 -29q-11 0 -17 22q-11 35 -22 42.5t-57 9.5q-32 2 -99 2q-3 0 -6 -3.5t-3 -5.5q-3 -16 -3 -157q0 -56 10 -83q6 -18 19 -22q40 -7 91 -7q69 0 95 7q52 13 83 74q14 28 23 28q5 0 7.5 -9t0.5 -18q-1 -8 -16 -54.5t-20 -52.5
q-9 -12 -17 -12l-49 2q-48 2 -126 4t-150 2q-28 0 -62 -2.5t-51 -2.5q-30 0 -30 13q0 9 28 16q41 10 55.5 22.5t17.5 50.5q8 112 8 284q0 155 -1 169q-2 33 -12.5 46t-43.5 20q-29 7 -29 17q0 14 28 14q21 0 69 -2t84 -2zM383 815q15 10 28 5q9 -4 19 -13.5t10 -18.5
q0 -14 -20 -26q-89 -49 -150 -72q-24 -10 -34 0q-1 0 -1 3t3 9t10 12q59 50 135 101z" />
    <glyph glyph-name="Ecircumflex" unicode="&#xca;" horiz-adv-x="563" 
d="M223 643h147q70 0 92 3q2 1 5 -3t4 -8q0 -26 1 -57t1 -38q0 -26 -15 -26q-11 0 -16 24q-9 37 -24.5 50.5t-42.5 17.5q-52 8 -142 4q-2 0 -4.5 -2t-6 -9t-4.5 -17q-2 -20 -3 -118.5t0 -109.5q3 -10 7 -10h65q50 0 69.5 3.5t28 12.5t18.5 34q8 21 18 21q11 0 8 -22
q-3 -42 -3 -72q0 -1 3 -61q2 -29 -11 -29q-11 0 -17 22q-11 35 -22 42.5t-57 9.5q-32 2 -99 2q-3 0 -6 -3.5t-3 -5.5q-3 -16 -3 -157q0 -56 10 -83q6 -18 19 -22q40 -7 91 -7q69 0 95 7q52 13 83 74q14 28 23 28q5 0 7.5 -9t0.5 -18q-1 -8 -16 -54.5t-20 -52.5
q-9 -12 -17 -12l-49 2q-48 2 -126 4t-150 2q-28 0 -62 -2.5t-51 -2.5q-30 0 -30 13q0 9 28 16q41 10 55.5 22.5t17.5 50.5q8 112 8 284q0 155 -1 169q-2 33 -12.5 46t-43.5 20q-29 7 -29 17q0 14 28 14q21 0 69 -2t84 -2zM288 809q10 0 37 -22q70 -60 82 -70q17 -12 11 -22
q-2 -4 -9 -4q-9 0 -28 8q-14 6 -29 13.5t-32.5 16t-27.5 13.5q-7 4 -16 -1q-33 -15 -86 -41q-1 0 -11.5 -4.5t-15.5 -4.5q-27 0 0 24l2 2q9 8 40.5 35t45.5 38q24 19 37 19z" />
    <glyph glyph-name="Edieresis" unicode="&#xcb;" horiz-adv-x="563" 
d="M223 643h147q70 0 92 3q2 1 5 -3t4 -8q0 -26 1 -57t1 -38q0 -26 -15 -26q-11 0 -16 24q-9 37 -24.5 50.5t-42.5 17.5q-52 8 -142 4q-2 0 -4.5 -2t-6 -9t-4.5 -17q-2 -20 -3 -118.5t0 -109.5q3 -10 7 -10h65q50 0 69.5 3.5t28 12.5t18.5 34q8 21 18 21q11 0 8 -22
q-3 -42 -3 -72q0 -1 3 -61q2 -29 -11 -29q-11 0 -17 22q-11 35 -22 42.5t-57 9.5q-32 2 -99 2q-3 0 -6 -3.5t-3 -5.5q-3 -16 -3 -157q0 -56 10 -83q6 -18 19 -22q40 -7 91 -7q69 0 95 7q52 13 83 74q14 28 23 28q5 0 7.5 -9t0.5 -18q-1 -8 -16 -54.5t-20 -52.5
q-9 -12 -17 -12l-49 2q-48 2 -126 4t-150 2q-28 0 -62 -2.5t-51 -2.5q-30 0 -30 13q0 9 28 16q41 10 55.5 22.5t17.5 50.5q8 112 8 284q0 155 -1 169q-2 33 -12.5 46t-43.5 20q-29 7 -29 17q0 14 28 14q21 0 69 -2t84 -2zM185 790q18 0 31 -14.5t13 -33.5q0 -21 -14 -32.5
t-34 -11.5q-15 0 -28 12t-13 34q0 18 13 32t32 14zM386 789q17 0 29.5 -14.5t12.5 -32.5t-13.5 -31t-31.5 -13q-17 0 -30 12.5t-13 31.5q0 21 13.5 34t32.5 13z" />
    <glyph glyph-name="Igrave" unicode="&#xcc;" horiz-adv-x="339" 
d="M128 326q0 170 -3 219q-1 22 -2.5 30t-7 18.5t-17 14.5t-32.5 8q-28 5 -28 18q0 12 25 12q12 0 52 -1.5t57 -1.5q26 0 58.5 1.5t48.5 1.5q25 0 25 -12t-26 -17q-21 -4 -33 -10t-18 -18t-6.5 -15l-3.5 -21q-6 -40 -6 -294q0 -101 3 -149q2 -44 14.5 -60.5t58.5 -25.5
q26 -4 26 -17t-27 -13q-28 0 -83 3t-66 3q-14 0 -35.5 -1t-40.5 -1q-26 0 -26 14q0 11 30 17q36 8 45.5 21.5t12.5 51.5q5 58 5 224zM68 830q6 0 39 -24q31 -22 105 -82q14 -14 10 -21q-10 -12 -33 0q-96 43 -140 71q-19 11 -19 21t18 23q12 12 20 12z" />
    <glyph glyph-name="Iacute" unicode="&#xcd;" horiz-adv-x="339" 
d="M128 326q0 170 -3 219q-1 22 -2.5 30t-7 18.5t-17 14.5t-32.5 8q-28 5 -28 18q0 12 25 12q12 0 52 -1.5t57 -1.5q26 0 58.5 1.5t48.5 1.5q25 0 25 -12t-26 -17q-21 -4 -33 -10t-18 -18t-6.5 -15l-3.5 -21q-6 -40 -6 -294q0 -101 3 -149q2 -44 14.5 -60.5t58.5 -25.5
q26 -4 26 -17t-27 -13q-28 0 -83 3t-66 3q-14 0 -35.5 -1t-40.5 -1q-26 0 -26 14q0 11 30 17q36 8 45.5 21.5t12.5 51.5q5 58 5 224zM273 825q15 10 28 5q9 -4 19 -13.5t10 -18.5q0 -14 -20 -26q-89 -49 -150 -72q-24 -10 -34 0q-1 0 -1 3t3 9t10 12q59 50 135 101z" />
    <glyph glyph-name="Icircumflex" unicode="&#xce;" horiz-adv-x="339" 
d="M128 326q0 170 -3 219q-1 22 -2.5 30t-7 18.5t-17 14.5t-32.5 8q-28 5 -28 18q0 12 25 12q12 0 52 -1.5t57 -1.5q26 0 58.5 1.5t48.5 1.5q25 0 25 -12t-26 -17q-21 -4 -33 -10t-18 -18t-6.5 -15l-3.5 -21q-6 -40 -6 -294q0 -101 3 -149q2 -44 14.5 -60.5t58.5 -25.5
q26 -4 26 -17t-27 -13q-28 0 -83 3t-66 3q-14 0 -35.5 -1t-40.5 -1q-26 0 -26 14q0 11 30 17q36 8 45.5 21.5t12.5 51.5q5 58 5 224zM178 816q10 0 37 -22q70 -60 82 -70q17 -12 11 -22q-2 -4 -9 -4q-9 0 -28 8q-14 6 -29 13.5t-32.5 16t-27.5 13.5q-7 3 -16 -1
q-33 -15 -86 -41q-1 0 -11.5 -4.5t-15.5 -4.5q-27 0 0 24l2 2q9 8 40.5 35t45.5 38q24 19 37 19z" />
    <glyph glyph-name="Idieresis" unicode="&#xcf;" horiz-adv-x="339" 
d="M128 326q0 170 -3 219q-1 22 -2.5 30t-7 18.5t-17 14.5t-32.5 8q-28 5 -28 18q0 12 25 12q12 0 52 -1.5t57 -1.5q26 0 58.5 1.5t48.5 1.5q25 0 25 -12t-26 -17q-21 -4 -33 -10t-18 -18t-6.5 -15l-3.5 -21q-6 -40 -6 -294q0 -101 3 -149q2 -44 14.5 -60.5t58.5 -25.5
q26 -4 26 -17t-27 -13q-28 0 -83 3t-66 3q-14 0 -35.5 -1t-40.5 -1q-26 0 -26 14q0 11 30 17q36 8 45.5 21.5t12.5 51.5q5 58 5 224zM73 790q18 0 31 -14.5t13 -33.5q0 -21 -14 -32.5t-34 -11.5q-15 0 -28 12t-13 34q0 18 13 32t32 14zM274 789q17 0 29.5 -14.5t12.5 -32.5
t-13.5 -31t-31.5 -13q-17 0 -30 12.5t-13 31.5q0 21 13.5 34t32.5 13z" />
    <glyph glyph-name="Eth" unicode="&#xd0;" horiz-adv-x="755" 
d="M44 349l76 1q8 0 8 11q-1 27 -2.5 87.5t-1.5 78.5q-2 51 -11 66t-53 21q-23 4 -23 15q0 14 24 14h29q20 0 110 4.5t138 4.5q94 0 165.5 -30t111.5 -67q40 -39 65.5 -100.5t25.5 -120.5q0 -100 -49 -177.5t-111 -111.5q-97 -56 -238 -56q-90 0 -196 8q-19 1 -53 1
q-32 0 -32 15q0 11 21 15q51 6 64 25t14 80q0 30 1 83.5t1 83.5q0 11 -6 11l-73 1q-13 0 -13 15q0 22 8 22zM393 313l-176 -2q-6 0 -6 -10q3 -185 4 -205q4 -40 22 -51q14 -10 39.5 -18t43.5 -8q41 0 94 16.5t92 48.5q103 88 103 250q0 65 -29.5 128.5t-77.5 100.5
q-37 27 -94 42.5t-114 15.5q-55 0 -68 -8q-9 -6 -11 -14q-1 -5 -1.5 -45t-1 -100.5t-1.5 -93.5q0 -10 7 -10h172q16 0 16 -8q0 -10 -4 -19.5t-9 -9.5z" />
    <glyph glyph-name="Ntilde" unicode="&#xd1;" horiz-adv-x="771" 
d="M15 634q0 12 33 12q7 0 50 -1.5t72 -1.5q8 0 21 -13q40 -48 79 -99q47 -59 332 -370q4 -4 7 -0.5t3 7.5q2 13 2 284q0 48 -5 100q-1 20 -13.5 35t-49.5 26q-27 8 -27 22q0 9 26 9q12 0 40.5 -0.5t45.5 -0.5q19 0 50.5 2t43.5 2q23 0 23 -11q0 -13 -24 -20
q-35 -8 -48.5 -21.5t-15.5 -51.5q-11 -198 -11 -405q0 -24 3.5 -76t3.5 -57q0 -21 -14 -21q-10 0 -23.5 10.5t-21.5 21.5q-7 8 -27 35t-35 45q-45 54 -177.5 206.5t-179.5 208.5q-3 4 -7 3t-4 -5q0 -7 -1.5 -26.5t-2.5 -45.5t-1 -61q0 -34 -0.5 -104.5t-1 -105.5t0.5 -65
q3 -35 15 -50t48 -25q25 -6 25 -18q0 -13 -32 -13q-14 0 -51 2.5t-56 2.5q-12 0 -34.5 -1t-30.5 -1q-26 0 -26 11t20 17q29 10 39.5 15.5t19.5 24t11 54.5q19 308 19 404q0 38 -7 48q-18 22 -31.5 29t-43.5 15q-6 1 -9 2q-22 6 -22 16zM280 723q17 26 33 47q7 9 25 9
q124 0 141 4q15 4 32 30q7 7 9 7q8 0 15 -14q4 -8 -3 -15q-6 -6 -26 -32t-25 -31q-6 -6 -14 -6q-139 0 -146 -2q-10 -3 -28 -27q-4 -7 -9 -7q-7 0 -11 5t-4 8q0 6 11 24z" />
    <glyph glyph-name="Ograve" unicode="&#xd2;" horiz-adv-x="781" 
d="M385 661q145 0 246 -95t101 -236q0 -98 -40.5 -172t-101.5 -118q-83 -58 -197 -58q-76 0 -145 30.5t-115 83.5q-83 92 -83 226q0 165 130 269q37 30 95 50t110 20zM363 628q-33 0 -73 -16t-65 -41q-78 -76 -78 -235q0 -119 78 -219.5t192 -100.5q88 0 132 48
q35 31 60 92.5t25 143.5q0 81 -32.5 155t-88.5 119q-30 24 -72.5 39t-77.5 15zM301 840q6 0 39 -24q31 -22 105 -82q14 -14 10 -21q-10 -12 -33 0q-96 43 -140 71q-19 11 -19 21t18 23q12 12 20 12z" />
    <glyph glyph-name="Oacute" unicode="&#xd3;" horiz-adv-x="781" 
d="M385 661q145 0 246 -95t101 -236q0 -98 -40.5 -172t-101.5 -118q-83 -58 -197 -58q-76 0 -145 30.5t-115 83.5q-83 92 -83 226q0 165 130 269q37 30 95 50t110 20zM363 628q-33 0 -73 -16t-65 -41q-78 -76 -78 -235q0 -119 78 -219.5t192 -100.5q88 0 132 48
q35 31 60 92.5t25 143.5q0 81 -32.5 155t-88.5 119q-30 24 -72.5 39t-77.5 15zM476 834q15 10 28 5q9 -4 19 -13.5t10 -18.5q0 -14 -20 -26q-89 -49 -150 -72q-24 -10 -34 0q-1 0 -1 3t3 9t10 12q59 50 135 101z" />
    <glyph glyph-name="Ocircumflex" unicode="&#xd4;" horiz-adv-x="781" 
d="M385 661q145 0 246 -95t101 -236q0 -98 -40.5 -172t-101.5 -118q-83 -58 -197 -58q-76 0 -145 30.5t-115 83.5q-83 92 -83 226q0 165 130 269q37 30 95 50t110 20zM363 628q-33 0 -73 -16t-65 -41q-78 -76 -78 -235q0 -119 78 -219.5t192 -100.5q88 0 132 48
q35 31 60 92.5t25 143.5q0 81 -32.5 155t-88.5 119q-30 24 -72.5 39t-77.5 15zM398 823q10 0 37 -22q70 -60 82 -70q17 -12 11 -22q-2 -4 -9 -4q-9 0 -28 8q-14 6 -29 13.5t-32.5 16t-27.5 13.5q-7 4 -16 -1q-33 -15 -86 -41q-1 0 -11.5 -4.5t-15.5 -4.5q-27 0 0 24l2 2
q9 8 40.5 35t45.5 38q24 19 37 19z" />
    <glyph glyph-name="Otilde" unicode="&#xd5;" horiz-adv-x="781" 
d="M385 661q145 0 246 -95t101 -236q0 -98 -40.5 -172t-101.5 -118q-83 -58 -197 -58q-76 0 -145 30.5t-115 83.5q-83 92 -83 226q0 165 130 269q37 30 95 50t110 20zM363 628q-33 0 -73 -16t-65 -41q-78 -76 -78 -235q0 -119 78 -219.5t192 -100.5q88 0 132 48
q35 31 60 92.5t25 143.5q0 81 -32.5 155t-88.5 119q-30 24 -72.5 39t-77.5 15zM267 742q17 26 33 47q8 9 25 9q124 0 141 4q15 4 32 30q7 7 9 7q8 0 15 -14q4 -8 -3 -15q-6 -6 -26 -32t-25 -31q-6 -6 -14 -6q-138 0 -146 -2q-10 -3 -28 -27q-4 -7 -9 -7q-7 0 -11 5t-4 8
q0 6 11 24z" />
    <glyph glyph-name="Odieresis" unicode="&#xd6;" horiz-adv-x="781" 
d="M385 661q145 0 246 -95t101 -236q0 -98 -40.5 -172t-101.5 -118q-83 -58 -197 -58q-76 0 -145 30.5t-115 83.5q-83 92 -83 226q0 165 130 269q37 30 95 50t110 20zM363 628q-33 0 -73 -16t-65 -41q-78 -76 -78 -235q0 -119 78 -219.5t192 -100.5q88 0 132 48
q35 31 60 92.5t25 143.5q0 81 -32.5 155t-88.5 119q-30 24 -72.5 39t-77.5 15zM294 800q18 0 31 -14.5t13 -33.5q0 -21 -14 -32.5t-34 -11.5q-15 0 -28 12t-13 34q0 18 13 32t32 14zM495 799q17 0 29.5 -14.5t12.5 -32.5t-13.5 -31t-31.5 -13q-17 0 -30 12.5t-13 31.5
q0 21 13.5 34t32.5 13z" />
    <glyph glyph-name="multiply" unicode="&#xd7;" horiz-adv-x="624" 
d="M93 427q-7 6 22 35q13 14 28 -1l161 -162q9 -8 18 -1l164 169q10 11 18 2q28 -27 18 -37l-166 -170q-3 -4 -2 -10.5t4 -9.5l167 -166q14 -16 -16 -46q-9 -9 -20 2l-171 172q-8 8 -12 8t-11 -8l-157 -159q-10 -9 -14.5 -10t-11.5 5q-8 7 -13.5 20t-1.5 17l164 165
q9 9 0 17z" />
    <glyph glyph-name="Oslash" unicode="&#xd8;" horiz-adv-x="781" 
d="M385 661q107 0 197 -57q4 -2 10 4q5 6 15 19.5t14 17.5q11 14 16 14q10 0 17 -12q2 -1 2.5 -5.5t-1.5 -5.5q-4 -5 -38 -51q-3 -3 0 -6q55 -47 85 -113t30 -137q0 -97 -41 -171t-103 -118q-83 -58 -197 -58q-100 0 -184 53q-9 3 -12 -1q-8 -10 -18 -22t-17 -20.5
t-14 -17.5q-2 -4 -11.5 -3t-13.5 5t-5 10.5t1 8.5q8 11 22.5 30t24.5 32q3 5 -2 10q-112 101 -112 254q0 166 128 267q37 31 96.5 52t110.5 21zM360 626q-33 0 -70.5 -15t-62.5 -40q-78 -73 -78 -234q0 -113 67 -207q3 -4 7 1q60 78 176.5 228t144.5 186q3 5 0 8
q-78 73 -184 73zM413 15q80 0 133 46q35 33 61.5 95.5t26.5 144.5q0 53 -17.5 111t-45.5 102q-4 7 -8 1q-137 -186 -318 -414q-1 -1 -1 -4t1 -5q32 -32 79.5 -54.5t88.5 -22.5z" />
    <glyph glyph-name="Ugrave" unicode="&#xd9;" horiz-adv-x="762" 
d="M37 634q0 12 29 12q22 0 53.5 -1.5t49.5 -1.5q20 0 54 1t43 1q31 0 31 -11q0 -13 -30 -19q-29 -6 -43 -17.5t-18 -39.5q-4 -26 -4 -279q0 -77 14.5 -118.5t41.5 -72.5q21 -23 63.5 -39t81.5 -16q60 0 115 33t72 107q22 97 22 251q0 81 -4 129q-2 30 -14 43t-52 22
q-8 2 -14.5 7.5t-6.5 10.5q0 10 23 10q12 0 40 -1.5t45 -1.5q22 0 50 1t40 1q25 0 25 -11q0 -10 -22 -18q-34 -10 -49 -28.5t-16 -63.5q-1 -24 -4.5 -106t-4.5 -100q-7 -236 -125 -302q-57 -32 -144 -32q-60 0 -109 19t-72 40q-43 41 -61.5 106t-18.5 188q0 185 -4 237
q-3 32 -54 43q-23 6 -23 17zM297 826q6 0 39 -24q31 -22 105 -82q14 -14 10 -21q-10 -12 -33 0q-96 43 -140 71q-19 11 -19 21t18 23q12 12 20 12z" />
    <glyph glyph-name="Uacute" unicode="&#xda;" horiz-adv-x="762" 
d="M37 634q0 12 29 12q22 0 53.5 -1.5t49.5 -1.5q20 0 54 1t43 1q31 0 31 -11q0 -13 -30 -19q-29 -6 -43 -17.5t-18 -39.5q-4 -26 -4 -279q0 -77 14.5 -118.5t41.5 -72.5q21 -23 63.5 -39t81.5 -16q60 0 115 33t72 107q22 97 22 251q0 81 -4 129q-2 30 -14 43t-52 22
q-8 2 -14.5 7.5t-6.5 10.5q0 10 23 10q12 0 40 -1.5t45 -1.5q22 0 50 1t40 1q25 0 25 -11q0 -10 -22 -18q-34 -10 -49 -28.5t-16 -63.5q-1 -24 -4.5 -106t-4.5 -100q-7 -236 -125 -302q-57 -32 -144 -32q-60 0 -109 19t-72 40q-43 41 -61.5 106t-18.5 188q0 185 -4 237
q-3 32 -54 43q-23 6 -23 17zM498 817q15 10 28 5q9 -4 19 -13.5t10 -18.5q0 -14 -20 -26q-89 -49 -150 -72q-24 -10 -34 0q-1 0 -1 3t3 9t10 12q59 50 135 101z" />
    <glyph glyph-name="Ucircumflex" unicode="&#xdb;" horiz-adv-x="762" 
d="M37 634q0 12 29 12q22 0 53.5 -1.5t49.5 -1.5q20 0 54 1t43 1q31 0 31 -11q0 -13 -30 -19q-29 -6 -43 -17.5t-18 -39.5q-4 -26 -4 -279q0 -77 14.5 -118.5t41.5 -72.5q21 -23 63.5 -39t81.5 -16q60 0 115 33t72 107q22 97 22 251q0 81 -4 129q-2 30 -14 43t-52 22
q-8 2 -14.5 7.5t-6.5 10.5q0 10 23 10q12 0 40 -1.5t45 -1.5q22 0 50 1t40 1q25 0 25 -11q0 -10 -22 -18q-34 -10 -49 -28.5t-16 -63.5q-1 -24 -4.5 -106t-4.5 -100q-7 -236 -125 -302q-57 -32 -144 -32q-60 0 -109 19t-72 40q-43 41 -61.5 106t-18.5 188q0 185 -4 237
q-3 32 -54 43q-23 6 -23 17zM405 816q10 0 37 -22q70 -60 82 -70q17 -12 11 -22q-2 -4 -9 -4q-9 0 -28 8q-14 6 -29 13.5t-32.5 16t-27.5 13.5q-7 3 -16 -1q-33 -15 -86 -41q-1 0 -11.5 -4.5t-15.5 -4.5q-27 0 0 24l2 2q9 8 40.5 35t45.5 38q24 19 37 19z" />
    <glyph glyph-name="Udieresis" unicode="&#xdc;" horiz-adv-x="762" 
d="M37 634q0 12 29 12q22 0 53.5 -1.5t49.5 -1.5q20 0 54 1t43 1q31 0 31 -11q0 -13 -30 -19q-29 -6 -43 -17.5t-18 -39.5q-4 -26 -4 -279q0 -77 14.5 -118.5t41.5 -72.5q21 -23 63.5 -39t81.5 -16q60 0 115 33t72 107q22 97 22 251q0 81 -4 129q-2 30 -14 43t-52 22
q-8 2 -14.5 7.5t-6.5 10.5q0 10 23 10q12 0 40 -1.5t45 -1.5q22 0 50 1t40 1q25 0 25 -11q0 -10 -22 -18q-34 -10 -49 -28.5t-16 -63.5q-1 -24 -4.5 -106t-4.5 -100q-7 -236 -125 -302q-57 -32 -144 -32q-60 0 -109 19t-72 40q-43 41 -61.5 106t-18.5 188q0 185 -4 237
q-3 32 -54 43q-23 6 -23 17zM307 789q18 0 31 -14.5t13 -33.5q0 -21 -14 -32.5t-34 -11.5q-15 0 -28 12t-13 34q0 18 13 32t32 14zM508 788q17 0 29.5 -14.5t12.5 -32.5t-13.5 -31t-31.5 -13q-17 0 -30 12.5t-13 31.5q0 21 13.5 34t32.5 13z" />
    <glyph glyph-name="Yacute" unicode="&#xdd;" horiz-adv-x="622" 
d="M3 637q0 11 27 11q4 0 45 -2.5t69 -2.5q12 0 33 1t43 1t22 -11q0 -13 -22 -19q-25 -6 -26.5 -16.5t11.5 -29.5q22 -42 131 -219q1 -2 5 -1.5t5 3.5q26 38 129 206q15 27 8 38.5t-37 18.5q-21 6 -21 20q0 9 23 9q13 0 33.5 -0.5t31.5 -0.5q21 0 63.5 2t47.5 2q21 0 21 -10
t-26 -18q-58 -15 -109 -78q-28 -35 -78.5 -113t-54.5 -83q-25 -36 -25 -61q0 -164 6 -212q3 -17 17 -27t54 -20q27 -7 27 -18t-30 -11q-6 0 -40 2t-47 2q-36 0 -87 -3t-53 -3q-25 0 -25 11q0 13 28 18q63 14 65 48q3 41 3 207q0 12 -9 36q-28 60 -127 210q-36 54 -53.5 70.5
t-49.5 23.5q-28 6 -28 19zM433 815q15 10 28 5q9 -4 19 -13.5t10 -18.5q0 -14 -20 -26q-89 -49 -150 -72q-24 -10 -34 0q-1 0 -1 3t3 9t10 12q59 50 135 101z" />
    <glyph glyph-name="Thorn" unicode="&#xde;" horiz-adv-x="549" 
d="M123 139q4 55 4 395q0 14 -1 24.5t-1.5 18t-4 13t-4.5 8.5t-8.5 6t-9.5 4t-13 4.5t-15 4.5q-20 6 -20 16q0 12 24 12q14 0 48.5 -1t46.5 -1q10 0 46 1t54 1q25 0 25 -13q0 -10 -26 -17q-42 -10 -49.5 -22t-7.5 -74q0 -3 2.5 -6t4.5 -3t32 1.5t51 1.5q85 0 146.5 -43.5
t61.5 -134.5q0 -87 -61 -138.5t-150 -51.5q-49 0 -79 11q-8 2 -8 -5q0 -65 5.5 -83.5t21.5 -25.5q24 -9 51 -14q8 -1 15.5 -5.5t7.5 -10.5q0 -15 -32 -15q-8 0 -49.5 1.5t-66.5 1.5q-18 0 -54 -1.5t-50 -1.5q-23 0 -23 13q0 12 22 18q43 12 51.5 26.5t12.5 84.5zM420 327
q0 81 -46 117.5t-111 36.5q-41 0 -47 -15q-5 -17 -5 -33v-227q0 -14 10 -17q28 -8 53 -8q56 0 101 39.5t45 106.5z" />
    <glyph glyph-name="germandbls" unicode="&#xdf;" horiz-adv-x="502" 
d="M315 714q70 0 106 -45.5t36 -96.5q0 -10 -0.5 -19t-2.5 -17l-3.5 -14t-5 -12.5t-5 -10t-6.5 -9.5t-6.5 -7.5t-7.5 -8t-7 -7.5q-5 -6 -64 -60q-1 -1 -7 -6.5t-7.5 -7.5t-6.5 -7t-6.5 -7t-5 -7t-4.5 -8.5t-2 -8t-1 -9.5q0 -22 25 -38q60 -44 86 -65q18 -15 26.5 -24.5
t16.5 -29.5t8 -46q0 -46 -30.5 -83t-76.5 -57q-35 -15 -62 -15q-10 0 -21 2.5t-23 13t-12 26.5q0 8 5.5 20.5t10.5 17.5q14 9 20 4q15 -12 37.5 -21t34.5 -9q32 0 48 16t16 40q0 19 -6 33.5t-27 32t-31 24.5t-48 32q-62 39 -62 98q0 24 19 45q30 30 62 60q41 38 57 71.5
t16 74.5q0 38 -28.5 72t-79.5 34t-74.5 -29.5t-37.5 -92.5q-12 -54 -12 -290q0 -149 5 -204q1 -14 8.5 -21t22.5 -12q24 -9 24 -16q0 -12 -28 -12q-4 0 -27 1t-43 1q-12 0 -41 -2t-36 -2q-25 0 -25 10t26 17q21 7 28 15t10 21q4 20 4 171q0 30 -0.5 61.5t-0.5 33.5
q0 15 -14 17q-4 1 -16.5 2.5t-16.5 2.5t-4.5 9.5t3.5 12.5t10 8t14 9t13 9q12 10 12 20q0 147 77 232q63 67 144 67z" />
    <glyph glyph-name="agrave" unicode="&#xe0;" horiz-adv-x="397" 
d="M134 652q11 0 26 -35q40 -83 61 -146q8 -25 -4 -25t-23 16q-50 65 -93 140q-9 15 -9 27q0 11 16 17q12 6 26 6zM208 404q58 0 90 -47q20 -28 20 -83q0 -23 -2 -98.5t-2 -77.5q0 -21 9 -33t16.5 -14.5t14.5 -2.5q17 0 38 15q3 2 6 -3q3 -3 3 -10q0 -16 -29.5 -39
t-60.5 -23q-48 0 -64 50q0 1 -2.5 3t-3.5 1q-47 -33 -90 -46q-17 -6 -40 -6q-27 0 -48 28t-21 65q0 27 19 51q8 10 40 25q9 3 59.5 18t57.5 17q29 9 29 18q2 18 2 82q0 22 -22 44.5t-56 22.5q-26 0 -41 -11q-11 -5 -7 -41q0 -5 -6 -11q-7 -6 -34 -19.5t-31 -13.5t-8 4.5
t-4 8.5q0 39 75 88q21 15 49.5 26.5t43.5 11.5zM178 42q22 0 54 17q4 3 8 12.5t4 12.5q2 24 2 78q0 8 -8 8q-41 0 -103 -30q-20 -14 -20 -38q0 -29 21 -44.5t42 -15.5z" />
    <glyph glyph-name="aacute" unicode="&#xe1;" horiz-adv-x="397" 
d="M235 625q11 21 24 21q31 0 38 -8q5 -7 -5 -27q-39 -74 -89 -148q-13 -19 -26 -19q-12 0 -4 27q21 64 62 154zM208 404q58 0 90 -47q20 -28 20 -83q0 -23 -2 -98.5t-2 -77.5q0 -21 9 -33t16.5 -14.5t14.5 -2.5q17 0 38 15q3 2 6 -3q3 -3 3 -10q0 -16 -29.5 -39t-60.5 -23
q-48 0 -64 50q0 1 -2.5 3t-3.5 1q-47 -33 -90 -46q-17 -6 -40 -6q-27 0 -48 28t-21 65q0 27 19 51q8 10 40 25q9 3 59.5 18t57.5 17q29 9 29 18q2 18 2 82q0 22 -22 44.5t-56 22.5q-26 0 -41 -11q-11 -5 -7 -41q0 -5 -6 -11q-7 -6 -34 -19.5t-31 -13.5t-8 4.5t-4 8.5
q0 39 75 88q21 15 49.5 26.5t43.5 11.5zM178 42q22 0 54 17q4 3 8 12.5t4 12.5q2 24 2 78q0 8 -8 8q-41 0 -103 -30q-20 -14 -20 -38q0 -29 21 -44.5t42 -15.5z" />
    <glyph glyph-name="acircumflex" unicode="&#xe2;" horiz-adv-x="397" 
d="M190 637q9 0 28 -38q32 -58 66 -125q15 -34 -2 -34q-10 0 -24 19q-7 11 -32 44.5t-34 47.5q-4 8 -9 1q-37 -57 -67 -95q-10 -15 -21 -15q-5 0 -6.5 7.5t1.5 15.5q14 33 72 139q18 33 28 33zM208 404q58 0 90 -47q20 -28 20 -83q0 -23 -2 -98.5t-2 -77.5q0 -21 9 -33
t16.5 -14.5t14.5 -2.5q17 0 38 15q3 2 6 -3q3 -3 3 -10q0 -16 -29.5 -39t-60.5 -23q-48 0 -64 50q0 1 -2.5 3t-3.5 1q-47 -33 -90 -46q-17 -6 -40 -6q-27 0 -48 28t-21 65q0 27 19 51q8 10 40 25q9 3 59.5 18t57.5 17q29 9 29 18q2 18 2 82q0 22 -22 44.5t-56 22.5
q-26 0 -41 -11q-11 -5 -7 -41q0 -5 -6 -11q-7 -6 -34 -19.5t-31 -13.5t-8 4.5t-4 8.5q0 39 75 88q21 15 49.5 26.5t43.5 11.5zM178 42q22 0 54 17q4 3 8 12.5t4 12.5q2 24 2 78q0 8 -8 8q-41 0 -103 -30q-20 -14 -20 -38q0 -29 21 -44.5t42 -15.5z" />
    <glyph glyph-name="atilde" unicode="&#xe3;" horiz-adv-x="397" 
d="M124 512q-9 0 -30 -23q-5 -6 -10 -6q-2 0 -7.5 7t-5.5 9q0 1 8 12t24 27.5t32 26.5q7 6 15 4q33 -9 95 -9q21 0 29 6q12 9 25 25q3 3 12 -3.5t9 -10.5t-3 -6l-62 -62q-6 -7 -11 -7q-4 0 -50.5 5t-69.5 5zM208 404q58 0 90 -47q20 -28 20 -83q0 -23 -2 -98.5t-2 -77.5
q0 -21 9 -33t16.5 -14.5t14.5 -2.5q17 0 38 15q3 2 6 -3q3 -3 3 -10q0 -16 -29.5 -39t-60.5 -23q-48 0 -64 50q0 1 -2.5 3t-3.5 1q-47 -33 -90 -46q-17 -6 -40 -6q-27 0 -48 28t-21 65q0 27 19 51q8 10 40 25q9 3 59.5 18t57.5 17q29 9 29 18q2 18 2 82q0 22 -22 44.5
t-56 22.5q-26 0 -41 -11q-11 -5 -7 -41q0 -5 -6 -11q-7 -6 -34 -19.5t-31 -13.5t-8 4.5t-4 8.5q0 39 75 88q21 15 49.5 26.5t43.5 11.5zM178 42q22 0 54 17q4 3 8 12.5t4 12.5q2 24 2 78q0 8 -8 8q-41 0 -103 -30q-20 -14 -20 -38q0 -29 21 -44.5t42 -15.5z" />
    <glyph glyph-name="adieresis" unicode="&#xe4;" horiz-adv-x="397" 
d="M107 600q17 0 29 -14t12 -32q0 -21 -13 -32.5t-30 -11.5q-15 0 -28.5 12t-13.5 31t12.5 33t31.5 14zM276 599q17 0 30 -14t13 -31q0 -18 -13.5 -31t-31.5 -13q-17 0 -30 12.5t-13 30.5q0 21 14 33.5t31 12.5zM208 404q58 0 90 -47q20 -28 20 -83q0 -23 -2 -98.5t-2 -77.5
q0 -21 9 -33t16.5 -14.5t14.5 -2.5q17 0 38 15q3 2 6 -3q3 -3 3 -10q0 -16 -29.5 -39t-60.5 -23q-48 0 -64 50q0 1 -2.5 3t-3.5 1q-47 -33 -90 -46q-17 -6 -40 -6q-27 0 -48 28t-21 65q0 27 19 51q8 10 40 25q9 3 59.5 18t57.5 17q29 9 29 18q2 18 2 82q0 22 -22 44.5
t-56 22.5q-26 0 -41 -11q-11 -5 -7 -41q0 -5 -6 -11q-7 -6 -34 -19.5t-31 -13.5t-8 4.5t-4 8.5q0 39 75 88q21 15 49.5 26.5t43.5 11.5zM178 42q22 0 54 17q4 3 8 12.5t4 12.5q2 24 2 78q0 8 -8 8q-41 0 -103 -30q-20 -14 -20 -38q0 -29 21 -44.5t42 -15.5z" />
    <glyph glyph-name="aring" unicode="&#xe5;" horiz-adv-x="397" 
d="M188 629q36 0 58.5 -24t22.5 -57t-22.5 -57.5t-58.5 -24.5t-58.5 24.5t-22.5 57.5t22.5 57t58.5 24zM187 599q-19 0 -31.5 -15t-12.5 -36q0 -24 13 -38t32 -14q20 0 32.5 14t12.5 40q0 20 -13.5 34.5t-32.5 14.5zM208 404q58 0 90 -47q20 -28 20 -83q0 -23 -2 -98.5
t-2 -77.5q0 -21 9 -33t16.5 -14.5t14.5 -2.5q17 0 38 15q3 2 6 -3q3 -3 3 -10q0 -16 -29.5 -39t-60.5 -23q-48 0 -64 50q0 1 -2.5 3t-3.5 1q-47 -33 -90 -46q-17 -6 -40 -6q-27 0 -48 28t-21 65q0 27 19 51q8 10 40 25q9 3 59.5 18t57.5 17q29 9 29 18q2 18 2 82
q0 22 -22 44.5t-56 22.5q-26 0 -41 -11q-11 -5 -7 -41q0 -5 -6 -11q-7 -6 -34 -19.5t-31 -13.5t-8 4.5t-4 8.5q0 39 75 88q21 15 49.5 26.5t43.5 11.5zM178 42q22 0 54 17q4 3 8 12.5t4 12.5q2 24 2 78q0 8 -8 8q-41 0 -103 -30q-20 -14 -20 -38q0 -29 21 -44.5t42 -15.5z
" />
    <glyph glyph-name="ae" unicode="&#xe6;" horiz-adv-x="562" 
d="M40 279q0 22 31 49q50 41 99 67q21 11 45 11q51 0 88 -51q4 -4 8 0q69 51 119 51q51 0 79.5 -35t28.5 -76q0 -6 -5.5 -13.5t-12.5 -9.5q-108 -30 -192 -56q-9 -4 -9 -12q0 -68 3 -89t15 -36q23 -30 84 -30q20 0 38.5 5.5t28.5 11.5t22 14.5t15 10.5q5 3 10 2.5t5 -3.5
q0 -14 -7 -24q-21 -32 -63 -55t-89 -23q-78 0 -116 58q-6 6 -9 3q-84 -61 -122 -61q-32 0 -61 29t-29 72q0 54 64 76q16 5 57.5 20.5t59.5 20.5q16 5 20 9t4 12v29.5t0.5 23.5t0.5 17.5t-0.5 14t-1.5 9.5t-2.5 8t-4.5 6q-27 25 -66 25q-23 0 -37 -12q-9 -7 -8 -19
q1 -21 -3 -25q-56 -38 -75 -38q-4 0 -8 4t-4 9zM394 365q-33 0 -63 -27q-12 -10 -12 -32v-60q0 -2 3.5 -3.5t4.5 -0.5q78 19 111 35q24 10 24 33q0 9 -3.5 19.5t-20 23t-44.5 12.5zM179 42q16 0 37 10.5t29 25.5q4 11 4 28v70q0 1 -1.5 2.5t-4.5 2.5t-8 0q-66 -22 -91 -36.5
t-25 -41.5t17.5 -44t42.5 -17z" />
    <glyph glyph-name="ccedilla" unicode="&#xe7;" horiz-adv-x="392" 
d="M255 404q72 0 105 -25q14 -10 14 -31q0 -9 -12 -22.5t-23 -13.5q-4 0 -8 2t-7.5 4.5t-12 9t-15.5 11.5q-25 18 -40 23t-39 5q-16 0 -35 -10t-30 -24q-42 -50 -42 -118q0 -76 43.5 -120.5t109.5 -44.5q57 0 95 34q4 4 8 2.5t4 -8.5q0 -19 -13 -30q-40 -41 -97 -54
q-7 -10 -15 -20t-12.5 -16t-5.5 -7q-3 -6 6 -12q22 -11 33 -18t21 -22t10 -35q0 -42 -49 -82q-40 -31 -69 -31q-16 0 -24 14q-7 15 -1 30q7 9 14 8q30 -6 40 -6q17 0 26.5 11.5t9.5 26.5q0 20 -17 33.5t-39 13.5q-10 0 -17 -1q-4 0 -9.5 5.5t-5.5 9.5q0 5 6 13q22 30 63 79
h-9q-98 0 -154 81q-30 51 -30 115q0 111 99 178q27 20 62.5 31t61.5 11z" />
    <glyph glyph-name="egrave" unicode="&#xe8;" horiz-adv-x="392" 
d="M157 652q11 0 26 -35q40 -83 61 -146q8 -25 -4 -25t-23 16q-50 65 -93 140q-9 15 -9 27q0 11 16 17q12 6 26 6zM229 403q61 0 99 -38q35 -33 35 -84q0 -5 -5.5 -11t-13.5 -6q-182 0 -228 1q-5 0 -8 -8q-5 -13 -5 -35q0 -64 38 -114q17 -24 47.5 -39.5t64.5 -15.5
q67 0 91 36q8 12 13 12q8 0 8 -12t-7 -24q-51 -75 -145 -75q-81 0 -130.5 55.5t-49.5 143.5q0 62 31.5 116t88.5 80q39 18 76 18zM219 377q-34 0 -60.5 -19.5t-40.5 -54.5q-1 -3 0.5 -7t3.5 -4q44 -2 129 0q19 0 26.5 5t7.5 20q0 22 -20 41t-46 19z" />
    <glyph glyph-name="eacute" unicode="&#xe9;" horiz-adv-x="392" 
d="M252 625q10 21 24 21q31 0 38 -8q5 -7 -5 -27q-39 -74 -89 -148q-13 -19 -26 -19q-12 0 -4 27q21 64 62 154zM229 403q61 0 99 -38q35 -33 35 -84q0 -5 -5.5 -11t-13.5 -6q-182 0 -228 1q-5 0 -8 -8q-5 -13 -5 -35q0 -64 38 -114q17 -24 47.5 -39.5t64.5 -15.5
q67 0 91 36q8 12 13 12q8 0 8 -12t-7 -24q-51 -75 -145 -75q-81 0 -130.5 55.5t-49.5 143.5q0 62 31.5 116t88.5 80q39 18 76 18zM219 377q-34 0 -60.5 -19.5t-40.5 -54.5q-1 -3 0.5 -7t3.5 -4q44 -2 129 0q19 0 26.5 5t7.5 20q0 22 -20 41t-46 19z" />
    <glyph glyph-name="ecircumflex" unicode="&#xea;" horiz-adv-x="392" 
d="M211 641q9 0 28 -38q32 -58 66 -125q15 -34 -2 -34q-10 0 -24 19q-7 11 -32 44.5t-34 47.5q-4 8 -9 1q-37 -57 -67 -95q-10 -15 -21 -15q-5 0 -6.5 7.5t1.5 15.5q14 33 72 139q18 33 28 33zM229 403q61 0 99 -38q35 -33 35 -84q0 -5 -5.5 -11t-13.5 -6q-182 0 -228 1
q-5 0 -8 -8q-5 -13 -5 -35q0 -64 38 -114q17 -24 47.5 -39.5t64.5 -15.5q67 0 91 36q8 12 13 12q8 0 8 -12t-7 -24q-51 -75 -145 -75q-81 0 -130.5 55.5t-49.5 143.5q0 62 31.5 116t88.5 80q39 18 76 18zM219 377q-34 0 -60.5 -19.5t-40.5 -54.5q-1 -3 0.5 -7t3.5 -4
q44 -2 129 0q19 0 26.5 5t7.5 20q0 22 -20 41t-46 19z" />
    <glyph glyph-name="edieresis" unicode="&#xeb;" horiz-adv-x="392" 
d="M130 600q17 0 29 -14t12 -32q0 -21 -13 -32.5t-30 -11.5q-15 0 -28.5 12t-13.5 31t12.5 33t31.5 14zM299 599q17 0 30 -14t13 -31q0 -18 -13.5 -31t-31.5 -13q-17 0 -30 12.5t-13 30.5q0 21 14 33.5t31 12.5zM229 403q61 0 99 -38q35 -33 35 -84q0 -5 -5.5 -11t-13.5 -6
q-182 0 -228 1q-5 0 -8 -8q-5 -13 -5 -35q0 -64 38 -114q17 -24 47.5 -39.5t64.5 -15.5q67 0 91 36q8 12 13 12q8 0 8 -12t-7 -24q-51 -75 -145 -75q-81 0 -130.5 55.5t-49.5 143.5q0 62 31.5 116t88.5 80q39 18 76 18zM219 377q-34 0 -60.5 -19.5t-40.5 -54.5q-1 -3 0.5 -7
t3.5 -4q44 -2 129 0q19 0 26.5 5t7.5 20q0 22 -20 41t-46 19z" />
    <glyph glyph-name="igrave" unicode="&#xec;" horiz-adv-x="253" 
d="M60 652q11 0 26 -35q40 -83 61 -146q8 -25 -4 -25t-23 16q-50 65 -93 140q-9 15 -9 27q0 11 16 17q12 6 26 6zM45 359q0 11 20 15q22 5 59 19t40 15q3 0 6 -5t3 -6q0 -3 -1.5 -41t-3 -85t-1.5 -72q0 -63 2 -133q0 -8 2.5 -14t4.5 -9.5t8.5 -7t8.5 -4.5t12 -3.5t12 -3.5
q22 -7 22 -17t-23 -10q-2 0 -34 1.5t-44 1.5q-18 0 -48 -2t-37 -2q-26 0 -26 11q0 9 24 16q36 9 40 28t4 103q0 150 -1 156q-1 9 -39 36q-10 6 -10 13z" />
    <glyph glyph-name="iacute" unicode="&#xed;" horiz-adv-x="253" 
d="M162 625q10 21 24 21q31 0 38 -8q5 -7 -5 -27q-39 -74 -89 -148q-13 -19 -26 -19q-12 0 -4 27q21 64 62 154zM45 359q0 11 20 15q22 5 59 19t40 15q3 0 6 -5t3 -6q0 -3 -1.5 -41t-3 -85t-1.5 -72q0 -63 2 -133q0 -8 2.5 -14t4.5 -9.5t8.5 -7t8.5 -4.5t12 -3.5t12 -3.5
q22 -7 22 -17t-23 -10q-2 0 -34 1.5t-44 1.5q-18 0 -48 -2t-37 -2q-26 0 -26 11q0 9 24 16q36 9 40 28t4 103q0 150 -1 156q-1 9 -39 36q-10 6 -10 13z" />
    <glyph glyph-name="icircumflex" unicode="&#xee;" horiz-adv-x="253" 
d="M129 641q9 0 28 -38q32 -58 66 -125q15 -34 -2 -34q-10 0 -24 19q-7 11 -32 44.5t-34 47.5q-4 8 -9 1q-37 -57 -67 -95q-10 -15 -21 -15q-5 0 -6.5 7.5t1.5 15.5q14 33 72 139q18 33 28 33zM45 359q0 11 20 15q22 5 59 19t40 15q3 0 6 -5t3 -6q0 -3 -1.5 -41t-3 -85
t-1.5 -72q0 -63 2 -133q0 -8 2.5 -14t4.5 -9.5t8.5 -7t8.5 -4.5t12 -3.5t12 -3.5q22 -7 22 -17t-23 -10q-2 0 -34 1.5t-44 1.5q-18 0 -48 -2t-37 -2q-26 0 -26 11q0 9 24 16q36 9 40 28t4 103q0 150 -1 156q-1 9 -39 36q-10 6 -10 13z" />
    <glyph glyph-name="idieresis" unicode="&#xef;" horiz-adv-x="253" 
d="M46 600q17 0 29 -14t12 -32q0 -21 -13 -32.5t-30 -11.5q-15 0 -28.5 12t-13.5 31t12.5 33t31.5 14zM215 599q17 0 30 -14t13 -31q0 -18 -13.5 -31t-31.5 -13q-17 0 -30 12.5t-13 30.5q0 21 14 33.5t31 12.5zM45 359q0 11 20 15q22 5 59 19t40 15q3 0 6 -5t3 -6
q0 -3 -1.5 -41t-3 -85t-1.5 -72q0 -63 2 -133q0 -8 2.5 -14t4.5 -9.5t8.5 -7t8.5 -4.5t12 -3.5t12 -3.5q22 -7 22 -17t-23 -10q-2 0 -34 1.5t-44 1.5q-18 0 -48 -2t-37 -2q-26 0 -26 11q0 9 24 16q36 9 40 28t4 103q0 150 -1 156q-1 9 -39 36q-10 6 -10 13z" />
    <glyph glyph-name="eth" unicode="&#xf0;" horiz-adv-x="480" 
d="M64 700q0 5 5.5 9.5t13.5 4.5q43 0 105.5 -30t109.5 -70q2 -2 6.5 -2.5t6.5 1.5q16 8 49.5 26t51.5 27q2 2 6 -0.5t4 -6.5q2 -13 -1 -21t-13 -14q-54 -28 -71 -38q-7 -4 -1 -10q103 -127 103 -318q0 -161 -95 -233q-50 -37 -107 -37q-86 0 -145.5 58.5t-59.5 149.5
q0 61 35 115q27 41 79.5 67.5t113.5 26.5q39 0 76 -16q4 -2 7.5 0t2.5 6q-16 85 -64 149q-6 8 -13 4q-98 -46 -129 -61q-4 -2 -8 0t-4 6q-1 10 0 17q2 5 8 9q9 5 108 56q5 3 3 8q-36 37 -82 65t-84 38q-17 3 -17 14zM241 371q-57 0 -88 -47q-35 -51 -35 -126
q0 -63 38 -120.5t97 -57.5q44 0 78 59q30 55 30 143q0 71 -28 103q-44 46 -92 46z" />
    <glyph glyph-name="ntilde" unicode="&#xf1;" horiz-adv-x="521" 
d="M189 513q-9 0 -30 -23q-5 -6 -10 -6q-2 0 -7.5 7t-5.5 9q0 1 8 12t24 27.5t32 26.5q7 6 15 4q33 -9 95 -9q21 0 29 6q12 9 25 25q3 3 12 -3.5t9 -10.5t-3 -6l-62 -62q-6 -7 -11 -7t-51 5t-69 5zM53 356q0 12 18 20q52 18 67 29q18 11 24 11q3 0 6.5 -5.5t3.5 -9.5
q0 -9 -2 -28t-2 -22t6 -3q81 55 134 55q58 0 91 -38q35 -41 35 -122q0 -140 3 -182q3 -26 37 -35q25 -7 25 -17q0 -11 -30 -11q-11 0 -35 1t-39 1q-14 0 -39 -1t-30 -1q-23 0 -23 12q0 9 23 17q18 7 24 16t7 34q3 49 3 183q0 25 -9.5 45.5t-20.5 28.5q-26 19 -64 19
q-53 0 -89 -32q-10 -10 -10 -24q0 -228 1 -240t8 -18.5t29 -12.5q18 -5 18 -15q0 -12 -25 -12q-5 0 -27 0.5t-34 0.5q-21 0 -49 -1.5t-34 -1.5q-26 0 -26 13q0 9 21 15q24 7 32 18t10 38q5 50 5 219q0 19 -24 39q-19 13 -19 17z" />
    <glyph glyph-name="ograve" unicode="&#xf2;" horiz-adv-x="482" 
d="M184 654q11 0 26 -35q40 -83 61 -146q8 -25 -4 -25t-23 16q-50 65 -93 140q-9 15 -9 27q0 11 16 17q12 6 26 6zM250 404q79 0 139.5 -57t60.5 -147q0 -57 -27 -104t-60 -68q-55 -40 -124 -40q-71 0 -133 52q-32 26 -53 70.5t-21 82.5q0 97 70 156q63 55 148 55zM231 374
q-31 0 -65 -29q-20 -19 -34.5 -54.5t-14.5 -73.5q0 -51 12 -89q18 -53 54.5 -82t75.5 -29q28 0 61 33q18 20 31.5 59.5t13.5 72.5q0 95 -50 153q-36 39 -84 39z" />
    <glyph glyph-name="oacute" unicode="&#xf3;" horiz-adv-x="482" 
d="M275 625q11 21 24 21q31 0 38 -8q5 -7 -5 -27q-39 -74 -89 -148q-13 -19 -26 -19q-12 0 -4 27q21 64 62 154zM250 404q79 0 139.5 -57t60.5 -147q0 -57 -27 -104t-60 -68q-55 -40 -124 -40q-71 0 -133 52q-32 26 -53 70.5t-21 82.5q0 97 70 156q63 55 148 55zM231 374
q-31 0 -65 -29q-20 -19 -34.5 -54.5t-14.5 -73.5q0 -51 12 -89q18 -53 54.5 -82t75.5 -29q28 0 61 33q18 20 31.5 59.5t13.5 72.5q0 95 -50 153q-36 39 -84 39z" />
    <glyph glyph-name="ocircumflex" unicode="&#xf4;" horiz-adv-x="482" 
d="M240 641q9 0 28 -38q32 -58 66 -125q15 -34 -2 -34q-10 0 -24 19q-7 11 -32 44.5t-34 47.5q-4 8 -9 1q-37 -57 -67 -95q-10 -15 -21 -15q-5 0 -6.5 7.5t1.5 15.5q14 33 72 139q18 33 28 33zM250 404q79 0 139.5 -57t60.5 -147q0 -57 -27 -104t-60 -68q-55 -40 -124 -40
q-71 0 -133 52q-32 26 -53 70.5t-21 82.5q0 97 70 156q63 55 148 55zM231 374q-31 0 -65 -29q-20 -19 -34.5 -54.5t-14.5 -73.5q0 -51 12 -89q18 -53 54.5 -82t75.5 -29q28 0 61 33q18 20 31.5 59.5t13.5 72.5q0 95 -50 153q-36 39 -84 39z" />
    <glyph glyph-name="otilde" unicode="&#xf5;" horiz-adv-x="482" 
d="M169 506q-9 0 -30 -23q-5 -6 -10 -6q-2 0 -7.5 7t-5.5 9q0 1 8 12t24 27.5t32 26.5q7 6 15 4q33 -9 95 -9q21 0 29 6q12 9 25 25q3 3 12 -3.5t9 -10.5t-3 -6l-62 -62q-6 -7 -11 -7t-51 5t-69 5zM250 404q79 0 139.5 -57t60.5 -147q0 -57 -27 -104t-60 -68
q-55 -40 -124 -40q-71 0 -133 52q-32 26 -53 70.5t-21 82.5q0 97 70 156q63 55 148 55zM231 374q-31 0 -65 -29q-20 -19 -34.5 -54.5t-14.5 -73.5q0 -51 12 -89q18 -53 54.5 -82t75.5 -29q28 0 61 33q18 20 31.5 59.5t13.5 72.5q0 95 -50 153q-36 39 -84 39z" />
    <glyph glyph-name="odieresis" unicode="&#xf6;" horiz-adv-x="482" 
d="M159 600q17 0 29 -14t12 -32q0 -21 -13 -32.5t-30 -11.5q-15 0 -28.5 12t-13.5 31t12.5 33t31.5 14zM328 599q17 0 30 -14t13 -31q0 -18 -13.5 -31t-31.5 -13q-17 0 -30 12.5t-13 30.5q0 21 14 33.5t31 12.5zM250 404q79 0 139.5 -57t60.5 -147q0 -57 -27 -104t-60 -68
q-55 -40 -124 -40q-71 0 -133 52q-32 26 -53 70.5t-21 82.5q0 97 70 156q63 55 148 55zM231 374q-31 0 -65 -29q-20 -19 -34.5 -54.5t-14.5 -73.5q0 -51 12 -89q18 -53 54.5 -82t75.5 -29q28 0 61 33q18 20 31.5 59.5t13.5 72.5q0 95 -50 153q-36 39 -84 39z" />
    <glyph glyph-name="divide" unicode="&#xf7;" horiz-adv-x="624" 
d="M311 139q21 0 36 -15.5t15 -35.5q0 -23 -14.5 -39t-36.5 -16t-37.5 16t-15.5 39q0 20 15.5 35.5t37.5 15.5zM311 364q-20 0 -35.5 15.5t-15.5 36.5q0 22 15.5 38t35.5 16q23 0 38 -16t15 -38q0 -21 -15 -36.5t-38 -15.5zM548 280q10 0 12.5 -2t2.5 -10q0 -17 -4.5 -28.5
t-9.5 -11.5h-468q-14 0 -17.5 2.5t-3.5 12.5q0 11 4.5 24t10.5 13h473z" />
    <glyph glyph-name="oslash" unicode="&#xf8;" horiz-adv-x="482" 
d="M252 404q47 0 94 -25q5 -5 9 0l26 31q9 9 14 9q6 0 12 -7.5t3 -11.5q-6 -8 -13.5 -18.5t-14.5 -20.5q-2 -5 2 -9q66 -63 66 -159q0 -50 -28 -98.5t-59 -68.5q-52 -38 -124 -38q-49 0 -103 31q-8 4 -11 0l-34 -41q-4 -4 -9 -1q-18 13 -11 20q18 24 31 39q3 3 -4 10
q-66 62 -66 144q0 100 69 158q64 56 151 56zM168 62q45 -45 87 -45q36 0 67 32q18 21 31.5 62t13.5 75q0 62 -23 108q-1 2 -3 4t-3.5 2t-2.5 -1q-26 -34 -82 -109.5t-86 -113.5q-4 -6 1 -14zM230 374q-35 0 -64 -26q-20 -18 -35.5 -55.5t-15.5 -75.5q0 -72 25 -113
q1 -2 4 -3t6 1q58 75 167 224q1 2 -3 11q-39 37 -84 37z" />
    <glyph glyph-name="ugrave" unicode="&#xf9;" horiz-adv-x="498" 
d="M180 652q11 0 26 -35q40 -83 61 -146q8 -25 -4 -25t-23 16q-50 65 -93 140q-9 15 -9 27q0 11 16 17q12 6 26 6zM246 38q36 0 76 35q15 13 15 24l2 230q0 4 -6 12t-11 10q-40 11 -46 12q-20 6 -20 16q0 3 7.5 6t15.5 3q65 0 107 11q13 4 24 4q7 0 7 -15q-2 -26 -6 -151.5
t-4 -180.5q0 -3 3.5 -8.5t8.5 -5.5q3 0 23 2.5t27 2.5q6 0 12 -19q0 -2 -4 -6t-7 -4q-26 -2 -91 -19q-31 -9 -35 -9q-3 0 -6.5 4.5t-3.5 9.5q0 3 1.5 18t2.5 24q0 4 -1.5 6t-3.5 1q-64 -44 -82 -51q-29 -12 -67 -12q-58 0 -88 47q-14 22 -14 47q0 185 -2 238q0 6 -1 10.5
t-4 8t-4.5 6t-6 5t-6.5 3.5t-8 3t-7 3q-18 8 -18 18q0 9 17 9q12 0 37.5 3t46.5 5.5t22 2.5q8 0 8 -15q1 -19 -1 -135.5t-2 -132.5q0 -38 25 -56q26 -20 68 -20z" />
    <glyph glyph-name="uacute" unicode="&#xfa;" horiz-adv-x="498" 
d="M271 626q11 21 24 21q31 0 38 -8q5 -7 -5 -27q-39 -74 -89 -148q-13 -19 -26 -19q-12 0 -4 27q21 64 62 154zM246 38q36 0 76 35q15 13 15 24l2 230q0 4 -6 12t-11 10q-40 11 -46 12q-20 6 -20 16q0 3 7.5 6t15.5 3q65 0 107 11q13 4 24 4q7 0 7 -15q-2 -26 -6 -151.5
t-4 -180.5q0 -3 3.5 -8.5t8.5 -5.5q3 0 23 2.5t27 2.5q6 0 12 -19q0 -2 -4 -6t-7 -4q-26 -2 -91 -19q-31 -9 -35 -9q-3 0 -6.5 4.5t-3.5 9.5q0 3 1.5 18t2.5 24q0 4 -1.5 6t-3.5 1q-64 -44 -82 -51q-29 -12 -67 -12q-58 0 -88 47q-14 22 -14 47q0 185 -2 238q0 6 -1 10.5
t-4 8t-4.5 6t-6 5t-6.5 3.5t-8 3t-7 3q-18 8 -18 18q0 9 17 9q12 0 37.5 3t46.5 5.5t22 2.5q8 0 8 -15q1 -19 -1 -135.5t-2 -132.5q0 -38 25 -56q26 -20 68 -20z" />
    <glyph glyph-name="ucircumflex" unicode="&#xfb;" horiz-adv-x="498" 
d="M240 641q9 0 28 -38q32 -58 66 -125q15 -34 -2 -34q-10 0 -24 19q-7 11 -32 44.5t-34 47.5q-4 8 -9 1q-37 -57 -67 -95q-10 -15 -21 -15q-5 0 -6.5 7.5t1.5 15.5q14 33 72 139q18 33 28 33zM246 38q36 0 76 35q15 13 15 24l2 230q0 4 -6 12t-11 10q-40 11 -46 12
q-20 6 -20 16q0 3 7.5 6t15.5 3q65 0 107 11q13 4 24 4q7 0 7 -15q-2 -26 -6 -151.5t-4 -180.5q0 -3 3.5 -8.5t8.5 -5.5q3 0 23 2.5t27 2.5q6 0 12 -19q0 -2 -4 -6t-7 -4q-26 -2 -91 -19q-31 -9 -35 -9q-3 0 -6.5 4.5t-3.5 9.5q0 3 1.5 18t2.5 24q0 4 -1.5 6t-3.5 1
q-64 -44 -82 -51q-29 -12 -67 -12q-58 0 -88 47q-14 22 -14 47q0 185 -2 238q0 6 -1 10.5t-4 8t-4.5 6t-6 5t-6.5 3.5t-8 3t-7 3q-18 8 -18 18q0 9 17 9q12 0 37.5 3t46.5 5.5t22 2.5q8 0 8 -15q1 -19 -1 -135.5t-2 -132.5q0 -38 25 -56q26 -20 68 -20z" />
    <glyph glyph-name="udieresis" unicode="&#xfc;" horiz-adv-x="498" 
d="M152 600q17 0 29 -14t12 -32q0 -21 -13 -32.5t-30 -11.5q-15 0 -28.5 12t-13.5 31t12.5 33t31.5 14zM321 599q17 0 30 -14t13 -31q0 -18 -13.5 -31t-31.5 -13q-17 0 -30 12.5t-13 30.5q0 21 14 33.5t31 12.5zM246 38q36 0 76 35q15 13 15 24l2 230q0 4 -6 12t-11 10
q-40 11 -46 12q-20 6 -20 16q0 3 7.5 6t15.5 3q65 0 107 11q13 4 24 4q7 0 7 -15q-2 -26 -6 -151.5t-4 -180.5q0 -3 3.5 -8.5t8.5 -5.5q3 0 23 2.5t27 2.5q6 0 12 -19q0 -2 -4 -6t-7 -4q-26 -2 -91 -19q-31 -9 -35 -9q-3 0 -6.5 4.5t-3.5 9.5q0 3 1.5 18t2.5 24q0 4 -1.5 6
t-3.5 1q-64 -44 -82 -51q-29 -12 -67 -12q-58 0 -88 47q-14 22 -14 47q0 185 -2 238q0 6 -1 10.5t-4 8t-4.5 6t-6 5t-6.5 3.5t-8 3t-7 3q-18 8 -18 18q0 9 17 9q12 0 37.5 3t46.5 5.5t22 2.5q8 0 8 -15q1 -19 -1 -135.5t-2 -132.5q0 -38 25 -56q26 -20 68 -20z" />
    <glyph glyph-name="yacute" unicode="&#xfd;" horiz-adv-x="414" 
d="M264 625q10 21 24 21q31 0 38 -8q5 -7 -5 -27q-39 -74 -89 -148q-13 -19 -26 -19q-12 0 -4 27q21 64 62 154zM-5 381q0 12 24 12q12 0 37.5 -2t40.5 -2q16 0 41 1t29 1q22 0 22 -11t-23 -17q-21 -6 -24.5 -12.5t3.5 -26.5q11 -34 46 -120t41 -96q3 -3 8 4q9 19 42 105
t37 99q7 21 -1 31.5t-37 17.5q-21 5 -21 14q0 12 25 12q10 0 31.5 -1t27.5 -1t27 2t36 2q20 0 20 -9q0 -10 -22 -17q-30 -10 -49 -52q-46 -104 -110 -266q-20 -52 -56.5 -151t-47.5 -128q-3 -11 -17.5 -19.5t-34.5 -8.5q-23 0 -34 15t-11 34q0 15 12.5 29.5t31.5 14.5
q2 0 16 -0.5t20 -0.5q8 0 15 17q6 11 24 60t24 69q6 29 3 36q-1 1 -15 41q-16 45 -53.5 134.5t-60.5 135.5q-4 9 -6.5 12.5t-7.5 9t-13 9.5t-20 8q-20 7 -20 15z" />
    <glyph glyph-name="thorn" unicode="&#xfe;" horiz-adv-x="478" 
d="M71 75v206q0 236 -4 333q0 15 -5 20l-14 10t-11.5 8t-8.5 5.5t-5.5 4.5t-1.5 4q0 3 8 9t11 7l32 8q33 9 44 15q18 9 21 9t7.5 -4t4.5 -8q0 -1 -4 -335q0 -3 3 -5t5 0q24 14 65 29q28 10 69 10q28 0 59 -15t53 -40q48 -54 48 -131q0 -43 -21 -91t-65 -81q-64 -50 -154 -50
q-35 0 -53 3q-2 0 -6 -4.5t-4 -8.5q0 -138 3 -166q2 -21 11.5 -31.5t35.5 -19.5q29 -7 29 -17q0 -13 -26 -13q-9 0 -53.5 2.5t-65.5 2.5q-11 0 -30 -1t-35 -1q-29 0 -29 14q0 4 6.5 8.5t17.5 6.5q40 10 48.5 22.5t11.5 67.5q3 49 3 217zM236 353q-59 0 -77 -13
q-10 -8 -12 -30q-4 -22 -4.5 -86.5t1.5 -95.5q3 -31 12 -44q19 -27 48.5 -43t50.5 -16q27 0 45 17q34 28 50.5 72t16.5 74q0 76 -41 121q-18 19 -45 31.5t-45 12.5z" />
    <glyph glyph-name="ydieresis" unicode="&#xff;" horiz-adv-x="414" 
d="M137 600q17 0 29 -14t12 -32q0 -21 -13 -32.5t-30 -11.5q-15 0 -28.5 12t-13.5 31t12.5 33t31.5 14zM306 599q17 0 30 -14t13 -31q0 -18 -13.5 -31t-31.5 -13q-17 0 -30 12.5t-13 30.5q0 21 14 33.5t31 12.5zM-5 381q0 12 24 12q12 0 37.5 -2t40.5 -2q16 0 41 1t29 1
q22 0 22 -11t-23 -17q-21 -6 -24.5 -12.5t3.5 -26.5q11 -34 46 -120t41 -96q3 -3 8 4q9 19 42 105t37 99q7 21 -1 31.5t-37 17.5q-21 5 -21 14q0 12 25 12q10 0 31.5 -1t27.5 -1t27 2t36 2q20 0 20 -9q0 -10 -22 -17q-30 -10 -49 -52q-46 -104 -110 -266q-20 -52 -56.5 -151
t-47.5 -128q-3 -11 -17.5 -19.5t-34.5 -8.5q-23 0 -34 15t-11 34q0 15 12.5 29.5t31.5 14.5q2 0 16 -0.5t20 -0.5q8 0 15 17q6 11 24 60t24 69q6 29 3 36q-1 1 -15 41q-16 45 -53.5 134.5t-60.5 135.5q-4 9 -6.5 12.5t-7.5 9t-13 9.5t-20 8q-20 7 -20 15z" />
    <glyph glyph-name="Amacron" unicode="&#x100;" horiz-adv-x="676" 
d="M353 661q7 0 16 -26q6 -19 44 -124q95 -267 144 -385q23 -58 40.5 -75t53.5 -26q24 -7 24 -17q0 -13 -32 -13q-15 0 -59 2.5t-67 2.5q-17 0 -38 -1t-33 -1q-31 0 -31 12t24 16q22 5 32.5 13t9.5 17.5t-2 20.5q-6 33 -56 171q-3 10 -34 10q-136 0 -164 -4q-6 0 -11 -8
q-52 -130 -52 -175q0 -28 49 -43q27 -8 27 -18q0 -13 -28 -13q-6 0 -32 1.5t-47 1.5t-60 -2.5t-44 -2.5q-23 0 -23 10q0 13 22 20q41 14 56.5 26.5t35.5 58.5q12 28 87 220.5t94 240.5q6 12 6 21q0 5 2 8q5 7 17 27t13 22q11 12 16 12zM398 303q1 0 2.5 3t0.5 5
q-65 195 -78 215q-4 9 -8 0q-69 -184 -78 -219q-2 -7 5 -7q14 0 48.5 0.5t63.5 1t44 1.5zM244 766l215 6q3 0 6.5 -7.5t3.5 -14.5q0 -14 -6.5 -25.5t-12.5 -11.5l-212 -2q-9 0 -9 16q0 9 5.5 24t9.5 15z" />
    <glyph glyph-name="amacron" unicode="&#x101;" horiz-adv-x="397" 
d="M91 573l209 4q3 0 6 -6.5t3 -9.5q0 -17 -6 -29.5t-15 -12.5h-204q-8 0 -8 12q0 15 5 28.5t10 13.5zM208 404q58 0 90 -47q20 -28 20 -83q0 -23 -2 -98.5t-2 -77.5q0 -21 9 -33t16.5 -14.5t14.5 -2.5q17 0 38 15q3 2 6 -3q3 -3 3 -10q0 -16 -29.5 -39t-60.5 -23
q-48 0 -64 50q0 1 -2.5 3t-3.5 1q-47 -33 -90 -46q-17 -6 -40 -6q-27 0 -48 28t-21 65q0 27 19 51q8 10 40 25q9 3 59.5 18t57.5 17q29 9 29 18q2 18 2 82q0 22 -22 44.5t-56 22.5q-26 0 -41 -11q-11 -5 -7 -41q0 -5 -6 -11q-7 -6 -34 -19.5t-31 -13.5t-8 4.5t-4 8.5
q0 39 75 88q21 15 49.5 26.5t43.5 11.5zM178 42q22 0 54 17q4 3 8 12.5t4 12.5q2 24 2 78q0 8 -8 8q-41 0 -103 -30q-20 -14 -20 -38q0 -29 21 -44.5t42 -15.5z" />
    <glyph glyph-name="Abreve" unicode="&#x102;" horiz-adv-x="676" 
d="M353 661q7 0 16 -26q6 -19 44 -124q95 -267 144 -385q23 -58 40.5 -75t53.5 -26q24 -7 24 -17q0 -13 -32 -13q-15 0 -59 2.5t-67 2.5q-17 0 -38 -1t-33 -1q-31 0 -31 12t24 16q22 5 32.5 13t9.5 17.5t-2 20.5q-6 33 -56 171q-3 10 -34 10q-136 0 -164 -4q-6 0 -11 -8
q-52 -130 -52 -175q0 -28 49 -43q27 -8 27 -18q0 -13 -28 -13q-6 0 -32 1.5t-47 1.5t-60 -2.5t-44 -2.5q-23 0 -23 10q0 13 22 20q41 14 56.5 26.5t35.5 58.5q12 28 87 220.5t94 240.5q6 12 6 21q0 5 2 8q5 7 17 27t13 22q11 12 16 12zM398 303q1 0 2.5 3t0.5 5
q-65 195 -78 215q-4 9 -8 0q-69 -184 -78 -219q-2 -7 5 -7q14 0 48.5 0.5t63.5 1t44 1.5zM342 693q-45 0 -77.5 26.5t-38.5 67.5q-1 6 2 13t9 7q5 0 15 -12q38 -45 96 -45q63 0 98 42q11 13 19 13q9 0 6 -15q-7 -36 -38.5 -66.5t-90.5 -30.5z" />
    <glyph glyph-name="abreve" unicode="&#x103;" horiz-adv-x="397" 
d="M185 475q-37 0 -65 25t-33 80q-1 14 4 21t11 7q9 0 15 -20q17 -59 75 -59q59 0 81 61q2 7 9 12t13 5q5 0 5 -24q-5 -41 -33.5 -74.5t-81.5 -33.5zM208 404q58 0 90 -47q20 -28 20 -83q0 -23 -2 -98.5t-2 -77.5q0 -21 9 -33t16.5 -14.5t14.5 -2.5q17 0 38 15q3 2 6 -3
q3 -3 3 -10q0 -16 -29.5 -39t-60.5 -23q-48 0 -64 50q0 1 -2.5 3t-3.5 1q-47 -33 -90 -46q-17 -6 -40 -6q-27 0 -48 28t-21 65q0 27 19 51q8 10 40 25q9 3 59.5 18t57.5 17q29 9 29 18q2 18 2 82q0 22 -22 44.5t-56 22.5q-26 0 -41 -11q-11 -5 -7 -41q0 -5 -6 -11
q-7 -6 -34 -19.5t-31 -13.5t-8 4.5t-4 8.5q0 39 75 88q21 15 49.5 26.5t43.5 11.5zM178 42q22 0 54 17q4 3 8 12.5t4 12.5q2 24 2 78q0 8 -8 8q-41 0 -103 -30q-20 -14 -20 -38q0 -29 21 -44.5t42 -15.5z" />
    <glyph glyph-name="Aogonek" unicode="&#x104;" horiz-adv-x="676" 
d="M353 661q7 0 16 -26q6 -19 44 -124q95 -267 144 -385q24 -59 41 -76.5t53 -26.5q24 -6 24 -17q0 -13 -32 -13q-15 0 -61 4q-42 -38 -64.5 -78.5t-22.5 -69.5q0 -22 15.5 -36t36.5 -14q32 0 60 15q4 2 7 -0.5t3 -7.5q0 -14 -7 -21q-30 -49 -99 -49q-43 0 -67 25.5
t-24 64.5t37.5 87.5t94.5 85.5q-12 1 -35 1q-17 0 -38 -1t-33 -1q-31 0 -31 12t24 16q22 5 32.5 13t9.5 17.5t-2 20.5q-6 33 -56 171q-3 10 -40 10q-129 0 -157 -4q-6 0 -13 -11q-51 -127 -51 -172q0 -29 49 -44q27 -8 27 -18q0 -13 -28 -13q-6 0 -32 2t-47 2t-60 -3t-44 -3
q-23 0 -23 10q0 13 22 20q41 14 56.5 27t35.5 59q12 28 87 220.5t94 240.5q6 12 6 21q0 5 2 8q5 7 17 27t13 22q11 12 16 12zM395 303q1 0 4 3t2 5q-65 195 -78 215q-4 9 -8 0q-67 -180 -77 -217q0 -9 8 -9q14 0 46.5 0.5t60 1t42.5 1.5z" />
    <glyph glyph-name="aogonek" unicode="&#x105;" horiz-adv-x="397" 
d="M214 404q60 0 91 -45q22 -31 22 -84q0 -23 -2 -98.5t-2 -77.5q0 -28 12 -39.5t27 -11.5q17 0 35 13q2 2 6 1.5t5 -2.5q2 -3 2 -10q0 -17 -38 -46q-42 -32 -64.5 -70t-22.5 -68q0 -21 13.5 -34.5t32.5 -13.5q34 0 58 20q2 2 4.5 2.5t4 -1t1.5 -4.5q0 -10 -6 -22
q-12 -21 -37 -38t-59 -17q-39 0 -61 25t-22 61q0 66 103 144q-43 2 -60 45q-4 11 -12 6q-24 -14 -84 -41q-22 -10 -41 -10q-27 0 -51 30.5t-24 67.5q0 33 13 51q10 12 42 24q8 4 62 17t62 15q30 9 31 19q1 9 1 85q0 22 -20.5 41.5t-54.5 19.5q-30 0 -49 -11q-4 -3 -4 -36
q0 -3 -4 -7q-2 -3 -34 -18t-35 -15q-4 0 -9.5 5.5t-5.5 9.5q0 32 83 86q48 32 91 32zM175 43q32 0 63 19q12 8 13 25q2 25 2 75q0 8 -10 6q-17 -1 -88 -19q-36 -10 -36 -48q0 -24 19 -41t37 -17z" />
    <glyph glyph-name="Cacute" unicode="&#x106;" horiz-adv-x="717" 
d="M431 661q50 0 118 -16q14 -2 41.5 -10t34.5 -9q15 0 15 -30q0 -10 7 -87q1 -15 -4 -24t-11 -9q-7 0 -16 26q-14 54 -41 75q-70 52 -160 52q-117 0 -190.5 -83.5t-73.5 -200.5q0 -95 35 -165q39 -80 111.5 -120t141.5 -40q63 0 109 27q54 28 93 97q16 26 21 26
q7 0 9 -11.5t0 -21.5q-2 -18 -15 -50t-25 -51q-6 -14 -31 -26q-18 -8 -72 -18t-110 -10q-95 0 -171 36.5t-113 80.5q-84 97 -84 230q0 77 35 142t75 98q113 92 271 92zM481 835q15 10 28 5q9 -4 19 -13.5t10 -18.5q0 -14 -20 -26q-89 -49 -150 -72q-24 -10 -34 0q-1 0 -1 3
t3 9t10 12q59 50 135 101z" />
    <glyph glyph-name="cacute" unicode="&#x107;" horiz-adv-x="392" 
d="M255 625q11 21 24 21q31 0 38 -8q5 -7 -5 -27q-39 -74 -89 -148q-13 -19 -26 -19q-12 0 -4 27q21 64 62 154zM260 401q64 0 93 -23q15 -10 15 -30q0 -11 -14.5 -25.5t-18.5 -14.5q-11 0 -39 19q-3 2 -10.5 7.5t-9.5 7t-8.5 6t-9 6t-8 4t-9 3.5t-8.5 2.5t-10 2t-11 0.5
q-13 0 -32 -10t-30 -24q-42 -47 -42 -115q0 -61 26 -100q19 -31 53 -49t73 -18q46 0 89 30q5 4 9.5 4.5t7 -0.5t2.5 -4q0 -16 -13 -29q-26 -29 -65 -45.5t-79 -16.5q-46 0 -84.5 21.5t-63.5 58.5q-31 51 -31 117q0 108 97 173q27 19 67 30.5t64 11.5z" />
    <glyph glyph-name="Ccircumflex" unicode="&#x108;" horiz-adv-x="717" 
d="M431 661q50 0 118 -16q14 -2 41.5 -10t34.5 -9q15 0 15 -30q0 -10 7 -87q1 -15 -4 -24t-11 -9q-7 0 -16 26q-14 54 -41 75q-70 52 -160 52q-117 0 -190.5 -83.5t-73.5 -200.5q0 -95 35 -165q39 -80 111.5 -120t141.5 -40q63 0 109 27q54 28 93 97q16 26 21 26
q7 0 9 -11.5t0 -21.5q-2 -18 -15 -50t-25 -51q-6 -14 -31 -26q-18 -8 -72 -18t-110 -10q-95 0 -171 36.5t-113 80.5q-84 97 -84 230q0 77 35 142t75 98q113 92 271 92zM407 823q10 0 37 -22q70 -60 82 -70q17 -12 11 -22q-2 -4 -9 -4q-9 0 -28 8q-14 6 -29 13.5t-32.5 16
t-27.5 13.5q-7 4 -16 -1q-33 -15 -86 -41q-1 0 -11.5 -4.5t-15.5 -4.5q-27 0 0 24l2 2q9 8 40.5 35t45.5 38q24 19 37 19z" />
    <glyph glyph-name="ccircumflex" unicode="&#x109;" horiz-adv-x="392" 
d="M219 641q9 0 28 -38q32 -58 66 -125q15 -34 -2 -34q-10 0 -24 19q-7 11 -32 44.5t-34 47.5q-4 8 -9 1q-37 -57 -67 -95q-10 -15 -21 -15q-5 0 -6.5 7.5t1.5 15.5q14 33 72 139q18 33 28 33zM260 401q64 0 93 -23q15 -10 15 -30q0 -11 -14.5 -25.5t-18.5 -14.5
q-11 0 -39 19q-3 2 -10.5 7.5t-9.5 7t-8.5 6t-9 6t-8 4t-9 3.5t-8.5 2.5t-10 2t-11 0.5q-13 0 -32 -10t-30 -24q-42 -47 -42 -115q0 -61 26 -100q19 -31 53 -49t73 -18q46 0 89 30q5 4 9.5 4.5t7 -0.5t2.5 -4q0 -16 -13 -29q-26 -29 -65 -45.5t-79 -16.5q-46 0 -84.5 21.5
t-63.5 58.5q-31 51 -31 117q0 108 97 173q27 19 67 30.5t64 11.5z" />
    <glyph glyph-name="Cdotaccent" unicode="&#x10a;" horiz-adv-x="717" 
d="M431 661q50 0 118 -16q14 -2 41.5 -10t34.5 -9q15 0 15 -30q0 -10 7 -87q1 -15 -4 -24t-11 -9q-7 0 -16 26q-14 54 -41 75q-70 52 -160 52q-117 0 -190.5 -83.5t-73.5 -200.5q0 -95 35 -165q39 -80 111.5 -120t141.5 -40q63 0 109 27q54 28 93 97q16 26 21 26
q7 0 9 -11.5t0 -21.5q-2 -18 -15 -50t-25 -51q-6 -14 -31 -26q-18 -8 -72 -18t-110 -10q-95 0 -171 36.5t-113 80.5q-84 97 -84 230q0 77 35 142t75 98q113 92 271 92zM417 815q22 0 35 -17t13 -37q0 -22 -16 -36.5t-34 -14.5t-34 14t-16 39q0 20 15 36t37 16z" />
    <glyph glyph-name="cdotaccent" unicode="&#x10b;" horiz-adv-x="392" 
d="M231 605q21 0 33 -16t12 -35q0 -20 -15 -34t-31 -14q-18 0 -33.5 12.5t-15.5 37.5q0 19 14.5 34t35.5 15zM260 401q64 0 93 -23q15 -10 15 -30q0 -11 -14.5 -25.5t-18.5 -14.5q-11 0 -39 19q-3 2 -10.5 7.5t-9.5 7t-8.5 6t-9 6t-8 4t-9 3.5t-8.5 2.5t-10 2t-11 0.5
q-13 0 -32 -10t-30 -24q-42 -47 -42 -115q0 -61 26 -100q19 -31 53 -49t73 -18q46 0 89 30q5 4 9.5 4.5t7 -0.5t2.5 -4q0 -16 -13 -29q-26 -29 -65 -45.5t-79 -16.5q-46 0 -84.5 21.5t-63.5 58.5q-31 51 -31 117q0 108 97 173q27 19 67 30.5t64 11.5z" />
    <glyph glyph-name="Ccaron" unicode="&#x10c;" horiz-adv-x="717" 
d="M431 661q50 0 118 -16q14 -2 41.5 -10t34.5 -9q15 0 15 -30q0 -10 7 -87q1 -15 -4 -24t-11 -9q-7 0 -16 26q-14 54 -41 75q-70 52 -160 52q-117 0 -190.5 -83.5t-73.5 -200.5q0 -95 35 -165q39 -80 111.5 -120t141.5 -40q63 0 109 27q54 28 93 97q16 26 21 26
q7 0 9 -11.5t0 -21.5q-2 -18 -15 -50t-25 -51q-6 -14 -31 -26q-18 -8 -72 -18t-110 -10q-95 0 -171 36.5t-113 80.5q-84 97 -84 230q0 77 35 142t75 98q113 92 271 92zM404 708q-11 0 -38 22q-4 4 -19 16t-32.5 26.5t-32.5 28.5q-7 4 -9.5 10.5t0 11t10.5 4.5q4 0 15 -4.5
t12 -4.5q32 -14 90 -44q8 -3 16 1q12 6 41.5 20.5t43.5 21.5q1 0 12 4.5t16 4.5q29 0 0 -27q-7 -5 -26 -21t-35 -29.5t-27 -21.5q-24 -19 -37 -19z" />
    <glyph glyph-name="ccaron" unicode="&#x10d;" horiz-adv-x="392" 
d="M220 443q-10 0 -29 39q-34 62 -65 125q-16 33 2 33q10 0 24 -19q6 -8 30 -42.5t34 -48.5q7 -7 11 -2q11 18 66 96q9 14 21 14q5 0 6.5 -7t-1.5 -15q-7 -19 -18 -41.5t-30.5 -57t-22.5 -40.5q-17 -34 -28 -34zM260 401q64 0 93 -23q15 -10 15 -30q0 -11 -14.5 -25.5
t-18.5 -14.5q-11 0 -39 19q-3 2 -10.5 7.5t-9.5 7t-8.5 6t-9 6t-8 4t-9 3.5t-8.5 2.5t-10 2t-11 0.5q-13 0 -32 -10t-30 -24q-42 -47 -42 -115q0 -61 26 -100q19 -31 53 -49t73 -18q46 0 89 30q5 4 9.5 4.5t7 -0.5t2.5 -4q0 -16 -13 -29q-26 -29 -65 -45.5t-79 -16.5
q-46 0 -84.5 21.5t-63.5 58.5q-31 51 -31 117q0 108 97 173q27 19 67 30.5t64 11.5z" />
    <glyph glyph-name="Dcaron" unicode="&#x10e;" horiz-adv-x="755" 
d="M338 652q94 0 165.5 -30t111.5 -67q40 -39 65.5 -100.5t25.5 -120.5q0 -100 -49 -177.5t-111 -111.5q-97 -56 -238 -56q-90 0 -196 8q-19 1 -53 1q-32 0 -32 15q0 12 22 14q50 6 62.5 25t14.5 81q3 71 3 137q0 120 -5 257q-2 51 -11 66t-53 21q-23 4 -23 16q0 13 24 13
h28q20 0 110.5 4.5t138.5 4.5zM294 621q-55 0 -69 -8q-9 -6 -10 -13q-4 -24 -4 -190v-145q0 -114 4 -173q3 -35 22 -47q14 -10 39.5 -18t42.5 -8q41 0 95 16.5t92 48.5q103 88 103 250q0 65 -29.5 128.5t-77.5 99.5q-37 27 -94 43t-114 16zM335 701q-11 0 -38 22
q-4 4 -19 16t-32.5 26.5t-32.5 28.5q-7 4 -9.5 10.5t0 11t10.5 4.5q4 0 15 -4.5t12 -4.5q32 -14 90 -44q8 -3 16 1q12 6 41.5 20.5t43.5 21.5q1 0 12 4.5t16 4.5q28 0 0 -27l-88 -72q-24 -19 -37 -19z" />
    <glyph glyph-name="dcaron" unicode="&#x10f;" horiz-adv-x="499" 
d="M270 404q40 0 64 -4q3 -1 5 2.5t3 8.5q3 23 2.5 103t-3.5 101q-4 18 -47 41q-10 6 -10 9t6.5 9.5t10.5 7.5q44 6 102 28q9 3 13 3q3 0 6 -5t2 -11q-9 -95 -9 -395q0 -171 3 -228q1 -41 15 -41q6 0 28.5 4t25.5 4q6 0 6 -6q0 -5 -6.5 -14.5t-10.5 -10.5q-62 -10 -90 -20
q-29 -10 -36 -10q-3 0 -7 4.5t-4 8.5t1 18.5t1 22.5q0 6 -6 6q-56 -50 -130 -50q-73 0 -125 55q-48 54 -48 137q0 121 106 184q62 38 132 38zM233 371q-43 0 -78 -35q-16 -16 -29 -51.5t-13 -74.5q0 -64 40.5 -118t101.5 -54q40 0 73 24q1 1 4.5 10.5t7.5 25.5t4 30
q1 96 -3 166q-2 18 -22 38q-39 39 -86 39zM520 706q12 0 12 -18q1 -23 -9.5 -70t-22.5 -80q-1 -5 -9 -16t-14 -11q-4 0 -7 8t-2 16q4 72 -6 128q0 7 5 12q7 8 25 19.5t28 11.5z" />
    <glyph glyph-name="Dcroat" unicode="&#x110;" horiz-adv-x="755" 
d="M44 349l76 1q8 0 8 11q-1 27 -2.5 87.5t-1.5 78.5q-2 51 -11 66t-53 21q-23 4 -23 15q0 14 24 14h29q20 0 110 4.5t138 4.5q94 0 165.5 -30t111.5 -67q40 -39 65.5 -100.5t25.5 -120.5q0 -100 -49 -177.5t-111 -111.5q-97 -56 -238 -56q-90 0 -196 8q-19 1 -53 1
q-32 0 -32 15q0 11 21 15q51 6 64 25t14 80q0 30 1 83.5t1 83.5q0 11 -6 11l-73 1q-13 0 -13 15q0 22 8 22zM393 313l-176 -2q-6 0 -6 -10q3 -185 4 -205q4 -40 22 -51q14 -10 39.5 -18t43.5 -8q41 0 94 16.5t92 48.5q103 88 103 250q0 65 -29.5 128.5t-77.5 100.5
q-37 27 -94 42.5t-114 15.5q-55 0 -68 -8q-9 -6 -11 -14q-1 -5 -1.5 -45t-1 -100.5t-1.5 -93.5q0 -10 7 -10h172q16 0 16 -8q0 -10 -4 -19.5t-9 -9.5z" />
    <glyph glyph-name="dcroat" unicode="&#x111;" horiz-adv-x="499" 
d="M415 302q0 -179 3 -239q2 -27 18 -27q7 0 19.5 3t18.5 4q10 3 13 1.5t3 -8.5t-6 -16t-12 -10q-52 -6 -85 -18q-32 -11 -36 -11q-12 0 -12 13q0 4 1.5 14.5t1.5 18.5q0 7 -8 7q-81 -46 -128 -46q-74 0 -121 55q-53 56 -53 137q0 122 107 185q63 39 131 39q35 0 65 -8
q3 -1 5.5 3t2.5 9q5 95 1 120q0 10 -5 10q-7 0 -51 0.5t-55 0.5q-7 0 -7 12q0 6 4 14t7 8h104q4 0 4 11v34q0 17 -7.5 24.5t-29.5 13.5q-18 5 -18 22q0 9 19 11q58 10 69 14q27 11 36 11q8 0 8 -19q0 -1 -1 -17t-1.5 -42.5t-0.5 -52.5q0 -8 5 -8h67q8 0 5 -18q-1 -12 -4 -15
t-10 -3q-9 0 -27.5 -0.5t-30.5 -0.5q-6 0 -6 -12q-3 -168 -3 -224zM229 367q-23 0 -45 -11t-33 -26q-36 -46 -36 -120q0 -66 38.5 -117.5t100.5 -51.5q48 0 78 22q11 10 12 46v178q0 20 -19 44q-31 36 -96 36z" />
    <glyph glyph-name="Emacron" unicode="&#x112;" horiz-adv-x="563" 
d="M223 643h147q70 0 92 3q2 1 5 -3t4 -8q0 -26 1 -57t1 -38q0 -26 -15 -26q-11 0 -16 24q-9 37 -24.5 50.5t-42.5 17.5q-52 8 -142 4q-2 0 -4.5 -2t-6 -9t-4.5 -17q-2 -20 -3 -118.5t0 -109.5q3 -10 7 -10h65q50 0 69.5 3.5t28 12.5t18.5 34q8 21 18 21q11 0 8 -22
q-3 -42 -3 -72q0 -1 3 -61q2 -29 -11 -29q-11 0 -17 22q-11 35 -22 42.5t-57 9.5q-32 2 -99 2q-3 0 -6 -3.5t-3 -5.5q-3 -16 -3 -157q0 -56 10 -83q6 -18 19 -22q40 -7 91 -7q69 0 95 7q52 13 83 74q14 28 23 28q5 0 7.5 -9t0.5 -18q-1 -8 -16 -54.5t-20 -52.5
q-9 -12 -17 -12l-49 2q-48 2 -126 4t-150 2q-28 0 -62 -2.5t-51 -2.5q-30 0 -30 13q0 9 28 16q41 10 55.5 22.5t17.5 50.5q8 112 8 284q0 155 -1 169q-2 33 -12.5 46t-43.5 20q-29 7 -29 17q0 14 28 14q21 0 69 -2t84 -2zM182 778l215 6q3 0 6.5 -7.5t3.5 -14.5
q0 -14 -6.5 -25.5t-12.5 -11.5l-212 -2q-9 0 -9 16q0 9 5.5 24t9.5 15z" />
    <glyph glyph-name="emacron" unicode="&#x113;" horiz-adv-x="392" 
d="M114 573l209 4q3 0 6 -6.5t3 -9.5q0 -17 -6 -29.5t-15 -12.5h-204q-8 0 -8 12q0 15 5 28.5t10 13.5zM229 403q61 0 99 -38q35 -33 35 -84q0 -5 -5.5 -11t-13.5 -6q-182 0 -228 1q-5 0 -8 -8q-5 -13 -5 -35q0 -64 38 -114q17 -24 47.5 -39.5t64.5 -15.5q67 0 91 36
q8 12 13 12q8 0 8 -12t-7 -24q-51 -75 -145 -75q-81 0 -130.5 55.5t-49.5 143.5q0 62 31.5 116t88.5 80q39 18 76 18zM219 377q-34 0 -60.5 -19.5t-40.5 -54.5q-1 -3 0.5 -7t3.5 -4q44 -2 129 0q19 0 26.5 5t7.5 20q0 22 -20 41t-46 19z" />
    <glyph glyph-name="Ebreve" unicode="&#x114;" horiz-adv-x="563" 
d="M223 643h147q70 0 92 3q2 1 5 -3t4 -8q0 -26 1 -57t1 -38q0 -26 -15 -26q-11 0 -16 24q-9 37 -24.5 50.5t-42.5 17.5q-52 8 -142 4q-2 0 -4.5 -2t-6 -9t-4.5 -17q-2 -20 -3 -118.5t0 -109.5q3 -10 7 -10h65q50 0 69.5 3.5t28 12.5t18.5 34q8 21 18 21q11 0 8 -22
q-3 -42 -3 -72q0 -1 3 -61q2 -29 -11 -29q-11 0 -17 22q-11 35 -22 42.5t-57 9.5q-32 2 -99 2q-3 0 -6 -3.5t-3 -5.5q-3 -16 -3 -157q0 -56 10 -83q6 -18 19 -22q40 -7 91 -7q69 0 95 7q52 13 83 74q14 28 23 28q5 0 7.5 -9t0.5 -18q-1 -8 -16 -54.5t-20 -52.5
q-9 -12 -17 -12l-49 2q-48 2 -126 4t-150 2q-28 0 -62 -2.5t-51 -2.5q-30 0 -30 13q0 9 28 16q41 10 55.5 22.5t17.5 50.5q8 112 8 284q0 155 -1 169q-2 33 -12.5 46t-43.5 20q-29 7 -29 17q0 14 28 14q21 0 69 -2t84 -2zM278 693q-45 0 -77.5 26.5t-38.5 67.5q-1 6 2 13
t9 7q5 0 15 -12q38 -45 96 -45q63 0 98 42q11 13 19 13q9 0 6 -15q-7 -36 -38.5 -66.5t-90.5 -30.5z" />
    <glyph glyph-name="ebreve" unicode="&#x115;" horiz-adv-x="392" 
d="M208 475q-37 0 -65 25t-33 80q-1 14 4 21t11 7q9 0 15 -20q17 -59 75 -59q59 0 81 61q2 7 9 12t13 5q5 0 5 -24q-5 -41 -33.5 -74.5t-81.5 -33.5zM229 403q61 0 99 -38q35 -33 35 -84q0 -5 -5.5 -11t-13.5 -6q-182 0 -228 1q-5 0 -8 -8q-5 -13 -5 -35q0 -64 38 -114
q17 -24 47.5 -39.5t64.5 -15.5q67 0 91 36q8 12 13 12q8 0 8 -12t-7 -24q-51 -75 -145 -75q-81 0 -130.5 55.5t-49.5 143.5q0 62 31.5 116t88.5 80q39 18 76 18zM219 377q-34 0 -60.5 -19.5t-40.5 -54.5q-1 -3 0.5 -7t3.5 -4q44 -2 129 0q19 0 26.5 5t7.5 20q0 22 -20 41
t-46 19z" />
    <glyph glyph-name="Edotaccent" unicode="&#x116;" horiz-adv-x="563" 
d="M223 643h147q70 0 92 3q2 1 5 -3t4 -8q0 -26 1 -57t1 -38q0 -26 -15 -26q-11 0 -16 24q-9 37 -24.5 50.5t-42.5 17.5q-52 8 -142 4q-2 0 -4.5 -2t-6 -9t-4.5 -17q-2 -20 -3 -118.5t0 -109.5q3 -10 7 -10h65q50 0 69.5 3.5t28 12.5t18.5 34q8 21 18 21q11 0 8 -22
q-3 -42 -3 -72q0 -1 3 -61q2 -29 -11 -29q-11 0 -17 22q-11 35 -22 42.5t-57 9.5q-32 2 -99 2q-3 0 -6 -3.5t-3 -5.5q-3 -16 -3 -157q0 -56 10 -83q6 -18 19 -22q40 -7 91 -7q69 0 95 7q52 13 83 74q14 28 23 28q5 0 7.5 -9t0.5 -18q-1 -8 -16 -54.5t-20 -52.5
q-9 -12 -17 -12l-49 2q-48 2 -126 4t-150 2q-28 0 -62 -2.5t-51 -2.5q-30 0 -30 13q0 9 28 16q41 10 55.5 22.5t17.5 50.5q8 112 8 284q0 155 -1 169q-2 33 -12.5 46t-43.5 20q-29 7 -29 17q0 14 28 14q21 0 69 -2t84 -2zM289 797q22 0 35 -17t13 -37q0 -22 -16 -36.5
t-34 -14.5t-34 14t-16 39q0 20 15 36t37 16z" />
    <glyph glyph-name="edotaccent" unicode="&#x117;" horiz-adv-x="392" 
d="M224 605q21 0 33 -16t12 -35q0 -20 -15 -34t-31 -14q-18 0 -33.5 12.5t-15.5 37.5q0 19 14.5 34t35.5 15zM229 403q61 0 99 -38q35 -33 35 -84q0 -5 -5.5 -11t-13.5 -6q-182 0 -228 1q-5 0 -8 -8q-5 -13 -5 -35q0 -64 38 -114q17 -24 47.5 -39.5t64.5 -15.5q67 0 91 36
q8 12 13 12q8 0 8 -12t-7 -24q-51 -75 -145 -75q-81 0 -130.5 55.5t-49.5 143.5q0 62 31.5 116t88.5 80q39 18 76 18zM219 377q-34 0 -60.5 -19.5t-40.5 -54.5q-1 -3 0.5 -7t3.5 -4q44 -2 129 0q19 0 26.5 5t7.5 20q0 22 -20 41t-46 19z" />
    <glyph glyph-name="Eogonek" unicode="&#x118;" horiz-adv-x="563" 
d="M223 643h147q66 0 90 3q2 1 6 -3t5 -8q0 -26 1 -57t1 -38q0 -26 -15 -26q-11 0 -16 24q-9 37 -24.5 50.5t-42.5 17.5q-52 8 -142 4q-2 0 -4.5 -2t-6 -9t-4.5 -17q-2 -20 -3 -118t0 -109q4 -11 9 -11h63h6q69 0 82 4.5t23 32.5q3 8 5 13q8 21 18 21q11 0 8 -22
q-3 -42 -3 -72q0 -1 3 -61q2 -29 -11 -29q-9 0 -17 22q-2 7 -5.5 18.5t-5.5 14t-6 8t-12 6.5t-19 2.5t-31 2.5q-32 2 -98 2q-3 0 -6.5 -3.5t-3.5 -5.5q-3 -16 -3 -157q0 -56 10 -83q8 -18 19 -22q40 -7 91 -7q69 0 95 7q52 13 84 76q12 24 23 24q8 0 8 -23q0 -7 -16 -55
t-21 -54q-9 -12 -17 -12q-2 0 -6.5 0.5t-13 1t-15.5 0.5q-84 -80 -84 -145q0 -22 15.5 -36t36.5 -14q31 0 59 15q4 2 7 -0.5t3 -7.5q0 -9 -6 -21q-32 -49 -100 -49q-43 0 -66.5 25.5t-23.5 64.5t35.5 85.5t91.5 83.5q-103 5 -258 5q-28 0 -62 -2.5t-51 -2.5q-30 0 -30 13
q0 9 28 16q41 10 55.5 22.5t17.5 50.5q8 112 8 284q0 155 -1 169q-2 33 -12.5 46t-43.5 20q-29 7 -29 17q0 14 28 14q21 0 69 -2t84 -2z" />
    <glyph glyph-name="eogonek" unicode="&#x119;" horiz-adv-x="392" 
d="M229 404q61 0 100.5 -35.5t39.5 -91.5q0 -6 -10.5 -13t-18.5 -7q-168 0 -216 1q-7 0 -12 -10q-3 -9 -3 -36q0 -71 38.5 -116t106.5 -45q61 0 95 34q7 6 11 6q6 0 6 -10q0 -8 -7 -20q-16 -18 -54 -48q-95 -75 -95 -147q0 -21 13 -34.5t32 -13.5q35 0 59 20q2 2 4.5 2.5
t4 -1t1.5 -4.5q0 -10 -6 -22q-35 -55 -96 -55q-40 0 -62 25t-22 61q0 67 107 147q-15 -3 -31 -3q-79 0 -130 58.5t-51 142.5q0 63 32 117.5t89 80.5q37 17 75 17zM225 378q-35 0 -62 -23t-41 -60q-3 -8 4 -10q42 -2 123 0q40 2 40 37q0 19 -15.5 37.5t-48.5 18.5z" />
    <glyph glyph-name="Ecaron" unicode="&#x11a;" horiz-adv-x="563" 
d="M223 643h147q70 0 92 3q2 1 5 -3t4 -8q0 -26 1 -57t1 -38q0 -26 -15 -26q-11 0 -16 24q-9 37 -24.5 50.5t-42.5 17.5q-52 8 -142 4q-2 0 -4.5 -2t-6 -9t-4.5 -17q-2 -20 -3 -118.5t0 -109.5q3 -10 7 -10h65q50 0 69.5 3.5t28 12.5t18.5 34q8 21 18 21q11 0 8 -22
q-3 -42 -3 -72q0 -1 3 -61q2 -29 -11 -29q-11 0 -17 22q-11 35 -22 42.5t-57 9.5q-32 2 -99 2q-3 0 -6 -3.5t-3 -5.5q-3 -16 -3 -157q0 -56 10 -83q6 -18 19 -22q40 -7 91 -7q69 0 95 7q52 13 83 74q14 28 23 28q5 0 7.5 -9t0.5 -18q-1 -8 -16 -54.5t-20 -52.5
q-9 -12 -17 -12l-49 2q-48 2 -126 4t-150 2q-28 0 -62 -2.5t-51 -2.5q-30 0 -30 13q0 9 28 16q41 10 55.5 22.5t17.5 50.5q8 112 8 284q0 155 -1 169q-2 33 -12.5 46t-43.5 20q-29 7 -29 17q0 14 28 14q21 0 69 -2t84 -2zM286 688q-11 0 -38 22q-4 4 -19 16t-32.5 26.5
t-32.5 28.5q-7 4 -9.5 10.5t0 11t10.5 4.5q4 0 15 -4.5t12 -4.5q32 -14 90 -44q8 -3 16 1q11 6 40.5 20.5t44.5 21.5q1 0 12 4.5t16 4.5q29 0 0 -27l-88 -72q-24 -19 -37 -19z" />
    <glyph glyph-name="ecaron" unicode="&#x11b;" horiz-adv-x="392" 
d="M210 443q-10 0 -29 39q-34 62 -65 125q-16 33 2 33q10 0 24 -19q6 -8 30 -42.5t34 -48.5q7 -7 11 -2q11 18 66 96q9 14 21 14q5 0 6.5 -7t-1.5 -15q-7 -19 -18 -41.5t-30.5 -57t-22.5 -40.5q-17 -34 -28 -34zM229 403q61 0 99 -38q35 -33 35 -84q0 -5 -5.5 -11t-13.5 -6
q-182 0 -228 1q-5 0 -8 -8q-5 -13 -5 -35q0 -64 38 -114q17 -24 47.5 -39.5t64.5 -15.5q67 0 91 36q8 12 13 12q8 0 8 -12t-7 -24q-51 -75 -145 -75q-81 0 -130.5 55.5t-49.5 143.5q0 62 31.5 116t88.5 80q39 18 76 18zM219 377q-34 0 -60.5 -19.5t-40.5 -54.5q-1 -3 0.5 -7
t3.5 -4q44 -2 129 0q19 0 26.5 5t7.5 20q0 22 -20 41t-46 19z" />
    <glyph glyph-name="Gcircumflex" unicode="&#x11c;" horiz-adv-x="724" 
d="M415 661q65 0 168 -22q33 -7 38 -8q4 0 8 -6.5t4 -17.5q0 -9 7 -49t7 -61q0 -22 -13 -22q-9 0 -18 23q-15 41 -38 70q-19 24 -62 43t-98 19q-124 0 -198 -87t-74 -211q0 -108 45 -182q39 -66 104.5 -102t137.5 -36q15 0 43.5 6t46.5 18q6 4 13.5 23t7.5 29q0 86 -3 104
q-4 14 -9.5 21.5t-25.5 15.5t-55 10q-26 2 -26 17q0 14 30 14q8 0 56 -2t64 -2q11 0 42 2t48 2q27 0 27 -13q0 -9 -23 -17q-14 -4 -22 -10t-9.5 -9.5t-4.5 -11.5q-5 -14 -5 -124q0 -21 14 -29q17 -9 17 -18q0 -10 -15 -14q-5 -2 -37 -10t-54 -14q-65 -18 -138 -18
q-165 0 -266 91q-103 99 -103 246q0 153 113 252q47 42 115 66t141 24zM408 818q10 0 37 -22q70 -60 82 -70q17 -12 11 -22q-2 -4 -9 -4q-9 0 -28 8q-14 6 -29 13.5t-32.5 16t-27.5 13.5q-7 3 -16 -1q-33 -15 -86 -41q-1 0 -11.5 -4.5t-15.5 -4.5q-27 0 0 24l2 2
q9 8 40.5 35t45.5 38q24 19 37 19z" />
    <glyph glyph-name="gcircumflex" unicode="&#x11d;" horiz-adv-x="416" 
d="M219 641q9 0 28 -38q32 -58 66 -125q15 -34 -2 -34q-10 0 -24 19q-7 11 -32 44.5t-34 47.5q-4 8 -9 1q-37 -57 -67 -95q-10 -15 -21 -15q-5 0 -6.5 7.5t1.5 15.5q14 33 72 139q18 33 28 33zM205 408q37 0 87 -12q5 -1 14.5 -3t13.5 -3q2 0 52.5 -2.5t63.5 -5.5
q9 -2 9 -11q0 -10 -7 -21t-11 -11q-42 0 -67 2q-3 0 -5 -3t-1 -5q8 -24 8 -50q0 -83 -56 -126q-49 -38 -109 -38q-3 0 -17 0.5t-18 0.5q-10 2 -15 -1q-8 -4 -20 -16t-12 -18q0 -17 15 -30.5t26 -14.5q13 -1 56.5 -2t78.5 -2.5t49 -3.5q20 -3 48 -24q42 -36 42 -88
q0 -93 -94 -154q-66 -43 -144 -43q-75 0 -125 37q-21 16 -33.5 40.5t-12.5 46.5q0 20 6.5 35t10 18t12.5 10q14 12 39 31t30 23q3 3 -3 7l-16 7q-15 7 -23 13q-34 24 -34 74q0 4 5 9q5 4 35 23.5t39 28.5q2 2 -4 9q-76 43 -76 127q0 69 61 114q43 32 102 32zM197 384
q-13 0 -28 -8t-22 -17q-26 -28 -26 -89q0 -43 27 -84t72 -41q11 0 33 14q18 11 28 42t10 64q0 42 -22 75q-30 44 -72 44zM229 -235q46 0 79 18q55 36 55 93q0 33 -14 52q-18 24 -53 31q-27 5 -101 5q-39 0 -54 -10q-22 -15 -33.5 -38.5t-11.5 -43.5q0 -46 35 -76
q40 -31 98 -31z" />
    <glyph glyph-name="Gbreve" unicode="&#x11e;" horiz-adv-x="724" 
d="M415 661q65 0 168 -22q33 -7 38 -8q4 0 8 -6.5t4 -17.5q0 -9 7 -49t7 -61q0 -22 -13 -22q-9 0 -18 23q-15 41 -38 70q-19 24 -62 43t-98 19q-124 0 -198 -87t-74 -211q0 -108 45 -182q39 -66 104.5 -102t137.5 -36q15 0 43.5 6t46.5 18q6 4 13.5 23t7.5 29q0 86 -3 104
q-4 14 -9.5 21.5t-25.5 15.5t-55 10q-26 2 -26 17q0 14 30 14q8 0 56 -2t64 -2q11 0 42 2t48 2q27 0 27 -13q0 -9 -23 -17q-14 -4 -22 -10t-9.5 -9.5t-4.5 -11.5q-5 -14 -5 -124q0 -21 14 -29q17 -9 17 -18q0 -10 -15 -14q-5 -2 -37 -10t-54 -14q-65 -18 -138 -18
q-165 0 -266 91q-103 99 -103 246q0 153 113 252q47 42 115 66t141 24zM400 713q-45 0 -77.5 26.5t-38.5 67.5q-1 6 2 13t9 7q5 0 15 -12q38 -45 96 -45q63 0 98 42q11 13 19 13q9 0 6 -15q-7 -36 -38.5 -66.5t-90.5 -30.5z" />
    <glyph glyph-name="gbreve" unicode="&#x11f;" horiz-adv-x="416" 
d="M210 475q-37 0 -65 25t-33 80q-1 14 4 21t11 7q9 0 15 -20q17 -59 75 -59q59 0 81 61q2 7 9 12t13 5q5 0 5 -24q-5 -41 -33.5 -74.5t-81.5 -33.5zM205 408q37 0 87 -12q5 -1 14.5 -3t13.5 -3q2 0 52.5 -2.5t63.5 -5.5q9 -2 9 -11q0 -10 -7 -21t-11 -11q-42 0 -67 2
q-3 0 -5 -3t-1 -5q8 -24 8 -50q0 -83 -56 -126q-49 -38 -109 -38q-3 0 -17 0.5t-18 0.5q-10 2 -15 -1q-8 -4 -20 -16t-12 -18q0 -17 15 -30.5t26 -14.5q13 -1 56.5 -2t78.5 -2.5t49 -3.5q20 -3 48 -24q42 -36 42 -88q0 -93 -94 -154q-66 -43 -144 -43q-75 0 -125 37
q-21 16 -33.5 40.5t-12.5 46.5q0 20 6.5 35t10 18t12.5 10q14 12 39 31t30 23q3 3 -3 7l-16 7q-15 7 -23 13q-34 24 -34 74q0 4 5 9q5 4 35 23.5t39 28.5q2 2 -4 9q-76 43 -76 127q0 69 61 114q43 32 102 32zM197 384q-13 0 -28 -8t-22 -17q-26 -28 -26 -89q0 -43 27 -84
t72 -41q11 0 33 14q18 11 28 42t10 64q0 42 -22 75q-30 44 -72 44zM229 -235q46 0 79 18q55 36 55 93q0 33 -14 52q-18 24 -53 31q-27 5 -101 5q-39 0 -54 -10q-22 -15 -33.5 -38.5t-11.5 -43.5q0 -46 35 -76q40 -31 98 -31z" />
    <glyph glyph-name="Gdotaccent" unicode="&#x120;" horiz-adv-x="724" 
d="M415 661q65 0 168 -22q33 -7 38 -8q4 0 8 -6.5t4 -17.5q0 -9 7 -49t7 -61q0 -22 -13 -22q-9 0 -18 23q-15 41 -38 70q-19 24 -62 43t-98 19q-124 0 -198 -87t-74 -211q0 -108 45 -182q39 -66 104.5 -102t137.5 -36q15 0 43.5 6t46.5 18q6 4 13.5 23t7.5 29q0 86 -3 104
q-4 14 -9.5 21.5t-25.5 15.5t-55 10q-26 2 -26 17q0 14 30 14q8 0 56 -2t64 -2q11 0 42 2t48 2q27 0 27 -13q0 -9 -23 -17q-14 -4 -22 -10t-9.5 -9.5t-4.5 -11.5q-5 -14 -5 -124q0 -21 14 -29q17 -9 17 -18q0 -10 -15 -14q-5 -2 -37 -10t-54 -14q-65 -18 -138 -18
q-165 0 -266 91q-103 99 -103 246q0 153 113 252q47 42 115 66t141 24zM409 822q22 0 35 -17t13 -37q0 -22 -16 -36.5t-34 -14.5t-34 14t-16 39q0 20 15 36t37 16z" />
    <glyph glyph-name="gdotaccent" unicode="&#x121;" horiz-adv-x="416" 
d="M211 605q21 0 33 -16t12 -35q0 -20 -15 -34t-31 -14q-18 0 -33.5 12.5t-15.5 37.5q0 19 14.5 34t35.5 15zM205 408q37 0 87 -12q5 -1 14.5 -3t13.5 -3q2 0 52.5 -2.5t63.5 -5.5q9 -2 9 -11q0 -10 -7 -21t-11 -11q-42 0 -67 2q-3 0 -5 -3t-1 -5q8 -24 8 -50
q0 -83 -56 -126q-49 -38 -109 -38q-3 0 -17 0.5t-18 0.5q-10 2 -15 -1q-8 -4 -20 -16t-12 -18q0 -17 15 -30.5t26 -14.5q13 -1 56.5 -2t78.5 -2.5t49 -3.5q20 -3 48 -24q42 -36 42 -88q0 -93 -94 -154q-66 -43 -144 -43q-75 0 -125 37q-21 16 -33.5 40.5t-12.5 46.5
q0 20 6.5 35t10 18t12.5 10q14 12 39 31t30 23q3 3 -3 7l-16 7q-15 7 -23 13q-34 24 -34 74q0 4 5 9q5 4 35 23.5t39 28.5q2 2 -4 9q-76 43 -76 127q0 69 61 114q43 32 102 32zM197 384q-13 0 -28 -8t-22 -17q-26 -28 -26 -89q0 -43 27 -84t72 -41q11 0 33 14q18 11 28 42
t10 64q0 42 -22 75q-30 44 -72 44zM229 -235q46 0 79 18q55 36 55 93q0 33 -14 52q-18 24 -53 31q-27 5 -101 5q-39 0 -54 -10q-22 -15 -33.5 -38.5t-11.5 -43.5q0 -46 35 -76q40 -31 98 -31z" />
    <glyph glyph-name="Gcommaaccent" unicode="&#x122;" horiz-adv-x="724" 
d="M415 661q65 0 168 -22q33 -7 38 -8q4 0 8 -6.5t4 -17.5q0 -9 7 -49t7 -61q0 -22 -13 -22q-9 0 -18 23q-15 41 -38 70q-19 24 -62 43t-98 19q-124 0 -198 -87t-74 -211q0 -108 45 -182q39 -66 104.5 -102t137.5 -36q15 0 43.5 6t46.5 18q6 4 13.5 23t7.5 29q0 86 -3 104
q-4 14 -9.5 21.5t-25.5 15.5t-55 10q-26 2 -26 17q0 14 30 14q8 0 56 -2t64 -2q11 0 42 2t48 2q27 0 27 -13q0 -9 -23 -17q-14 -4 -22 -10t-9.5 -9.5t-4.5 -11.5q-5 -14 -5 -124q0 -21 14 -29q17 -9 17 -18q0 -10 -15 -14q-5 -2 -37 -10t-54 -14q-65 -18 -138 -18
q-165 0 -266 91q-103 99 -103 246q0 153 113 252q47 42 115 66t141 24zM395 -62q28 0 48 -21t20 -59q0 -36 -22 -62t-43 -35t-34 -9q-14 0 -14 8t12 14q20 8 36.5 25t16.5 36q0 23 -24 30q-39 11 -39 35q0 19 14 28.5t29 9.5z" />
    <glyph glyph-name="gcommaaccent" unicode="&#x123;" horiz-adv-x="416" 
d="M217 465q-28 0 -48.5 22.5t-20.5 60.5q0 52 37 78.5t63 26.5q14 0 14 -7t-11 -14q-54 -21 -54 -64q0 -28 24 -29q13 -1 25.5 -9t12.5 -25q0 -20 -13.5 -30t-28.5 -10zM205 408q37 0 87 -12q5 -1 14.5 -3t13.5 -3q2 0 52.5 -2.5t63.5 -5.5q9 -2 9 -11q0 -10 -7 -21
t-11 -11q-42 0 -67 2q-3 0 -5 -3t-1 -5q8 -24 8 -50q0 -83 -56 -126q-49 -38 -109 -38q-3 0 -17 0.5t-18 0.5q-10 2 -15 -1q-8 -4 -20 -16t-12 -18q0 -17 15 -30.5t26 -14.5q13 -1 56.5 -2t78.5 -2.5t49 -3.5q20 -3 48 -24q42 -36 42 -88q0 -93 -94 -154q-66 -43 -144 -43
q-75 0 -125 37q-21 16 -33.5 40.5t-12.5 46.5q0 20 6.5 35t10 18t12.5 10q14 12 39 31t30 23q3 3 -3 7l-16 7q-15 7 -23 13q-34 24 -34 74q0 4 5 9q5 4 35 23.5t39 28.5q2 2 -4 9q-76 43 -76 127q0 69 61 114q43 32 102 32zM197 384q-13 0 -28 -8t-22 -17q-26 -28 -26 -89
q0 -43 27 -84t72 -41q11 0 33 14q18 11 28 42t10 64q0 42 -22 75q-30 44 -72 44zM229 -235q46 0 79 18q55 36 55 93q0 33 -14 52q-18 24 -53 31q-27 5 -101 5q-39 0 -54 -10q-22 -15 -33.5 -38.5t-11.5 -43.5q0 -46 35 -76q40 -31 98 -31z" />
    <glyph glyph-name="Hcircumflex" unicode="&#x124;" horiz-adv-x="816" 
d="M212 367q1 -13 3 -16.5t8 -3.5q15 0 142 1.5t230 1.5q8 0 11 26q1 7 0.5 82t-2.5 101q-2 28 -11.5 38t-43.5 19q-25 7 -25 19q0 11 31 11q5 0 46.5 -1t55.5 -1q20 0 54 1.5t37 1.5q28 0 28 -12q0 -10 -29 -17q-30 -7 -40 -20t-12 -37q-8 -82 -8 -330q0 -26 2 -85t2 -63
q1 -28 11 -37t46 -19q23 -8 23 -19t-28 -11q-6 0 -36 1.5t-47 1.5q-11 0 -59 -3t-58 -3q-25 0 -25 11q0 12 22 18q40 12 50 28t12 70q4 84 4 161q0 21 -12 21q-60 0 -160.5 0.5t-140.5 1t-71 -0.5q-3 0 -7 -5.5t-4 -11.5v-183q1 -36 12 -52t42 -26q29 -8 30 -20
q0 -4 -4.5 -6t-11 -3t-13.5 -1q-2 0 -21 1t-43 2t-40 1q-10 0 -45.5 -2t-53.5 -2q-30 0 -30 10q0 13 23 19q38 10 49 21t14 41q9 123 9 317v154q-2 27 -11 39t-39 18q-28 5 -28 19q0 11 29 11q14 0 46 -1t45 -1q23 0 54.5 1t40.5 1q32 0 32 -11q0 -13 -29 -19
q-33 -6 -42 -19t-11 -47q-2 -23 -3 -95t0 -87zM426 822q10 0 37 -22q70 -60 82 -70q17 -12 11 -22q-2 -4 -9 -4q-9 0 -28 8q-14 6 -29 13.5t-32.5 16t-27.5 13.5q-7 3 -16 -1q-33 -15 -86 -41q-1 0 -11.5 -4.5t-15.5 -4.5q-27 0 0 24l2 2q9 8 40.5 35t45.5 38q24 19 37 19z
" />
    <glyph glyph-name="hcircumflex" unicode="&#x125;" horiz-adv-x="513" 
d="M128 827q10 0 35 -20q4 -4 78 -60q16 -10 11 -19q-3 -3 -9 -3q-3 0 -27 7q-17 6 -84 36q-8 4 -16 0q-52 -22 -81 -36q-3 0 -12.5 -3.5t-13.5 -3.5q-25 0 1 23q12 8 42 31t40 30q26 18 36 18zM290 404q73 0 106 -46q29 -39 29 -108q1 -33 2.5 -94.5t1.5 -90.5q0 -18 9 -26
t30 -13q28 -6 28 -16q0 -13 -27 -13q-17 0 -39.5 1.5t-39.5 1.5q-11 0 -34 -1t-38 -1q-20 0 -20 12q0 9 21 14q19 6 24 13.5t8 35.5q1 8 1 39.5t-0.5 67.5t-0.5 38q0 81 -16 100q-28 33 -81 33q-19 0 -38.5 -5t-29 -10t-12.5 -8q-15 -15 -16 -49q-2 -29 -2.5 -106.5
t0.5 -101.5q1 -23 10 -31.5t29 -13.5q22 -6 22 -16q0 -12 -25 -12q-2 0 -35 1t-47 1q-12 0 -40 -1.5t-36 -1.5q-23 0 -23 13q0 9 29 17q20 7 28.5 18.5t10.5 38.5q10 140 10 414q0 80 -3 102q-2 19 -7 25.5t-26 20.5q-10 5 -10 20l3 5q84 24 100 35q14 7 19 7q6 0 6 -11
q-6 -46 -10 -172.5t-4 -177.5q0 -3 1.5 -4.5t3 -1.5h2.5q64 58 126 58z" />
    <glyph glyph-name="Hbar" unicode="&#x126;" horiz-adv-x="816" 
d="M741 451h-42q-10 -3 -10 -12q-2 -110 -2 -209q0 -26 2 -85t2 -62q1 -28 11.5 -37t45.5 -19q23 -7 23 -18q0 -12 -28 -12q-6 0 -36.5 1.5t-47.5 1.5q-11 0 -58.5 -3t-57.5 -3q-25 0 -25 12q0 9 22 17q40 13 51 29.5t11 68.5q0 21 2 66.5t2 70.5q0 14 -2.5 18t-9.5 4h-373
q-2 0 -6 -6t-4 -12v-158q0 -35 11.5 -51.5t42.5 -26.5q29 -8 30 -19q0 -4 -4.5 -6.5t-11 -3.5t-13.5 -1q-2 0 -20.5 1t-42.5 2t-40 1q-10 0 -46 -2t-54 -2q-30 0 -30 10q0 13 23 19q38 10 49 21t13 41q11 187 11 358q0 6 -6 6h-57q-7 1 -8.5 2t-1.5 7q0 8 4.5 17.5t9.5 9.5
h53q7 0 7 6q0 51 -1 66q-1 24 -12.5 36t-38.5 20q-28 8 -28 19t28 11q14 0 46.5 -1t45.5 -1q23 0 55 1t41 1q31 0 31 -12t-30 -18q-30 -7 -40 -20t-12 -46q-1 -11 -3 -56q0 -4 7 -6h378q9 0 9 9q0 14 -1 35.5t-1 27.5q0 27 -10.5 37.5t-44.5 19.5q-25 7 -25 19q0 11 31 11
q5 0 46.5 -1.5t55.5 -1.5q19 0 53.5 1.5t37.5 1.5q28 0 28 -11t-29 -18q-30 -7 -40 -19.5t-12 -35.5q-2 -16 -4 -67q0 -6 7 -8h48q8 1 8 -9q1 -10 -3 -18.5t-10 -8.5zM212 345q1 -15 2.5 -18.5t7.5 -3.5q15 0 143.5 1.5t229.5 1.5q8 0 11 26q0 13 0.5 45t0.5 44q0 8 -8 10
h-381q-6 0 -6 -6q-4 -70 0 -100z" />
    <glyph glyph-name="hbar" unicode="&#x127;" horiz-adv-x="513" 
d="M28 569l57 1q3 0 3 10v30q0 14 -6 21.5t-29 22.5q-7 5 -7 11q0 7 10 11q70 25 71 26q20 12 29 12q3 0 6.5 -4t3.5 -7q-5 -104 -6 -125q0 -8 5 -8l117 -1q5 0 5 -12q0 -5 -4 -13t-7 -8l-110 -1q-4 0 -6 -12q-1 -7 -1 -163q0 -4 4 -5q1 -1 2 0q26 19 63 34t64 15
q72 0 105 -46q29 -39 29 -108q0 -31 0.5 -93t1.5 -92q0 -18 9.5 -25.5t31.5 -12.5q27 -5 27 -16q0 -14 -26 -14q-17 0 -40.5 1.5t-40.5 1.5q-11 0 -33.5 -1.5t-38.5 -1.5q-21 0 -21 15q0 9 20 14q19 5 25.5 14t8.5 33q3 28 3 153q0 73 -20 97q-26 29 -80 29q-43 0 -83 -20
q-11 -7 -11 -17q-2 -43 -2 -130.5t1 -113.5q1 -23 8 -30.5t27 -13.5q24 -7 24 -16q0 -14 -23 -14q-2 0 -35 1.5t-47 1.5q-12 0 -39 -1.5t-35 -1.5q-22 0 -22 13q0 11 27 19q21 6 29.5 17t10.5 38q5 70 5 279q0 19 0.5 74.5t0.5 84.5q0 13 -5 13l-58 1q-2 0 -4.5 2.5
t-2.5 4.5q0 24 9 26z" />
    <glyph glyph-name="Itilde" unicode="&#x128;" horiz-adv-x="339" 
d="M128 326q0 170 -3 219q-1 22 -2.5 30t-7 18.5t-17 14.5t-32.5 8q-28 5 -28 18q0 12 25 12q12 0 52 -1.5t57 -1.5q26 0 58.5 1.5t48.5 1.5q25 0 25 -12t-26 -17q-21 -4 -33 -10t-18 -18t-6.5 -15l-3.5 -21q-6 -40 -6 -294q0 -101 3 -149q2 -44 14.5 -60.5t58.5 -25.5
q26 -4 26 -17t-27 -13q-28 0 -83 3t-66 3q-14 0 -35.5 -1t-40.5 -1q-26 0 -26 14q0 11 30 17q36 8 45.5 21.5t12.5 51.5q5 58 5 224zM62 724q17 26 33 47q7 9 25 9q124 0 141 4q15 4 32 30q7 7 9 7q8 0 15 -14q4 -8 -3 -15q-6 -6 -26 -32t-25 -31q-6 -6 -14 -6
q-139 0 -146 -2q-10 -3 -28 -27q-4 -7 -9 -7q-7 0 -11 5t-4 8q0 6 11 24z" />
    <glyph glyph-name="itilde" unicode="&#x129;" horiz-adv-x="253" 
d="M58 515q-9 0 -30 -23q-5 -6 -10 -6q-2 0 -7.5 7t-5.5 9q0 1 8 12t24 27.5t32 26.5q7 6 15 4q33 -9 95 -9q21 0 29 6q12 9 25 25q3 3 12 -3.5t9 -10.5t-3 -6l-15.5 -15.5t-29.5 -30.5l-17 -16q-6 -7 -11 -7q-4 0 -51 5t-69 5zM45 359q0 11 20 15q22 5 59 19t40 15
q3 0 6 -5t3 -6q0 -3 -1.5 -41t-3 -85t-1.5 -72q0 -63 2 -133q0 -8 2.5 -14t4.5 -9.5t8.5 -7t8.5 -4.5t12 -3.5t12 -3.5q22 -7 22 -17t-23 -10q-2 0 -34 1.5t-44 1.5q-18 0 -48 -2t-37 -2q-26 0 -26 11q0 9 24 16q36 9 40 28t4 103q0 150 -1 156q-1 9 -39 36q-10 6 -10 13z
" />
    <glyph glyph-name="Imacron" unicode="&#x12a;" horiz-adv-x="339" 
d="M128 326q0 170 -3 219q-1 22 -2.5 30t-7 18.5t-17 14.5t-32.5 8q-28 5 -28 18q0 12 25 12q12 0 52 -1.5t57 -1.5q26 0 58.5 1.5t48.5 1.5q25 0 25 -12t-26 -17q-21 -4 -33 -10t-18 -18t-6.5 -15l-3.5 -21q-6 -40 -6 -294q0 -101 3 -149q2 -44 14.5 -60.5t58.5 -25.5
q26 -4 26 -17t-27 -13q-28 0 -83 3t-66 3q-14 0 -35.5 -1t-40.5 -1q-26 0 -26 14q0 11 30 17q36 8 45.5 21.5t12.5 51.5q5 58 5 224zM65 780l215 6q3 0 6.5 -7.5t3.5 -14.5q0 -14 -6.5 -25.5t-12.5 -11.5l-212 -2q-9 0 -9 16q0 9 5.5 24t9.5 15z" />
    <glyph glyph-name="imacron" unicode="&#x12b;" horiz-adv-x="253" 
d="M21 573l209 4q3 0 6 -6.5t3 -9.5q0 -17 -6 -29.5t-15 -12.5h-204q-8 0 -8 12q0 15 5 28.5t10 13.5zM45 359q0 11 20 15q22 5 59 19t40 15q3 0 6 -5t3 -6q0 -3 -1.5 -41t-3 -85t-1.5 -72q0 -63 2 -133q0 -8 2.5 -14t4.5 -9.5t8.5 -7t8.5 -4.5t12 -3.5t12 -3.5
q22 -7 22 -17t-23 -10q-2 0 -34 1.5t-44 1.5q-18 0 -48 -2t-37 -2q-26 0 -26 11q0 9 24 16q36 9 40 28t4 103q0 150 -1 156q-1 9 -39 36q-10 6 -10 13z" />
    <glyph glyph-name="Ibreve" unicode="&#x12c;" horiz-adv-x="339" 
d="M128 326q0 170 -3 219q-1 22 -2.5 30t-7 18.5t-17 14.5t-32.5 8q-28 5 -28 18q0 12 25 12q12 0 52 -1.5t57 -1.5q26 0 58.5 1.5t48.5 1.5q25 0 25 -12t-26 -17q-21 -4 -33 -10t-18 -18t-6.5 -15l-3.5 -21q-6 -40 -6 -294q0 -101 3 -149q2 -44 14.5 -60.5t58.5 -25.5
q26 -4 26 -17t-27 -13q-28 0 -83 3t-66 3q-14 0 -35.5 -1t-40.5 -1q-26 0 -26 14q0 11 30 17q36 8 45.5 21.5t12.5 51.5q5 58 5 224zM167 699q-45 0 -77.5 26.5t-38.5 67.5q-1 6 2 13t9 7q5 0 15 -12q38 -45 96 -45q63 0 98 42q11 13 19 13q9 0 6 -15q-7 -36 -38.5 -66.5
t-90.5 -30.5z" />
    <glyph glyph-name="ibreve" unicode="&#x12d;" horiz-adv-x="253" 
d="M119 475q-37 0 -65 25t-33 80q-1 14 4 21t11 7q9 0 15 -20q17 -59 75 -59q59 0 81 61q2 7 9 12t13 5q5 0 5 -24q-5 -41 -33.5 -74.5t-81.5 -33.5zM45 359q0 11 20 15q22 5 59 19t40 15q3 0 6 -5t3 -6q0 -3 -1.5 -41t-3 -85t-1.5 -72q0 -63 2 -133q0 -8 2.5 -14t4.5 -9.5
t8.5 -7t8.5 -4.5t12 -3.5t12 -3.5q22 -7 22 -17t-23 -10q-2 0 -34 1.5t-44 1.5q-18 0 -48 -2t-37 -2q-26 0 -26 11q0 9 24 16q36 9 40 28t4 103q0 150 -1 156q-1 9 -39 36q-10 6 -10 13z" />
    <glyph glyph-name="Iogonek" unicode="&#x12e;" horiz-adv-x="339" 
d="M128 326q0 170 -3 219q-1 22 -2.5 30t-7 18.5t-16.5 14.5t-32 8q-29 5 -29 18q0 12 25 12q12 0 52 -1.5t57 -1.5q26 0 58.5 1.5t48.5 1.5q25 0 25 -12t-26 -17q-21 -4 -33 -10t-18 -18t-6.5 -15l-3.5 -21q-6 -40 -6 -294q0 -101 3 -149q2 -44 14.5 -60.5t58.5 -25.5
q26 -4 26 -17t-27 -13q-38 0 -75 3q-69 -81 -69 -148q0 -24 14 -38.5t35 -14.5q30 0 60 17q4 2 8 -0.5t4 -7.5q0 -2 -7 -23q-11 -20 -38 -34.5t-63 -14.5q-42 0 -65.5 26t-23.5 64q0 39 32.5 87.5t82.5 87.5q-38 2 -44 2q-14 0 -35.5 -1t-40.5 -1q-26 0 -26 14q0 8 30 16
q35 8 45 22t13 52q5 58 5 224z" />
    <glyph glyph-name="iogonek" unicode="&#x12f;" horiz-adv-x="253" 
d="M50 362q0 12 23 16q45 9 88 26q4 1 6.5 -2.5t2.5 -8.5q0 -2 -1 -38.5t-1.5 -82.5t-0.5 -71q0 -65 2 -135q0 -15 6.5 -24t12 -11.5t17.5 -5.5q22 -5 22 -17q0 -11 -19 -11q-4 0 -50 2q-56 -67 -56 -131q0 -24 13.5 -37t34.5 -13q28 0 56 20q3 3 6.5 2t3.5 -5q0 -10 -6 -22
q-12 -21 -37.5 -38t-58.5 -17q-40 0 -62 25t-22 61q0 32 29.5 77t70.5 79h-10q-18 0 -41.5 -1.5t-29.5 -1.5q-22 0 -22 12q0 9 23 15q37 10 41 26q5 16 5 146q0 109 -3 127q-3 15 -29 24q-14 6 -14 15zM136 606q19 0 30 -16t11 -33q0 -19 -15 -32.5t-33 -13.5
q-16 0 -29.5 12.5t-13.5 35.5q0 18 13.5 32.5t36.5 14.5z" />
    <glyph glyph-name="Idotaccent" unicode="&#x130;" horiz-adv-x="339" 
d="M128 326q0 170 -3 219q-1 22 -2.5 30t-7 18.5t-17 14.5t-32.5 8q-28 5 -28 18q0 12 25 12q12 0 52 -1.5t57 -1.5q26 0 58.5 1.5t48.5 1.5q25 0 25 -12t-26 -17q-21 -4 -33 -10t-18 -18t-6.5 -15l-3.5 -21q-6 -40 -6 -294q0 -101 3 -149q2 -44 14.5 -60.5t58.5 -25.5
q26 -4 26 -17t-27 -13q-28 0 -83 3t-66 3q-14 0 -35.5 -1t-40.5 -1q-26 0 -26 14q0 11 30 17q36 8 45.5 21.5t12.5 51.5q5 58 5 224zM170 803q22 0 35 -17t13 -37q0 -22 -16 -36.5t-34 -14.5t-34 14t-16 39q0 20 15 36t37 16z" />
    <glyph glyph-name="dotlessi" unicode="&#x131;" horiz-adv-x="253" 
d="M45 359q0 11 20 15q22 5 59 19t40 15q3 0 6 -5t3 -6q0 -3 -1.5 -41t-3 -85t-1.5 -72q0 -63 2 -133q0 -8 2.5 -14t4.5 -9.5t8.5 -7t8.5 -4.5t12 -3.5t12 -3.5q22 -7 22 -17t-23 -10q-2 0 -34 1.5t-44 1.5q-18 0 -48 -2t-37 -2q-26 0 -26 11q0 9 24 16q36 9 40 28t4 103
q0 150 -1 156q-1 9 -39 36q-10 6 -10 13z" />
    <glyph glyph-name="IJ" unicode="&#x132;" horiz-adv-x="669" 
d="M128 326q0 170 -3 219q-1 22 -2.5 30t-7 18.5t-17 14.5t-32.5 8q-28 5 -28 18q0 12 25 12q12 0 52 -1.5t57 -1.5q26 0 58.5 1.5t48.5 1.5q25 0 25 -12t-26 -17q-21 -4 -33 -10t-18 -18t-6.5 -15l-3.5 -21q-6 -40 -6 -294q0 -101 3 -149q2 -44 14.5 -60.5t58.5 -25.5
q26 -4 26 -17t-27 -13q-28 0 -83 3t-66 3q-14 0 -35.5 -1t-40.5 -1q-26 0 -26 14q0 11 30 17q36 8 45.5 21.5t12.5 51.5q5 58 5 224zM266 -167q0 17 23 40q13 13 24 13q14 0 31 -12q33 -21 52 -21q23 0 40 19q24 25 28 83q6 93 6 312q0 222 -6 294q-1 13 -4.5 21.5t-17 18.5
t-37.5 14q-31 5 -31 19q0 12 27 12q14 0 50.5 -1.5t60.5 -1.5q18 0 54 1.5t51 1.5q27 0 27 -10q0 -14 -30 -20q-32 -6 -44.5 -21t-12.5 -52q0 -41 -2 -225t-2 -228q-1 -84 -33 -149.5t-75 -98.5q-63 -48 -114 -48q-25 0 -45 12.5t-20 26.5z" />
    <glyph glyph-name="ij" unicode="&#x133;" horiz-adv-x="489" 
d="M45 357q0 13 20 17q22 5 59 19t40 15q3 0 6 -5t3 -6q0 -3 -1.5 -41t-3 -85t-1.5 -72q0 -63 2 -133q0 -8 2.5 -14t4.5 -9.5t8.5 -7t8.5 -4.5t12 -3.5t12 -3.5q22 -7 22 -17t-23 -10q-2 0 -34 1.5t-44 1.5q-18 0 -48 -2t-37 -2q-26 0 -26 11q0 9 24 16q36 9 40 28t4 103
q0 150 -1 156q-1 7 -41 36q-8 5 -8 11zM136 607q19 0 31.5 -16.5t12.5 -32.5q0 -19 -16 -34t-32 -15q-18 0 -32 12q-15 17 -15 37t12 36q14 13 39 13zM286 354q0 9 17 15q71 21 94 33q9 5 17 5q1 0 4 -4.5t3 -6.5q-1 -32 -3 -192t-2 -170q-3 -116 -44 -185q-36 -62 -94 -103
q-24 -18 -34 -18q-16 0 -22 5q-4 6 1 11q48 30 64 50q54 68 54 250q0 236 -4 265q-2 14 -41 35q-10 5 -10 10zM372 615q27 0 40 -17.5t13 -32.5q0 -24 -16 -37t-33 -13q-14 0 -30.5 15t-17.5 34q0 24 19 41q10 10 25 10z" />
    <glyph glyph-name="Jcircumflex" unicode="&#x134;" horiz-adv-x="330" 
d="M-73 -167q0 17 23 40q13 13 24 13q14 0 31 -12q33 -21 52 -21q23 0 40 19q24 25 28 83q6 93 6 312q0 222 -6 294q-1 13 -4.5 21.5t-17 18.5t-37.5 14q-31 5 -31 19q0 12 27 12q14 0 50.5 -1.5t60.5 -1.5q18 0 54 1.5t51 1.5q27 0 27 -10q0 -14 -30 -20q-32 -6 -44.5 -21
t-12.5 -52q0 -41 -2 -225t-2 -228q-1 -84 -33 -149.5t-75 -98.5q-63 -48 -114 -48q-25 0 -45 12.5t-20 26.5zM174 816q10 0 37 -22q70 -60 82 -70q17 -12 11 -22q-2 -4 -9 -4q-9 0 -28 8q-14 6 -29 13.5t-32.5 16t-27.5 13.5q-7 3 -16 -1q-33 -15 -86 -41q-1 0 -11.5 -4.5
t-15.5 -4.5q-27 0 0 24l2 2q9 8 40.5 35t45.5 38q24 19 37 19z" />
    <glyph glyph-name="jcircumflex" unicode="&#x135;" horiz-adv-x="235" 
d="M33 355q0 8 17 14q71 21 94 33q9 5 17 5q1 0 4 -4.5t3 -6.5q-5 -142 -5 -362q0 -50 -12.5 -102t-31.5 -84q-34 -58 -94 -102q-25 -19 -36 -19q-13 0 -20 6q-4 6 1 11q42 24 66 51q52 65 52 240q0 245 -4 274q-2 14 -41 35q-10 5 -10 11zM118 641q9 0 28 -38
q32 -58 66 -125q15 -34 -2 -34q-10 0 -24 19q-7 11 -32 44.5t-34 47.5q-4 8 -9 1q-37 -57 -67 -95q-10 -15 -21 -15q-5 0 -6.5 7.5t1.5 15.5q14 33 72 139q18 33 28 33z" />
    <glyph glyph-name="Kcommaaccent" unicode="&#x136;" horiz-adv-x="683" 
d="M43 633q0 13 27 13q11 0 46 -1.5t52 -1.5q16 0 49 1t44 1q27 0 27 -12q0 -10 -29 -17q-27 -5 -37 -16t-11 -39q-2 -27 -2.5 -116.5t1.5 -98.5q2 -7 7 -7q2 0 9 3l6 4q23 17 110.5 102t112.5 113q37 41 -11 54q-23 8 -23 15q0 13 26 13q10 0 19.5 -0.5t18.5 -0.5
q11 0 72 2.5t76 2.5q26 0 26 -12q0 -11 -27 -18q-41 -9 -67.5 -23.5t-77.5 -53.5q-37 -29 -108.5 -95t-80.5 -80q-2 -7 0 -10q16 -20 267 -278q22 -22 41.5 -33.5t29.5 -14t34 -6.5q20 -5 20 -14q0 -15 -25 -15q-13 0 -73 4t-73 4q-20 0 -40 -0.5t-30 -0.5t-15.5 6t-5.5 12
q0 8 43 17q3 1 5 4.5t0 5.5q-48 61 -216 232q-5 5 -10.5 11.5t-9 9.5t-7 7.5t-6 6.5l-5 4t-4 2.5t-3.5 0.5t-5 -21q-3 -29 2 -218q1 -20 14 -32t46 -21q23 -5 23 -18t-26 -13q-10 0 -58 1.5t-65 1.5q-16 0 -48.5 -1.5t-48.5 -1.5q-9 0 -16.5 4t-7.5 9q0 10 29 17q39 8 54 24
t17 59q3 102 3 236q0 142 -4 214q-1 26 -12.5 37t-42.5 19q-26 7 -26 17zM350 -43q28 0 48 -21t20 -59q0 -36 -22 -62t-43 -35t-34 -9q-14 0 -14 8t12 14q20 8 36.5 25t16.5 36q0 22 -24 30q-39 11 -39 35q0 19 14 28.5t29 9.5z" />
    <glyph glyph-name="kcommaaccent" unicode="&#x137;" horiz-adv-x="479" 
d="M262 390h47q37 0 79.5 6t55.5 6q7 0 7 -7q0 -8 -7.5 -14.5t-12.5 -7.5q-39 -9 -59.5 -18.5t-56.5 -34.5q-20 -15 -48.5 -42.5t-32.5 -33.5q-3 -6 -1 -10q24 -29 79.5 -90t81.5 -87q29 -27 68 -36q24 -6 24 -16q0 -12 -25 -12q-8 0 -51.5 3t-73.5 3h-45q-25 0 -25 13
q0 9 22 14q29 7 13 28q-4 6 -21.5 25t-44 48t-47.5 54q-19 23 -25 23q-5 0 -5 -8q-4 -9 -3.5 -63t4.5 -76q2 -15 9.5 -21.5t27.5 -11.5q22 -6 22 -15q0 -11 -24 -11q-12 0 -41 1t-42 1q-19 0 -47 -2t-37 -2q-23 0 -23 11q0 8 23 15q29 7 38.5 15.5t13.5 28.5q7 33 7 343
q0 159 -6 211q0 8 -30 26q-13 10 -13 14q0 8 13 13q1 0 14 3.5t23.5 7t25.5 9t24 11.5q15 9 20 9q2 0 5 -5t2 -8q-9 -43 -9 -368q0 -92 3 -101t8 -9t20 13q89 84 106 108q1 3 2 6.5t-9 8t-31 7.5q-9 1 -9 7q0 4 6 11t11 7zM224 -42q28 0 48 -21t20 -59q0 -36 -22 -62
t-43 -35t-34 -9q-14 0 -14 8t12 14q20 8 36.5 25t16.5 36q0 23 -24 30q-39 11 -39 35q0 19 14 28.5t29 9.5z" />
    <glyph glyph-name="kgreenlandic" unicode="&#x138;" horiz-adv-x="476" 
d="M482 11q0 -14 -26 -14q-8 0 -44 1.5t-67 1.5q-15 0 -33.5 -1t-24.5 -1q-9 0 -18 4t-9 11q0 2 2 5t7.5 6.5t13.5 4.5q18 4 22 9t-4 16q-50 65 -100 118q-16 18 -28 18q-8 0 -8 -8q0 -110 3 -126q2 -14 11 -19.5t33 -11.5q4 -1 8.5 -5.5t4.5 -7.5q0 -15 -27 -15
q-12 0 -38 1.5t-39 1.5q-19 0 -40 -1.5t-30 -1.5q-27 0 -27 12q0 11 21 17q29 7 37 14t9 25q3 49 4 141q3 113 -1 129t-37 27q-18 6 -18 14q0 15 31 15q54 0 94 7q4 1 5.5 -2.5t1.5 -9.5q-6 -102 -6 -164q0 -9 7 -9q10 0 26 12q50 41 114 119q12 12 -14 18q-28 6 -28 16
q0 14 28 14q6 0 50 -2q23 -1 44 1.5t36 2.5q25 0 25 -12q0 -9 -23 -16q-34 -8 -53.5 -19t-49.5 -40q-5 -5 -32 -29.5t-44 -43.5q-5 -6 0 -15q50 -66 144 -163q20 -20 63 -28q12 -2 18 -7.5t6 -9.5z" />
    <glyph glyph-name="Lacute" unicode="&#x139;" horiz-adv-x="562" 
d="M46 633q0 12 30 12q13 0 36 -1t38 -1q21 0 71 1.5t60 1.5q25 0 25 -11t-23 -17q-40 -9 -52.5 -17.5t-14.5 -21.5q-6 -45 -6 -294q0 -149 7 -207q1 -10 14 -23.5t20 -14.5q33 -5 96 -5q49 0 71 3t40 19q32 32 57 67q13 22 25 22q11 0 4 -27q-23 -71 -31 -108
q-1 -7 -10 -12t-14 -5q-2 0 -16 0.5t-39 1.5t-58.5 2t-84.5 1.5t-108 0.5q-41 0 -85 -2l-44 -3q-29 0 -29 11q0 14 24 18q40 8 55 23t19 46q5 63 5 329q0 109 -1 142q-1 20 -11 32t-42 18q-28 6 -28 19zM289 825q15 10 28 5q9 -4 19 -13.5t10 -18.5q0 -14 -20 -26
q-89 -49 -150 -72q-24 -10 -34 0q-1 0 -1 3t3 9t10 12q59 50 135 101z" />
    <glyph glyph-name="lacute" unicode="&#x13a;" horiz-adv-x="244" 
d="M41 660q0 10 14 14q13 5 31 10.5t28 9t22 8.5t22 11q2 1 5.5 -3t3.5 -7q-9 -75 -9 -272q0 -348 3 -364q3 -17 12 -26.5t39 -17.5q23 -6 23 -15q0 -11 -26 -11q-13 0 -45 1.5t-40 1.5q-12 0 -45 -1.5t-43 -1.5q-28 0 -28 11q0 10 22 14q32 7 40.5 21.5t10.5 56.5
q7 133 7 304q0 42 -1.5 121t-1.5 88q0 13 -24 28q-20 14 -20 19zM219 868q15 10 28 5q9 -4 19 -13.5t10 -18.5q0 -14 -20 -26q-89 -49 -150 -72q-24 -10 -34 0q-1 0 -1 3t3 9t10 12q59 50 135 101z" />
    <glyph glyph-name="Lcommaaccent" unicode="&#x13b;" horiz-adv-x="562" 
d="M46 633q0 12 30 12q13 0 36 -1t38 -1q21 0 71 1.5t60 1.5q25 0 25 -11t-23 -17q-40 -9 -52.5 -17.5t-14.5 -21.5q-6 -45 -6 -294q0 -149 7 -207q1 -10 14 -23.5t20 -14.5q33 -5 96 -5q49 0 71 3t40 19q32 32 57 67q13 22 25 22q11 0 4 -27q-23 -71 -31 -108
q-1 -7 -10 -12t-14 -5q-2 0 -16 0.5t-39 1.5t-58.5 2t-84.5 1.5t-108 0.5q-41 0 -85 -2l-44 -3q-29 0 -29 11q0 14 24 18q40 8 55 23t19 46q5 63 5 329q0 109 -1 142q-1 20 -11 32t-42 18q-28 6 -28 19zM288 -48q28 0 48 -21t20 -59q0 -36 -22 -62t-43 -35t-34 -9
q-14 0 -14 8t12 14q20 8 36.5 25t16.5 36q0 23 -24 30q-39 11 -39 35q0 19 14 28.5t29 9.5z" />
    <glyph glyph-name="lcommaaccent" unicode="&#x13c;" horiz-adv-x="244" 
d="M41 660q0 10 14 14q13 5 31 10.5t28 9t22 8.5t22 11q2 1 5.5 -3t3.5 -7q-9 -75 -9 -272q0 -348 3 -364q3 -17 12 -26.5t39 -17.5q23 -6 23 -15q0 -11 -26 -11q-13 0 -45 1.5t-40 1.5q-12 0 -45 -1.5t-43 -1.5q-28 0 -28 11q0 10 22 14q32 7 40.5 21.5t10.5 56.5
q7 133 7 304q0 42 -1.5 121t-1.5 88q0 13 -24 28q-20 14 -20 19zM113 -42q28 0 48 -21t20 -59q0 -36 -22 -62t-43 -35t-34 -9q-14 0 -14 8t12 14q20 8 36.5 25t16.5 36q0 23 -24 30q-39 11 -39 35q0 19 14 28.5t29 9.5z" />
    <glyph glyph-name="Lcaron" unicode="&#x13d;" horiz-adv-x="562" 
d="M46 633q0 12 30 12q13 0 36 -1t38 -1q21 0 71 1.5t60 1.5q25 0 25 -11t-23 -17q-40 -9 -52.5 -17.5t-14.5 -21.5q-6 -45 -6 -294q0 -149 7 -207q1 -10 14 -23.5t20 -14.5q33 -5 96 -5q49 0 71 3t40 19q32 32 57 67q13 22 25 22q11 0 4 -27q-23 -71 -31 -108
q-1 -7 -10 -12t-14 -5q-2 0 -16 0.5t-39 1.5t-58.5 2t-84.5 1.5t-108 0.5q-41 0 -85 -2l-44 -3q-29 0 -29 11q0 14 24 18q40 8 55 23t19 46q5 63 5 329q0 109 -1 142q-1 20 -11 32t-42 18q-28 6 -28 19zM428 666q12 0 12 -18q1 -23 -9.5 -70t-22.5 -80q-1 -5 -9 -16t-14 -11
q-4 0 -7 8t-2 16q4 72 -6 128q0 7 5 12q7 8 25 19.5t28 11.5z" />
    <glyph glyph-name="lcaron" unicode="&#x13e;" horiz-adv-x="244" 
d="M41 660q0 10 14 14q13 5 31 10.5t28 9t22 8.5t22 11q2 1 5.5 -3t3.5 -7q-9 -75 -9 -272q0 -348 3 -364q3 -17 12 -26.5t39 -17.5q23 -6 23 -15q0 -11 -26 -11q-13 0 -45 1.5t-40 1.5q-12 0 -45 -1.5t-43 -1.5q-28 0 -28 11q0 10 22 14q32 7 40.5 21.5t10.5 56.5
q7 133 7 304q0 42 -1.5 121t-1.5 88q0 13 -24 28q-20 14 -20 19zM268 706q12 0 12 -18q1 -23 -9.5 -70t-22.5 -80q-1 -5 -9 -16t-14 -11q-4 0 -7 8t-2 16q4 72 -6 128q0 7 5 12q7 8 25 19.5t28 11.5z" />
    <glyph glyph-name="Ldot" unicode="&#x13f;" horiz-adv-x="562" 
d="M46 633q0 12 30 12q13 0 36 -1t38 -1q21 0 71 1.5t60 1.5q25 0 25 -11t-23 -17q-40 -9 -52.5 -17.5t-14.5 -21.5q-6 -45 -6 -294q0 -149 7 -207q1 -10 14 -23.5t20 -14.5q33 -5 96 -5q49 0 71 3t40 19q32 32 57 67q13 22 25 22q11 0 4 -27q-23 -71 -31 -108
q-1 -7 -10 -12t-14 -5q-2 0 -16 0.5t-39 1.5t-58.5 2t-84.5 1.5t-108 0.5q-41 0 -85 -2l-44 -3q-29 0 -29 11q0 14 24 18q40 8 55 23t19 46q5 63 5 329q0 109 -1 142q-1 20 -11 32t-42 18q-28 6 -28 19zM410 411q22 0 35 -17t13 -37q0 -22 -16 -36.5t-34 -14.5t-34 14
t-16 39q0 20 15 36t37 16z" />
    <glyph glyph-name="ldot" unicode="&#x140;" horiz-adv-x="244" 
d="M252 404q21 0 33 -16t12 -35q0 -20 -15 -34t-31 -14q-18 0 -33.5 12.5t-15.5 37.5q0 19 14.5 34t35.5 15zM41 660q0 10 14 14q13 5 31 10.5t28 9t22 8.5t22 11q2 1 5.5 -3t3.5 -7q-9 -75 -9 -272q0 -348 3 -364q3 -17 12 -26.5t39 -17.5q23 -6 23 -15q0 -11 -26 -11
q-13 0 -45 1.5t-40 1.5q-12 0 -45 -1.5t-43 -1.5q-28 0 -28 11q0 10 22 14q32 7 40.5 21.5t10.5 56.5q7 133 7 304q0 42 -1.5 121t-1.5 88q0 13 -24 28q-20 14 -20 19z" />
    <glyph glyph-name="Lslash" unicode="&#x141;" horiz-adv-x="562" 
d="M127 323q0 193 -1 226q-1 32 -10.5 45t-40.5 20q-30 6 -30 18t27 12q13 0 47.5 -0.5t49.5 -0.5q21 0 61 1.5t50 1.5q24 0 24 -11t-22 -17q-41 -9 -53 -18t-15 -34q-3 -23 -3 -213q0 -3 2 -5t4 -1q18 6 75 25.5t74 24.5q5 4 11 -5t6 -13q0 -9 -20 -17q-17 -7 -148 -55
q-4 0 -4 -9q0 -145 4 -212q1 -20 17 -33.5t32 -14.5q93 -6 140 -2q11 1 19 2.5t16.5 6t13 7t14 13t13 15.5t17.5 23t22 28q11 15 18 15q6 0 8 -6.5t0 -13.5q-16 -46 -35 -121q-4 -10 -23 -10q-2 0 -36.5 1.5t-105.5 2.5t-161 1q-20 0 -67 -2.5t-67 -2.5q-27 0 -27 12
q0 10 25 17q23 6 32 9t20 10t15 17.5t6 28.5q3 24 5 178q0 4 -2 6t-5 1q-24 -8 -64 -20q-5 -2 -9 5q-7 8 -7 18q0 6 9 9q16 7 39 15.5t33 12.5q7 4 7 9z" />
    <glyph glyph-name="lslash" unicode="&#x142;" horiz-adv-x="264" 
d="M43 326q8 5 31.5 16.5t27.5 14.5q4 4 4 15q0 103 -3 241q0 16 -24 29q-20 11 -20 20q0 3 4.5 7.5t11.5 6.5q69 19 101 38q3 1 6.5 -2.5t2.5 -6.5q-8 -66 -8 -305q0 -4 1 -6t4 -1q11 6 32 16t27 13q1 0 8 -3q7 -10 7 -17q0 -6 -8 -11q-9 -5 -36 -19t-31 -16t-4 -9
q-1 -51 -0.5 -151t2.5 -125q2 -18 11 -28t38 -19q25 -7 25 -16q0 -11 -27 -11q-13 0 -48.5 1.5t-43.5 1.5q-12 0 -40.5 -1.5t-39.5 -1.5q-28 0 -28 11q0 10 23 15q31 6 39 18t11 53q4 44 7 220q0 4 -1 5.5t-3 0.5q-11 -6 -28 -14t-22 -10q-3 -1 -9 2q-8 5 -8 16q0 9 8 12z
" />
    <glyph glyph-name="Nacute" unicode="&#x143;" horiz-adv-x="771" 
d="M15 634q0 12 33 12q7 0 50 -1.5t72 -1.5q8 0 21 -13q40 -48 79 -99q47 -59 332 -370q4 -4 7 -0.5t3 7.5q2 13 2 284q0 48 -5 100q-1 20 -13.5 35t-49.5 26q-27 8 -27 22q0 9 26 9q12 0 40.5 -0.5t45.5 -0.5q19 0 50.5 2t43.5 2q23 0 23 -11q0 -13 -24 -20
q-35 -8 -48.5 -21.5t-15.5 -51.5q-11 -198 -11 -405q0 -24 3.5 -76t3.5 -57q0 -21 -14 -21q-10 0 -23.5 10.5t-21.5 21.5q-7 8 -27 35t-35 45q-45 54 -177.5 206.5t-179.5 208.5q-3 4 -7 3t-4 -5q0 -7 -1.5 -26.5t-2.5 -45.5t-1 -61q0 -34 -0.5 -104.5t-1 -105.5t0.5 -65
q3 -35 15 -50t48 -25q25 -6 25 -18q0 -13 -32 -13q-14 0 -51 2.5t-56 2.5q-12 0 -34.5 -1t-30.5 -1q-26 0 -26 11t20 17q29 10 39.5 15.5t19.5 24t11 54.5q19 308 19 404q0 38 -7 48q-18 22 -31.5 29t-43.5 15q-6 1 -9 2q-22 6 -22 16zM464 824q15 10 28 5q9 -4 19 -13.5
t10 -18.5q0 -14 -20 -26q-89 -49 -150 -72q-24 -10 -34 0q-1 0 -1 3t3 9t10 12q59 50 135 101z" />
    <glyph glyph-name="nacute" unicode="&#x144;" horiz-adv-x="521" 
d="M302 625q10 21 24 21q31 0 38 -8q5 -7 -5 -27q-39 -74 -89 -148q-13 -19 -26 -19q-12 0 -4 27q21 64 62 154zM53 356q0 12 18 20q52 18 67 29q18 11 24 11q3 0 6.5 -5.5t3.5 -9.5q0 -9 -2 -28t-2 -22t6 -3q81 55 134 55q58 0 91 -38q35 -41 35 -122q0 -140 3 -182
q3 -26 37 -35q25 -7 25 -17q0 -11 -30 -11q-11 0 -35 1t-39 1q-14 0 -39 -1t-30 -1q-23 0 -23 12q0 9 23 17q18 7 24 16t7 34q3 49 3 183q0 25 -9.5 45.5t-20.5 28.5q-26 19 -64 19q-53 0 -89 -32q-10 -10 -10 -24q0 -228 1 -240t8 -18.5t29 -12.5q18 -5 18 -15
q0 -12 -25 -12q-5 0 -27 0.5t-34 0.5q-21 0 -49 -1.5t-34 -1.5q-26 0 -26 13q0 9 21 15q24 7 32 18t10 38q5 50 5 219q0 19 -24 39q-19 13 -19 17z" />
    <glyph glyph-name="Ncommaaccent" unicode="&#x145;" horiz-adv-x="771" 
d="M15 634q0 12 33 12q7 0 50 -1.5t72 -1.5q8 0 21 -13q40 -48 79 -99q47 -59 332 -370q4 -4 7 -0.5t3 7.5q2 13 2 284q0 48 -5 100q-1 20 -13.5 35t-49.5 26q-27 8 -27 22q0 9 26 9q12 0 40.5 -0.5t45.5 -0.5q19 0 50.5 2t43.5 2q23 0 23 -11q0 -13 -24 -20
q-35 -8 -48.5 -21.5t-15.5 -51.5q-11 -198 -11 -405q0 -24 3.5 -76t3.5 -57q0 -21 -14 -21q-10 0 -23.5 10.5t-21.5 21.5q-7 8 -27 35t-35 45q-45 54 -177.5 206.5t-179.5 208.5q-3 4 -7 3t-4 -5q0 -7 -1.5 -26.5t-2.5 -45.5t-1 -61q0 -34 -0.5 -104.5t-1 -105.5t0.5 -65
q3 -35 15 -50t48 -25q25 -6 25 -18q0 -13 -32 -13q-14 0 -51 2.5t-56 2.5q-12 0 -34.5 -1t-30.5 -1q-26 0 -26 11t20 17q29 10 39.5 15.5t19.5 24t11 54.5q19 308 19 404q0 38 -7 48q-18 22 -31.5 29t-43.5 15q-6 1 -9 2q-22 6 -22 16zM382 -33q28 0 48 -21t20 -59
q0 -36 -22 -62t-43 -35t-34 -9q-14 0 -14 8t12 14q20 8 36.5 25t16.5 36q0 22 -24 30q-39 11 -39 35q0 19 14 28.5t29 9.5z" />
    <glyph glyph-name="ncommaaccent" unicode="&#x146;" horiz-adv-x="521" 
d="M53 356q0 12 18 20q52 18 67 29q18 11 24 11q3 0 6.5 -5.5t3.5 -9.5q0 -9 -2 -28t-2 -22t6 -3q81 55 134 55q58 0 91 -38q35 -41 35 -122q0 -140 3 -182q3 -26 37 -35q25 -7 25 -17q0 -11 -30 -11q-11 0 -35 1t-39 1q-14 0 -39 -1t-30 -1q-23 0 -23 12q0 9 23 17
q18 7 24 16t7 34q3 49 3 183q0 25 -9.5 45.5t-20.5 28.5q-26 19 -64 19q-53 0 -89 -32q-10 -10 -10 -24q0 -228 1 -240t8 -18.5t29 -12.5q18 -5 18 -15q0 -12 -25 -12q-5 0 -27 0.5t-34 0.5q-21 0 -49 -1.5t-34 -1.5q-26 0 -26 13q0 9 21 15q24 7 32 18t10 38q5 50 5 219
q0 19 -24 39q-19 13 -19 17zM253 -42q28 0 48 -21t20 -59q0 -36 -22 -62t-43 -35t-34 -9q-14 0 -14 8t12 14q20 8 36.5 25t16.5 36q0 23 -24 30q-39 11 -39 35q0 19 14 28.5t29 9.5z" />
    <glyph glyph-name="Ncaron" unicode="&#x147;" horiz-adv-x="771" 
d="M15 634q0 12 33 12q7 0 50 -1.5t72 -1.5q8 0 21 -13q40 -48 79 -99q47 -59 332 -370q4 -4 7 -0.5t3 7.5q2 13 2 284q0 48 -5 100q-1 20 -13.5 35t-49.5 26q-27 8 -27 22q0 9 26 9q12 0 40.5 -0.5t45.5 -0.5q19 0 50.5 2t43.5 2q23 0 23 -11q0 -13 -24 -20
q-35 -8 -48.5 -21.5t-15.5 -51.5q-11 -198 -11 -405q0 -24 3.5 -76t3.5 -57q0 -21 -14 -21q-10 0 -23.5 10.5t-21.5 21.5q-7 8 -27 35t-35 45q-45 54 -177.5 206.5t-179.5 208.5q-3 4 -7 3t-4 -5q0 -7 -1.5 -26.5t-2.5 -45.5t-1 -61q0 -34 -0.5 -104.5t-1 -105.5t0.5 -65
q3 -35 15 -50t48 -25q25 -6 25 -18q0 -13 -32 -13q-14 0 -51 2.5t-56 2.5q-12 0 -34.5 -1t-30.5 -1q-26 0 -26 11t20 17q29 10 39.5 15.5t19.5 24t11 54.5q19 308 19 404q0 38 -7 48q-18 22 -31.5 29t-43.5 15q-6 1 -9 2q-22 6 -22 16zM389 691q-11 0 -38 22q-4 4 -19 16
t-32.5 26.5t-32.5 28.5q-7 4 -9.5 10.5t0 11t10.5 4.5q4 0 15 -4.5t12 -4.5q32 -14 90 -44q8 -3 16 1q12 6 41.5 20.5t43.5 21.5q1 0 12 4.5t16 4.5q28 0 0 -27q-7 -5 -26 -21t-35 -29.5t-27 -21.5q-24 -19 -37 -19z" />
    <glyph glyph-name="ncaron" unicode="&#x148;" horiz-adv-x="521" 
d="M262 449q-10 0 -29 39q-34 62 -65 125q-16 33 2 33q10 0 24 -19q6 -8 30 -42.5t34 -48.5q7 -7 11 -2q11 18 66 96q9 14 21 14q5 0 6.5 -7t-1.5 -15q-7 -19 -18 -41.5t-30.5 -57t-22.5 -40.5q-17 -34 -28 -34zM53 356q0 12 18 20q52 18 67 29q18 11 24 11q3 0 6.5 -5.5
t3.5 -9.5q0 -9 -2 -28t-2 -22t6 -3q81 55 134 55q58 0 91 -38q35 -41 35 -122q0 -140 3 -182q3 -26 37 -35q25 -7 25 -17q0 -11 -30 -11q-11 0 -35 1t-39 1q-14 0 -39 -1t-30 -1q-23 0 -23 12q0 9 23 17q18 7 24 16t7 34q3 49 3 183q0 25 -9.5 45.5t-20.5 28.5
q-26 19 -64 19q-53 0 -89 -32q-10 -10 -10 -24q0 -228 1 -240t8 -18.5t29 -12.5q18 -5 18 -15q0 -12 -25 -12q-5 0 -27 0.5t-34 0.5q-21 0 -49 -1.5t-34 -1.5q-26 0 -26 13q0 9 21 15q24 7 32 18t10 38q5 50 5 219q0 19 -24 39q-19 13 -19 17z" />
    <glyph glyph-name="napostrophe" unicode="&#x149;" horiz-adv-x="521" 
d="M53 356q0 12 18 20q52 18 67 29q18 11 24 11q3 0 6.5 -5.5t3.5 -9.5q0 -9 -2 -28t-2 -22t6 -3q81 55 134 55q58 0 91 -38q35 -41 35 -122q0 -140 3 -182q3 -26 37 -35q25 -7 25 -17q0 -11 -30 -11q-11 0 -35 1t-39 1q-14 0 -39 -1t-30 -1q-23 0 -23 12q0 9 23 17
q18 7 24 16t7 34q3 49 3 183q0 25 -9.5 45.5t-20.5 28.5q-26 19 -64 19q-53 0 -89 -32q-10 -10 -10 -24q0 -228 1 -240t8 -18.5t29 -12.5q18 -5 18 -15q0 -12 -25 -12q-5 0 -27 0.5t-34 0.5q-21 0 -49 -1.5t-34 -1.5q-26 0 -26 13q0 9 21 15q24 7 32 18t10 38q5 50 5 219
q0 19 -24 39q-19 13 -19 17zM119 624q27 0 47.5 -22.5t20.5 -58.5q0 -43 -34 -67t-57 -24q-16 0 -16 6q0 10 13 16q50 24 50 57q0 23 -29 27q-37 3 -37 29q0 18 13.5 27.5t28.5 9.5z" />
    <glyph glyph-name="Eng" unicode="&#x14a;" horiz-adv-x="771" 
d="M178 511q-3 4 -7 3t-4 -5q-5 -65 -5 -133q0 -34 -0.5 -104.5t-1 -105.5t0.5 -65q3 -35 15 -50t48 -25q25 -6 25 -18q0 -13 -32 -13q-14 0 -51 2.5t-56 2.5q-12 0 -34.5 -1t-30.5 -1q-26 0 -26 11t20 17q29 10 39.5 15.5t19.5 24t11 54.5q19 308 19 404v22.5t-1.5 13.5
t-1.5 6.5t-3 3.5l-2 3q-14 16 -26.5 24t-19.5 10.5t-38 10.5q-21 6 -21 16q0 12 33 12q7 0 50 -1.5t72 -1.5q8 0 21 -13q40 -48 79 -99q81 -102 332 -376q4 -4 7 -0.5t3 7.5q2 13 2 290q0 48 -5 100q-1 20 -13.5 35t-49.5 26q-27 8 -27 22q0 9 26 9q12 0 40.5 -0.5
t45.5 -0.5q19 0 50.5 2t43.5 2q23 0 23 -11q0 -13 -24 -20q-35 -8 -48.5 -21.5t-15.5 -51.5q-15 -270 -15 -461q0 -110 -7.5 -159t-25.5 -82q-15 -27 -35.5 -40.5t-35.5 -13.5q-17 0 -35 13.5t-24 26.5q-3 4 -2 11.5t7 8.5q60 6 79 24q21 19 30 41.5t9 67.5q0 16 -13 31
q-22 32 -57 75q-33 39 -169.5 201.5t-187.5 223.5z" />
    <glyph glyph-name="eng" unicode="&#x14b;" horiz-adv-x="505" 
d="M304 404q57 0 95 -43q35 -40 35 -123v-147q0 -237 -77 -323q-40 -45 -72 -45q-20 0 -36.5 8t-16.5 24q0 15 8 29q4 7 11 6q48 -11 64 -11q14 0 22 14t14.5 73t7.5 171q0 131 -1 191q-2 77 -30 100q-28 25 -64 25q-51 0 -89 -36q-8 -8 -8 -19q0 -229 1 -241t7.5 -18
t30.5 -12q8 -2 15.5 -7t7.5 -9q0 -14 -25 -14q-5 0 -30 1.5t-37 1.5q-21 0 -51.5 -1.5t-35.5 -1.5q-20 0 -20 14q0 3 5.5 8t13.5 7q25 7 33 17.5t10 37.5q4 40 4 224q0 12 -27 35q-15 10 -15 17q0 11 16 18q56 20 68 29q17 13 27 13q7 0 7 -16q0 -3 -2.5 -23.5t-2.5 -25.5
q1 -6 4 -7q78 59 133 59z" />
    <glyph glyph-name="Omacron" unicode="&#x14c;" horiz-adv-x="781" 
d="M385 661q145 0 246 -95t101 -236q0 -98 -40.5 -172t-101.5 -118q-83 -58 -197 -58q-76 0 -145 30.5t-115 83.5q-83 92 -83 226q0 165 130 269q37 30 95 50t110 20zM363 628q-33 0 -73 -16t-65 -41q-78 -76 -78 -235q0 -119 78 -219.5t192 -100.5q88 0 132 48
q35 31 60 92.5t25 143.5q0 81 -32.5 155t-88.5 119q-30 24 -72.5 39t-77.5 15zM283 787l215 6q3 0 6.5 -7.5t3.5 -14.5q0 -14 -6.5 -25.5t-12.5 -11.5l-212 -2q-9 0 -9 16q0 9 5.5 24t9.5 15z" />
    <glyph glyph-name="omacron" unicode="&#x14d;" horiz-adv-x="482" 
d="M140 573l209 4q3 0 6 -6.5t3 -9.5q0 -17 -6 -29.5t-15 -12.5h-204q-8 0 -8 12q0 15 5 28.5t10 13.5zM250 404q79 0 139.5 -57t60.5 -147q0 -57 -27 -104t-60 -68q-55 -40 -124 -40q-71 0 -133 52q-32 26 -53 70.5t-21 82.5q0 97 70 156q63 55 148 55zM231 374
q-31 0 -65 -29q-20 -19 -34.5 -54.5t-14.5 -73.5q0 -51 12 -89q18 -53 54.5 -82t75.5 -29q28 0 61 33q18 20 31.5 59.5t13.5 72.5q0 95 -50 153q-36 39 -84 39z" />
    <glyph glyph-name="Obreve" unicode="&#x14e;" horiz-adv-x="781" 
d="M385 661q145 0 246 -95t101 -236q0 -98 -40.5 -172t-101.5 -118q-83 -58 -197 -58q-76 0 -145 30.5t-115 83.5q-83 92 -83 226q0 165 130 269q37 30 95 50t110 20zM363 628q-33 0 -73 -16t-65 -41q-78 -76 -78 -235q0 -119 78 -219.5t192 -100.5q88 0 132 48
q35 31 60 92.5t25 143.5q0 81 -32.5 155t-88.5 119q-30 24 -72.5 39t-77.5 15zM383 712q-45 0 -77.5 26.5t-38.5 67.5q-1 6 2 13t9 7q5 0 15 -12q38 -45 96 -45q63 0 98 42q11 13 19 13q9 0 6 -15q-7 -36 -38.5 -66.5t-90.5 -30.5z" />
    <glyph glyph-name="obreve" unicode="&#x14f;" horiz-adv-x="482" 
d="M228 475q-37 0 -65 25t-33 80q-1 14 4 21t11 7q9 0 15 -20q17 -59 75 -59q59 0 81 61q2 7 9 12t13 5q5 0 5 -24q-5 -41 -33.5 -74.5t-81.5 -33.5zM250 404q79 0 139.5 -57t60.5 -147q0 -57 -27 -104t-60 -68q-55 -40 -124 -40q-71 0 -133 52q-32 26 -53 70.5t-21 82.5
q0 97 70 156q63 55 148 55zM231 374q-31 0 -65 -29q-20 -19 -34.5 -54.5t-14.5 -73.5q0 -51 12 -89q18 -53 54.5 -82t75.5 -29q28 0 61 33q18 20 31.5 59.5t13.5 72.5q0 95 -50 153q-36 39 -84 39z" />
    <glyph glyph-name="Ohungarumlaut" unicode="&#x150;" horiz-adv-x="781" 
d="M385 661q145 0 246 -95t101 -236q0 -98 -40.5 -172t-101.5 -118q-83 -58 -197 -58q-76 0 -145 30.5t-115 83.5q-83 92 -83 226q0 165 130 269q37 30 95 50t110 20zM363 628q-33 0 -73 -16t-65 -41q-78 -76 -78 -235q0 -119 78 -219.5t192 -100.5q88 0 132 48
q35 31 60 92.5t25 143.5q0 81 -32.5 155t-88.5 119q-30 24 -72.5 39t-77.5 15zM318 713q-11 -17 -25 -17q-12 0 -2 29q13 39 43 98q8 18 20 18q15 0 26.5 -5.5t11.5 -12.5q0 -8 -5 -17q-15 -25 -69 -93zM459 716q-11 -17 -25 -17q-10 0 -3 27q13 41 48 108q8 18 18 18
q11 0 24.5 -6t13.5 -14t-3 -16q-25 -44 -73 -100z" />
    <glyph glyph-name="ohungarumlaut" unicode="&#x151;" horiz-adv-x="482" 
d="M207 619q31 0 37 -14q3 -6 -6 -25q-22 -47 -65 -118q-13 -21 -23 -21q-4 0 -6 8t0 16q26 91 48 138q8 16 15 16zM332 631q38 0 38 -14q0 -8 -9 -26q-42 -86 -64 -124q-15 -20 -24 -20q-12 0 -3 28q17 61 45 139q6 17 17 17zM250 404q79 0 139.5 -57t60.5 -147
q0 -57 -27 -104t-60 -68q-55 -40 -124 -40q-71 0 -133 52q-32 26 -53 70.5t-21 82.5q0 97 70 156q63 55 148 55zM231 374q-31 0 -65 -29q-20 -19 -34.5 -54.5t-14.5 -73.5q0 -51 12 -89q18 -53 54.5 -82t75.5 -29q28 0 61 33q18 20 31.5 59.5t13.5 72.5q0 95 -50 153
q-36 39 -84 39z" />
    <glyph glyph-name="OE" unicode="&#x152;" horiz-adv-x="1060" 
d="M373 626q-86 0 -142 -51q-82 -75 -82 -239q0 -78 29.5 -148.5t91 -118.5t142.5 -48q63 0 114 38q40 31 65 95.5t25 157.5q0 86 -17.5 141.5t-59.5 98.5q-71 74 -166 74zM721 643h140q19 0 50 1t37 1q3 0 8 -4t5 -9q1 -4 2 -43.5t0 -51.5q-2 -26 -17 -26q-8 0 -15 21
q-6 21 -11 33.5t-14 24t-20 12.5q-31 5 -166 5q-9 0 -12 -15q-7 -40 -7 -235q0 -4 3 -8.5t8 -4.5h82q55 0 71.5 10t29.5 49q6 16 17 16t11 -20q0 -6 -2 -29t-2 -35q-1 -20 1.5 -52t2.5 -37q0 -23 -14 -23q-11 0 -16 19q-6 18 -8.5 24t-9 17t-16 14.5t-24.5 4.5q-37 2 -127 2
q-7 0 -7 -10q0 -172 1 -185q5 -49 11 -57q9 -13 28.5 -17.5t77.5 -4.5q41 0 61.5 2t39.5 5.5t32 17t24.5 28.5t32.5 48q11 18 17 18q12 0 12 -23q0 -6 -21 -61.5t-26 -61.5q-10 -10 -25 -10q-3 0 -118 3.5t-134 3.5q-14 0 -43.5 -1t-41.5 -1q-8 0 -10.5 6.5t-2.5 25.5l2 69
q0 11 -6 2q-41 -55 -103.5 -86.5t-137.5 -31.5q-135 0 -228 99.5t-93 237.5q0 164 125 267q39 32 94 52.5t107 20.5q140 0 235 -110q2 -2 4.5 -0.5t2.5 5.5q0 13 -1 35t-1 30q0 23 11 23h94z" />
    <glyph glyph-name="oe" unicode="&#x153;" horiz-adv-x="695" 
d="M250 404q41 0 78 -18.5t55 -36.5q7 -7 14 -1q65 53 136 53q70 0 104.5 -41t34.5 -83q0 -9 -13.5 -19t-32.5 -10h-194q-7 0 -9 -8q-4 -11 -4 -30q0 -67 32 -112.5t96 -45.5q58 0 104 42q5 5 10 4.5t5 -8.5q0 -13 -12 -28q-56 -70 -147 -70q-39 0 -72 16.5t-52 37.5
q-5 5 -9 -2q-56 -56 -140 -56q-85 0 -143.5 63.5t-58.5 141.5q0 115 86 171q59 40 132 40zM225 373q-30 0 -55 -23q-22 -18 -37.5 -56.5t-15.5 -86.5q0 -70 34.5 -129t98.5 -59q40 0 64 27q34 44 34 151q0 74 -28 125t-95 51zM523 371q-35 0 -59.5 -23t-35.5 -59
q-3 -8 5 -12q3 0 59 2t66 2q13 0 22 9.5t9 16.5q0 23 -15 43.5t-51 20.5z" />
    <glyph glyph-name="Racute" unicode="&#x154;" horiz-adv-x="631" 
d="M506 481q0 -41 -22 -79.5t-59 -60.5q-1 -1 -14 -7.5t-17 -9.5q-2 -2 -3.5 -7t-0.5 -8q10 -23 62 -102t93 -125q40 -47 98 -59q6 -1 11 -6t5 -8q0 -6 -14 -13q-17 -7 -55 -7q-35 0 -73 18.5t-60 46.5q-51 70 -126 188q-28 42 -40 50q-3 3 -26.5 8t-44.5 5q-5 0 -8.5 -4.5
t-3.5 -7.5q-3 -58 4 -202q2 -32 13.5 -45.5t46.5 -21.5q24 -7 24 -17q0 -13 -24 -13q-18 0 -55 3t-74 3q-10 0 -43 -2t-38 -2q-26 0 -26 14q0 7 22 15q26 8 36.5 13t19 15.5t9.5 29.5q6 93 6 197q0 226 -6 284q-3 26 -12.5 33.5t-45.5 16.5q-24 6 -24 17q0 12 27 12h56
q16 0 74.5 2.5t87.5 2.5q112 0 163 -42q25 -21 41 -55t16 -70zM417 479q0 20 -12.5 50t-32.5 50q-18 17 -46 27.5t-53 10.5q-33 0 -48 -7q-3 -1 -7.5 -9.5t-4.5 -11.5q-2 -27 -3.5 -129t0.5 -116q4 -15 16 -15q39 0 75.5 9t49.5 17q25 16 45.5 48.5t20.5 75.5zM374 822
q15 10 28 5q9 -4 19 -13.5t10 -18.5q0 -14 -20 -26q-89 -49 -150 -72q-24 -10 -34 0q-1 0 -1 3t3 9t10 12q59 50 135 101z" />
    <glyph glyph-name="racute" unicode="&#x155;" horiz-adv-x="340" 
d="M220 625q10 21 24 21q31 0 38 -8q5 -7 -5 -27q-39 -74 -89 -148q-13 -19 -26 -19q-12 0 -4 27q21 64 62 154zM51 352q0 12 13 17q46 15 74 32q18 12 20 12q3 0 6 -4.5t3 -7.5q0 -9 -1 -27t-1 -28q0 -3 2.5 -4t4.5 0q65 62 114 62q27 0 38.5 -11.5t11.5 -22.5q0 -4 -6 -14
q-27 -39 -41 -46q-5 -3 -14 3q-24 22 -55 22t-44 -14q-10 -11 -10 -22q0 -126 6 -216q3 -47 26 -51q7 -2 46 -12q18 -6 18 -16q0 -9 -24 -9q-8 0 -46.5 2.5t-71.5 2.5q-16 0 -35.5 -2t-30.5 -2q-21 0 -21 12q0 6 20 13q29 10 35.5 23.5t7.5 59.5v191q0 23 -11 30
q-6 5 -12.5 9.5t-10 7t-6.5 4.5t-4 3.5t-1 2.5z" />
    </font>
</defs>
</svg>
